<svg xmlns="http://www.w3.org/2000/svg" width="25" height="25" viewBox="0 0 25 25">
  <g id="Group_48215" data-name="Group 48215" transform="translate(-5855 2565)">
    <rect id="Path" width="25" height="25" transform="translate(5855 -2565)" fill="rgba(255,255,255,0)"/>
    <path id="bookmark-Light_1_" d="M458.437,279.5h-6.25a4.693,4.693,0,0,0-4.687,4.688v13.54a1.562,1.562,0,0,0,2.452,1.284l5.061-3.506a.519.519,0,0,1,.593,0l5.066,3.507a1.562,1.562,0,0,0,2.452-1.284V284.187A4.691,4.691,0,0,0,458.437,279.5Zm3.646,18.227a.521.521,0,0,1-.818.428l-5.066-3.507a1.569,1.569,0,0,0-1.779,0l-5.061,3.506a.521.521,0,0,1-.818-.428v-13.54a3.65,3.65,0,0,1,3.646-3.646h6.25a3.65,3.65,0,0,1,3.646,3.646v13.54Z" transform="translate(5412.188 -2841.896)" fill="#343433"/>
  </g>
</svg>
