<svg xmlns="http://www.w3.org/2000/svg" width="148" height="148" viewBox="0 0 148 148">
  <g id="Group_35770" data-name="Group 35770" transform="translate(-20663 3334)">
    <path id="Path_37151" data-name="Path 37151" d="M200,56a74,74,0,1,0,74,74,74,74,0,0,0-74-74Zm0,138.2A64.2,64.2,0,1,1,264.2,130,64.2,64.2,0,0,1,200,194.2Z" transform="translate(20537 -3390)" fill="#e4001b"/>
    <g id="Group_35769" data-name="Group 35769" transform="translate(18401.213 -3040.773)">
      <path id="noun-hamburger-2685141" d="M4.854,9.753,92.26,9.712a4.856,4.856,0,0,0,0-9.712L4.858.041a4.856,4.856,0,0,0,0,9.712Z" transform="translate(2304.897 -257.011) rotate(45)" fill="#e4001b"/>
      <path id="noun-hamburger-2685141-2" data-name="noun-hamburger-2685141" d="M4.858,9.712l87.407.041a4.856,4.856,0,0,0,0-9.712L4.854,0a4.856,4.856,0,0,0,0,9.712Z" transform="translate(2298.001 -188.338) rotate(-45)" fill="#e4001b"/>
    </g>
  </g>
</svg>
