<svg xmlns="http://www.w3.org/2000/svg" width="25.433" height="25.433" viewBox="0 0 25.433 25.433">
  <g id="Group_48231" data-name="Group 48231" transform="translate(4711.216 -4344.775)">
    <rect id="Path" width="25" height="25" transform="matrix(1, 0.017, -0.017, 1, -4710.78, 4344.775)" fill="rgba(255,255,255,0)"/>
    <path id="question-circle-Filled_1_" d="M263.417,2555a10.417,10.417,0,1,0,10.417,10.417A10.434,10.434,0,0,0,263.417,2555Zm0,16.667a1.042,1.042,0,1,1,1.042-1.042A1.045,1.045,0,0,1,263.417,2571.667Zm2.125-4.875c-.958.635-1.115.979-1.135,1.042a1.038,1.038,0,0,1-.99.708,1.235,1.235,0,0,1-.333-.052,1.058,1.058,0,0,1-.656-1.323,4.777,4.777,0,0,1,1.958-2.115,1.948,1.948,0,0,0,1.083-2.1,2.114,2.114,0,0,0-1.667-1.667,2.087,2.087,0,0,0-2.469,2.052,1.042,1.042,0,1,1-2.083,0,4.149,4.149,0,0,1,1.49-3.187,4.162,4.162,0,0,1,6.781,2.438A4.07,4.07,0,0,1,265.542,2566.792Z" transform="matrix(1, 0.017, -0.017, 1, -4917.104, 1787.868)" fill="#fbc100"/>
  </g>
</svg>
