<svg xmlns="http://www.w3.org/2000/svg" width="25" height="25" viewBox="0 0 25 25">
  <g id="Group_48210" data-name="Group 48210" transform="translate(-6082 2565)">
    <rect id="Path" width="25" height="25" transform="translate(6082 -2565)" fill="rgba(255,255,255,0)"/>
    <path id="question-circle-Light_1_" d="M263.4,351.5a9.9,9.9,0,1,0,9.9,9.9A9.907,9.907,0,0,0,263.4,351.5Zm0,18.75a8.854,8.854,0,1,1,8.854-8.854A8.864,8.864,0,0,1,263.4,370.25Zm3.589-11.595a3.509,3.509,0,0,1-1.752,3.676c-.958.636-1.259,1.066-1.344,1.314a.521.521,0,0,1-.987-.332,4.033,4.033,0,0,1,1.753-1.848,2.505,2.505,0,0,0,1.3-2.628,2.605,2.605,0,0,0-5.167.477.521.521,0,1,1-1.042,0,3.648,3.648,0,0,1,7.236-.658Zm-2.807,7.949a.781.781,0,1,1-.781-.781A.782.782,0,0,1,264.177,366.6Z" transform="translate(5831.104 -2913.896)" fill="#343433"/>
  </g>
</svg>
