<svg xmlns="http://www.w3.org/2000/svg" width="35" height="35" viewBox="0 0 35 35">
  <g id="Group_48208" data-name="Group 48208" transform="translate(-5104 6303)">
    <rect id="Rectangle_17143" data-name="Rectangle 17143" width="35" height="35" rx="17.5" transform="translate(5104 -6303)" fill="#f0f0f0"/>
    <path id="sliders-h-Light_1_" d="M690.5,353a2.5,2.5,0,0,0-2.457,2.083h-2.126a.417.417,0,1,0,0,.833h2.126A2.5,2.5,0,1,0,690.5,353Zm0,4.167a1.667,1.667,0,1,1,1.667-1.667A1.668,1.668,0,0,1,690.5,357.167Zm5-1.667a.417.417,0,0,1,.417-.417h5a.417.417,0,1,1,0,.833h-5A.417.417,0,0,1,695.5,355.5Zm5.417,7.917h-2.126a2.5,2.5,0,1,0,0,.833h2.126a.417.417,0,1,0,0-.833Zm-4.583,2.083A1.667,1.667,0,1,1,698,363.833,1.668,1.668,0,0,1,696.333,365.5Zm-5-1.667a.417.417,0,0,1-.417.417h-5a.417.417,0,1,1,0-.833h5A.416.416,0,0,1,691.333,363.833Z" transform="translate(4428.083 -6644.667)" fill="#343433"/>
  </g>
</svg>
