<svg xmlns="http://www.w3.org/2000/svg" width="25" height="25" viewBox="0 0 25 25">
  <g id="Group_48211" data-name="Group 48211" transform="translate(-6009 2565)">
    <rect id="Path" width="25" height="25" transform="translate(6009 -2565)" fill="rgba(255,255,255,0)"/>
    <path id="home-Light_1_" d="M223.562,284.749l-5.208-4.187a4.722,4.722,0,0,0-5.878,0l-5.208,4.188a4.658,4.658,0,0,0-1.748,3.647v6.242a4.69,4.69,0,0,0,4.688,4.682h2.6v-4.682a2.6,2.6,0,0,1,5.208,0v4.682h2.6a4.69,4.69,0,0,0,4.688-4.682V288.4A4.656,4.656,0,0,0,223.562,284.749Zm.707,9.889a3.647,3.647,0,0,1-3.646,3.641h-1.562v-3.641a3.646,3.646,0,0,0-7.292,0v3.641h-1.562a3.647,3.647,0,0,1-3.646-3.641V288.4a3.623,3.623,0,0,1,1.359-2.835l5.208-4.187a3.674,3.674,0,0,1,4.573,0l5.208,4.187a3.62,3.62,0,0,1,1.359,2.835v6.242Z" transform="translate(5806.105 -2841.894)" fill="#343433"/>
  </g>
</svg>
