<svg xmlns="http://www.w3.org/2000/svg" width="25" height="25" viewBox="0 0 25 25">
  <g id="Group_48222" data-name="Group 48222" transform="translate(5539 -4422)">
    <rect id="Path" width="25" height="25" transform="translate(-5539 4422)" fill="rgba(255,255,255,0)"/>
    <path id="home-Filled_1_" d="M225.292,2492.368v6.241a4.689,4.689,0,0,1-4.687,4.681H218v-4.682a2.6,2.6,0,0,0-5.208,0v4.682h-2.6a4.69,4.69,0,0,1-4.687-4.681v-6.241a4.663,4.663,0,0,1,1.748-3.648l5.208-4.186a4.72,4.72,0,0,1,5.878,0l5.208,4.186A4.659,4.659,0,0,1,225.292,2492.368Z" transform="translate(-5741.896 1941.104)" fill="#fbc100"/>
  </g>
</svg>
