<svg version="1.2" xmlns="http://www.w3.org/2000/svg" viewBox="0 0 150 150" width="23" height="23">
	<title>i10-svg</title>
	<defs>
		<clipPath clipPathUnits="userSpaceOnUse" id="cp1">
			<path d="m0 0h150v150h-150z"/>
		</clipPath>
	</defs>
	<style>
		.s0 { fill: #000000 } 
	</style>
	<g id="Clip-Path: Mask_Group_142" clip-path="url(#cp1)">
		<g id="Mask_Group_142">
			<g id="noun_Engine_3319786">
				<path id="Path_11443" fill-rule="evenodd" class="s0" d="m56.6 36.3q-0.5-0.1-0.9-0.4-0.5-0.2-0.9-0.5-0.3-0.3-0.7-0.7-0.3-0.3-0.6-0.7c-0.5-0.9-0.6-1.4-0.7-4.4l-0.1-3.5h-1.7q-0.3 0-0.5 0-0.3 0-0.6 0-0.2-0.1-0.5-0.1-0.2-0.1-0.5-0.2c-0.4-0.4-0.4-3 0-4q0.2-0.5 0.6-1 0.3-0.4 0.7-0.8 0.4-0.3 0.9-0.6 0.5-0.3 1-0.4 0.7-0.2 1.3-0.2 0.7-0.1 1.4-0.2 0.6 0 1.3 0 0.7 0 1.4 0h4.1l0.4-0.8q0.2-0.2 0.3-0.4 0.2-0.2 0.4-0.3 0.2-0.2 0.4-0.3 0.2-0.2 0.4-0.3c1-0.5 1.7-0.5 11.6-0.5 9.8 0 10.5 0 11.5 0.5q0.2 0.1 0.4 0.3 0.2 0.1 0.4 0.3 0.2 0.1 0.4 0.3 0.2 0.2 0.3 0.4l0.5 0.8h4q0.7 0 1.4 0 0.7 0 1.3 0 0.7 0.1 1.4 0.2 0.6 0 1.3 0.2 0.5 0.1 1 0.4 0.5 0.3 0.9 0.6 0.4 0.4 0.8 0.8 0.3 0.5 0.5 1c0.4 1 0.4 3.6 0 4q-0.3 0.1-0.5 0.2-0.3 0-0.5 0.1-0.3 0-0.5 0-0.3 0-0.6 0h-1.7l-0.1 3.3c-0.2 4.6-0.9 5.9-3.8 6.9-1.6 0.6-35.4 0.6-36.9 0zm42.5-13.1c0-0.8-0.5-1.4-1.6-1.9-0.7-0.3-2-0.4-5.7-0.4h-4.8l-0.5-1.1q-0.1-0.2-0.2-0.4-0.1-0.2-0.2-0.3-0.1-0.2-0.3-0.3-0.1-0.2-0.2-0.3c-0.6-0.2-20.5-0.2-21 0q-0.2 0.1-0.3 0.3-0.2 0.1-0.3 0.3-0.1 0.1-0.2 0.3-0.1 0.2-0.2 0.4l-0.5 1.1h-4.8c-3.7 0-5 0.1-5.7 0.4-1.1 0.5-1.6 1.1-1.6 1.9v0.6h48.2zm-44.3 92.6q-0.5-0.6-0.9-1.3-0.5-0.7-0.9-1.4-0.4-0.7-0.7-1.4-0.4-0.7-0.7-1.4l-0.8-2-14.1-0.1c-14-0.1-14.2-0.1-15.4-0.7q-0.5-0.2-0.9-0.5-0.5-0.3-0.8-0.7-0.3-0.5-0.4-1-0.2-0.5-0.2-1c0-2.2 0.8-3.4 9.8-15.1l8.8-11.4-7.1-7.1c-5.6-5.7-7.1-7.3-7.1-7.9q0-0.1 0-0.2 0-0.2-0.1-0.3 0-0.1-0.1-0.2-0.1-0.1-0.2-0.2c-0.3-0.3-0.5-0.2-1.3 0.4q-0.1 0.2-0.3 0.3-0.1 0.1-0.3 0.2-0.2 0.1-0.4 0.2-0.1 0.1-0.3 0.1c-0.6 0-3.5-2.9-3.5-3.4q0.2-0.3 0.3-0.6 0.2-0.3 0.4-0.5 0.2-0.3 0.4-0.5 0.2-0.3 0.5-0.5l1.5-1.6-1.2-1.2c-1.8-1.7-2.3-3.5-1.5-5.1q0.3-0.3 0.6-0.7 0.3-0.4 0.6-0.7 0.3-0.4 0.6-0.7 0.3-0.3 0.7-0.6 0.2-0.3 0.5-0.6 0.3-0.3 0.6-0.5 0.2-0.3 0.5-0.6 0.2-0.3 0.4-0.6 0-0.2-0.1-0.3 0-0.1-0.1-0.2 0-0.1-0.1-0.2-0.1-0.1-0.2-0.2-0.1-0.2-0.2-0.4-0.1-0.2-0.2-0.4 0-0.3-0.1-0.5 0-0.2 0-0.4c0-1 0.2-1.2 3.4-4.4l3.3-3.4 1.2 0.1q0.3 0.1 0.5 0.1 0.2 0.1 0.4 0.2 0.3 0 0.5 0.2 0.2 0.1 0.4 0.2l0.6 0.6 2.2-2.3c2.9-3 4.1-3.4 6.1-2.4q0.3 0.1 0.5 0.3 0.3 0.2 0.6 0.4 0.2 0.2 0.4 0.4 0.3 0.2 0.5 0.4l1 1.1 1.6-1.6q0.2-0.2 0.5-0.4 0.2-0.2 0.5-0.4 0.2-0.2 0.5-0.4 0.2-0.2 0.5-0.3 0.3 0.2 0.6 0.3 0.2 0.2 0.5 0.4 0.2 0.2 0.4 0.5 0.3 0.2 0.5 0.5c1.7 1.8 1.8 2 0.5 3.4-0.7 0.7-0.7 0.8-0.3 1.2q0.1 0.1 0.2 0.2 0.1 0 0.3 0.1 0.1 0 0.2 0 0.1 0 0.3 0c0.3-0.1 1.1 0.6 3.2 2.5l2.7 2.8 0.7-1.3q0.2-0.3 0.4-0.6 0.2-0.3 0.5-0.5 0.3-0.3 0.6-0.5 0.3-0.2 0.6-0.3l1.4-0.7h15.6c17.2 0 16.7 0 18.4 1.6q0.2 0.2 0.3 0.4 0.2 0.2 0.3 0.4 0.2 0.2 0.3 0.4 0.1 0.2 0.2 0.4l0.3 0.8 2.8-2.8c2.1-2.1 2.9-2.8 3.3-2.6q0.1 0 0.2 0 0.1 0 0.3 0 0.1-0.1 0.2-0.1 0.1-0.1 0.2-0.2c0.5-0.4 0.4-0.5-0.4-1.4q-0.2-0.2-0.3-0.3-0.1-0.2-0.3-0.3-0.1-0.2-0.2-0.4-0.1-0.2-0.1-0.4 0.1-0.2 0.3-0.5 0.2-0.3 0.4-0.5 0.2-0.2 0.5-0.5 0.2-0.2 0.4-0.4c1.3-1.2 1.8-1.6 2.2-1.5q0.2 0.2 0.5 0.3 0.2 0.2 0.5 0.4 0.2 0.2 0.4 0.4 0.2 0.2 0.5 0.5l1.4 1.4 1.5-1.4c2.7-2.5 4.1-2.3 7.6 1.1l2.3 2.4 0.6-0.6q0.1-0.1 0.4-0.2 0.2-0.2 0.4-0.2 0.2-0.1 0.5-0.2 0.2 0 0.4-0.1l1.2-0.1 3.4 3.4c3.2 3.2 3.3 3.4 3.3 4.4q0 0.2 0 0.4 0 0.2-0.1 0.5-0.1 0.2-0.2 0.4-0.1 0.2-0.2 0.4-0.1 0.1-0.2 0.2 0 0.1-0.1 0.2-0.1 0.1-0.1 0.2-0.1 0.1-0.1 0.2 0.2 0.4 0.5 0.7 0.3 0.3 0.6 0.7 0.3 0.3 0.6 0.6 0.3 0.3 0.6 0.6c1.8 1.9 2.3 2.6 2.5 3.3 0.3 1.5-0.2 2.8-1.7 4.2l-1.3 1.3 1.6 1.6q0.2 0.2 0.4 0.5 0.2 0.2 0.4 0.5 0.2 0.2 0.4 0.5 0.2 0.3 0.3 0.6c0 0.5-2.9 3.4-3.4 3.4q-0.2 0-0.4-0.1-0.2-0.1-0.4-0.2-0.1-0.1-0.3-0.2-0.1-0.1-0.3-0.3c-0.9-0.7-0.9-0.8-1.4-0.3q-0.1 0-0.2 0.1 0 0.1-0.1 0.2 0 0.1 0 0.3-0.1 0.1 0 0.2c0.1 0.3-2.2 2.7-7.1 7.6l-7.2 7.2 1.6 2c14.3 18.6 16.1 21.1 16.6 22.4q1.5 4-1.7 5.5c-1.2 0.6-1.5 0.6-15.5 0.7l-14.2 0.1-0.1 0.5q-0.4 0.9-0.8 1.8-0.4 0.8-0.8 1.7-0.5 0.8-1 1.6-0.4 0.9-1 1.7l-0.6 0.7h-19.7c-18.7 0-19.8-0.1-20.2-0.5zm-15.1-81.6c-2-2-1.3-2.5-11.4 7.6-5.8 5.8-9 9.2-9 9.5q0.1 0.3 0.2 0.5 0.1 0.3 0.3 0.5 0.1 0.2 0.3 0.4 0.2 0.2 0.4 0.4l1.2 1.2 19.1-19zm77.5 12.5c-7.2-7.2-13.2-13.1-13.4-13.1q-0.1 0-0.1 0-0.1 0.1-0.1 0.1-0.1 0.1-0.1 0.1 0 0.1 0 0.1c0 0.2 5.8 6.2 13 13.4 10.4 10.4 13.1 12.9 13.3 12.7 0.3-0.2-2.2-2.9-12.6-13.3zm-70.7-12.8q0 0-0.1-0.1 0 0 0-0.1-0.1 0-0.1-0.1-0.1 0-0.2 0c-0.1 0-6.2 5.9-13.3 13-10.4 10.4-13 13.1-12.7 13.4 0.2 0.3 2.9-2.3 13.3-12.7 7.2-7.2 13.1-13.2 13.1-13.4zm84.2 17.5c0-0.7-17.8-18.6-18.5-18.6q-0.2 0.1-0.5 0.3-0.2 0.1-0.4 0.3-0.3 0.1-0.5 0.3-0.2 0.2-0.4 0.4l-1.3 1.2 19.1 19 1.2-1.2q0.2-0.1 0.4-0.3 0.2-0.2 0.4-0.5 0.1-0.2 0.2-0.4 0.2-0.3 0.3-0.5zm-104.1-11.3c2.4-2.3 2.7-2.8 2.4-3.1q-0.1-0.1-0.2-0.1-0.1-0.1-0.2-0.1-0.1 0-0.2 0.1-0.2 0-0.3 0c-0.7 0.5-5 4.9-5 5.3 0 0.4 0.3 0.7 0.5 0.7q0.4-0.3 0.8-0.6 0.4-0.4 0.8-0.7 0.3-0.4 0.7-0.7 0.3-0.4 0.7-0.8zm98.6 20.1c0.3-0.4-1.1-1.9-10.5-11.4-10.4-10.4-11-10.9-11.4-10.4-0.5 0.4 0.1 0.9 10.4 11.3 6 6 11 10.9 11 10.9q0.1-0.1 0.2-0.1 0.1 0 0.1-0.1 0.1 0 0.1-0.1 0.1-0.1 0.1-0.1zm-89-10.5c10.4-10.4 10.9-10.9 10.4-11.3-0.4-0.5-0.9 0-11.3 10.4-9.5 9.5-10.9 11-10.6 11.4q0 0 0.1 0.1 0 0.1 0.1 0.1 0.1 0.1 0.1 0.1 0.1 0 0.2 0.1c0.1 0 5-4.9 11-10.9zm42.1 25.1q0.7-0.4 1.4-0.8 0.6-0.5 1.1-1.1 0.6-0.6 1-1.2 0.5-0.7 0.8-1.4 0.2-0.7 0.3-1.4 0.1-0.7 0.1-1.5 0-0.7-0.1-1.4-0.1-0.7-0.3-1.4-0.3-0.7-0.8-1.3-0.4-0.7-0.9-1.3-0.5-0.5-1.1-1-0.6-0.5-1.3-0.9-0.4-0.2-0.8-0.4-0.5-0.1-0.9-0.2-0.5-0.1-0.9-0.1-0.5 0-0.9 0-0.5 0-1 0-0.4 0-0.9 0.1-0.4 0.1-0.8 0.2-0.5 0.2-0.9 0.4-0.6 0.4-1.3 0.9-0.6 0.5-1.1 1-0.5 0.6-0.9 1.3-0.4 0.6-0.8 1.3-0.2 0.7-0.3 1.4-0.1 0.7-0.1 1.4 0 0.7 0.1 1.4 0.1 0.7 0.3 1.4 0.4 0.9 0.9 1.7 0.6 0.8 1.3 1.4 0.7 0.7 1.5 1.2 0.8 0.4 1.7 0.7 0.7 0.2 1.4 0.3 0.7 0 1.5 0 0.7-0.1 1.4-0.3 0.7-0.1 1.3-0.4zm-4.7-3.1q-0.5-0.2-0.8-0.4-0.4-0.3-0.8-0.6-0.3-0.3-0.6-0.6-0.3-0.4-0.5-0.8-0.2-0.5-0.3-1-0.1-0.6 0-1.1 0-0.5 0.1-1.1 0.2-0.5 0.4-1 0.4-0.4 0.8-0.8 0.4-0.4 0.9-0.7 0.5-0.3 1-0.5 0.6-0.2 1.1-0.2 0.6 0 1.1 0.2 0.6 0.1 1.1 0.4 0.5 0.3 0.9 0.7 0.4 0.4 0.7 0.9c0.5 0.8 0.7 1.7 0.7 2.6-0.1 0.9-0.4 1.8-1 2.5-0.5 0.7-1.3 1.2-2.2 1.5-0.8 0.3-1.8 0.3-2.6 0zm2.4-2.4c0.8-0.5 1.3-1.5 1-2.5-0.3-1-1.2-1.6-2.2-1.6-0.9 0.1-1.8 0.8-2 1.8-0.2 1 0.3 1.9 1.3 2.3q0.2 0.2 0.4 0.3 0.3 0 0.5 0 0.3 0 0.5-0.1 0.3-0.1 0.5-0.2zm37.9 14.5q-0.4-0.5-0.8-1.1-0.4-0.6-0.8-1.1-0.5-0.5-0.9-1.1-0.5-0.5-0.9-1-0.2 0.1-0.3 0.1-0.1 0.1-0.2 0.2-0.1 0.1-0.2 0.2-0.1 0.1-0.2 0.2l-0.7 0.8 1.4 1.1q0.4 0.3 0.8 0.6 0.5 0.3 1 0.6 0.4 0.2 0.9 0.4 0.5 0.3 1 0.4c0.1 0 0-0.1-0.1-0.3zm-43.5-0.5c0.4-0.2 0.4-0.5 0.4-3.2v-2.9l-1.1-0.7q-0.3-0.2-0.5-0.4-0.3-0.2-0.6-0.4-0.2-0.2-0.5-0.4-0.2-0.2-0.5-0.4l-0.9-1v11l1.6-0.7c0.9-0.4 1.8-0.8 2.1-0.9zm35 1.9q0.2-0.2 0.4-0.4 0.2-0.1 0.4-0.3 0.2-0.1 0.4-0.2 0.2-0.2 0.5-0.3l1.1-0.5-11.3-8.9c-6.3-4.9-11.4-8.9-11.4-8.8q-0.1 0.3-0.1 0.6 0 0.3-0.1 0.6 0 0.3 0 0.6 0 0.3 0 0.6l-0.1 2.4 9.6 7.5c5.3 4.2 9.7 7.6 9.9 7.6q0.1 0 0.2-0.1 0.1 0 0.2-0.1 0.1-0.1 0.2-0.2 0.1 0 0.1-0.1zm7.4 9.6q0.3-0.1 0.6-0.3 0.3-0.2 0.6-0.4 0.2-0.2 0.4-0.5 0.2-0.3 0.4-0.6 0.4-0.8 0.5-1.7 0.1-0.8 0-1.7-0.2-0.9-0.7-1.6-0.4-0.8-1.1-1.3-0.8-0.7-1.9-1-1.2-0.3-2.3 0-1.1 0.2-2 0.9-0.8 0.7-1.3 1.7-0.3 0.5-0.5 1-0.1 0.5-0.2 1 0 0.6 0.1 1.1 0.1 0.5 0.3 1c1.2 2.9 4.1 3.9 7.1 2.4zm-15.1 6.6l9.4-4.1-1-0.7q-0.2-0.2-0.4-0.4-0.3-0.1-0.5-0.3-0.2-0.2-0.4-0.4-0.2-0.2-0.3-0.4l-0.7-0.8-7 3-7 3-0.2 1q-0.1 0.3-0.2 0.6-0.1 0.4-0.2 0.7-0.1 0.3-0.2 0.6-0.2 0.3-0.3 0.6c-0.4 0.9-0.7 1.6-0.6 1.6 0.1 0 4.4-1.8 9.6-4zm30.2 3.9c0.7-0.4 0.7-0.6 0.6-1.5q0-0.3-0.1-0.6-0.1-0.2-0.2-0.5-0.1-0.3-0.2-0.5-0.2-0.3-0.3-0.5c-0.7-1.1-9.2-12.2-9.8-12.8-0.2-0.2-0.3 0.2-0.3 1.8q0 0.4 0 0.8 0 0.4-0.1 0.8-0.1 0.4-0.2 0.8-0.1 0.4-0.3 0.8-0.4 0.7-0.9 1.3-0.5 0.6-1.1 1.1-0.6 0.5-1.3 0.8-0.7 0.4-1.4 0.6c-0.4 0.1-3.1 1.3-6.1 2.6l-5.5 2.3-0.4 1.5q-0.1 0.2-0.1 0.4-0.1 0.2-0.1 0.4 0 0.2 0 0.5-0.1 0.2 0 0.4c0 0.1 6.2 0.1 13.6 0.1 12.6-0.1 13.6-0.1 14.2-0.6zm-78 0.5q0-0.3-0.1-0.6 0-0.3-0.1-0.6 0-0.3-0.1-0.6-0.1-0.3-0.2-0.6-0.4-1.6-0.7-3.3-0.3-1.6-0.6-3.3-0.3-1.7-0.6-3.3-0.2-1.7-0.4-3.4l-0.4-3.5-3.5-3.5c-2-2-3.7-3.6-3.8-3.6-0.2 0-16.1 20.5-17.2 22.2-0.9 1.4-1.1 2.9-0.5 3.4q0.2 0.1 0.4 0.2 0.1 0.1 0.3 0.2 0.2 0.1 0.4 0.1 0.2 0 0.4 0.1c1.3 0.2 26.5 0.3 26.7 0.1zm28.3 4.2q1.3-0.4 2.5-1 1.1-0.6 2.2-1.4 1-0.9 1.9-1.9 0.8-1 1.4-2.1 0.7-1.4 1.1-3 0.4-1.5 0.3-3 0-1.6-0.3-3.1-0.4-1.6-1.1-2.9-0.3-0.4-0.5-0.8-0.3-0.4-0.6-0.8-0.3-0.3-0.6-0.7-0.3-0.3-0.6-0.6c-1.2-1.2-2.6-2.2-4.1-2.8-1.5-0.6-3.2-1-4.8-1-1.7 0-3.3 0.4-4.9 1-1.5 0.6-2.9 1.6-4.1 2.8q-0.9 0.8-1.6 1.9-0.7 1-1.2 2.2-0.5 1.2-0.7 2.4-0.3 1.3-0.2 2.6 0 2 0.7 4 0.6 1.9 1.9 3.6 1.3 1.6 3 2.8 1.7 1.2 3.7 1.7 0.8 0.2 1.6 0.3 0.9 0.1 1.7 0.1 0.8 0 1.7-0.1 0.8-0.1 1.6-0.2zm-5.4-6.3c-2.1-0.7-3.7-2.6-4.2-4.8-0.4-2.3 0.4-4.6 2.1-6.1 1.8-1.5 4.2-1.9 6.3-1.2 2.2 0.8 3.8 2.6 4.2 4.9q0.2 0.9 0.1 1.9-0.1 1-0.5 1.9-0.4 0.9-1 1.6-0.7 0.7-1.5 1.3-0.6 0.3-1.3 0.5-0.7 0.2-1.4 0.3-0.7 0.1-1.4 0-0.7 0-1.4-0.3zm53.9-61.3q-0.2-0.4-0.6-0.8-0.3-0.4-0.6-0.8-0.3-0.4-0.7-0.8-0.3-0.3-0.7-0.7c-2.4-2.3-2.8-2.6-3.1-2.3-0.4 0.3-0.2 0.6 2.3 3.1 2.7 2.7 3.3 3.1 3.4 2.3zm-70.8 90.3c-1.5-0.7-1.7-1.5-1.7-7.7 0-6.2 0.2-7.1 1.6-7.8 1.1-0.6 37.2-0.6 38.3 0 1.5 0.7 1.6 1.6 1.5 8.2v5.9c0 1.1 0.1 1.7-1.7 1.7l-18.6 0.1c-16.5 0-18.7 0-19.4-0.4zm37.3-2.3q0.1-1.4 0.1-2.7 0.1-1.4 0-2.8 0-1.4 0-2.7-0.1-1.4-0.2-2.7c-0.1-0.3-4-0.4-18.3-0.3l-18.1 0.1-0.1 5.1c0 2.9 0 5.5 0.1 5.8l0.1 0.6h18.1c16.3 0 18.2-0.1 18.3-0.4z"/>
			</g>
		</g>
	</g>
</svg>