<svg xmlns="http://www.w3.org/2000/svg" xmlns:xlink="http://www.w3.org/1999/xlink" width="23" height="23" viewBox="0 0 23 23">
  <defs>
    <clipPath id="clip-path">
      <rect id="Rectangle_17084" data-name="Rectangle 17084" width="23" height="23" transform="translate(1434 -1054)" fill="#fff" opacity="0.38"/>
    </clipPath>
  </defs>
  <g id="Mask_Group_105" data-name="Mask Group 105" transform="translate(-1434 1054)" clip-path="url(#clip-path)">
    <g id="car-doors" transform="translate(1435.639 -1051.002)">
      <path id="Path_105664" data-name="Path 105664" d="M66.027,90.436A2.576,2.576,0,0,0,64.581,90H54.4v6.392H68.482l.147-.426-1.608-4.276A2.6,2.6,0,0,0,66.027,90.436Zm-10.714,2.08,1.593-1.593a.4.4,0,0,1,.563.563l-1.593,1.593a.4.4,0,0,1-.563,0A.4.4,0,0,1,55.313,92.516Zm3.754-1.035-3.2,3.2a.387.387,0,0,1-.279.117.4.4,0,0,1-.279-.68l3.191-3.2a.4.4,0,1,1,.563.563Z" transform="translate(-52.203 -86.799)" fill="#747474"/>
      <path id="Path_105665" data-name="Path 105665" d="M30.235,35.143l-1.877-4.992A5.02,5.02,0,0,0,23.675,26.9H12.693A1.6,1.6,0,0,0,11.1,28.5V42.869a1.592,1.592,0,0,0,1.593,1.593h9.243a.4.4,0,0,0,.4-.34,5.144,5.144,0,0,1,5.818-4.4.4.4,0,0,0,.421-.243l1.654-4.043A.352.352,0,0,0,30.235,35.143Zm-8.553,6.929H12.9a.4.4,0,1,1,0-.791h8.776a.4.4,0,0,1,.4.4A.393.393,0,0,1,21.682,42.073Zm5.585-3.191H24.873a.4.4,0,1,1,0-.791h2.394a.4.4,0,1,1,0,.791Zm1.055-2.694-.279.822a.4.4,0,0,1-.375.269H12.9a.4.4,0,0,1-.4-.4V29.7a.393.393,0,0,1,.4-.4H23.478a3.384,3.384,0,0,1,1.887.573,3.343,3.343,0,0,1,1.3,1.633l1.654,4.408A.442.442,0,0,1,28.322,36.188Z" transform="translate(-11.1 -26.9)" fill="#747474"/>
    </g>
  </g>
</svg>
