<svg xmlns="http://www.w3.org/2000/svg" xmlns:xlink="http://www.w3.org/1999/xlink" width="23" height="23" viewBox="0 0 23 23">
  <defs>
    <clipPath id="clip-path">
      <rect id="Rectangle_17085" data-name="Rectangle 17085" width="23" height="23" transform="translate(1694 -1054)" fill="#fff" opacity="0.38"/>
    </clipPath>
  </defs>
  <g id="Mask_Group_100" data-name="Mask Group 100" transform="translate(-1694 1054)" clip-path="url(#clip-path)">
    <g id="Group_48214" data-name="Group 48214" transform="translate(174 -1733.067)">
      <g id="seat" transform="translate(1522.084 680.067)">
        <path id="Path_105666" data-name="Path 105666" d="M90.739,359.323c-1.779,0-3.554-.013-5.333,0a2.048,2.048,0,0,1-1.624-.711,3.312,3.312,0,0,1-.833-2.6A2.081,2.081,0,0,1,85,354.2a17.311,17.311,0,0,1,2.133.122,28.757,28.757,0,0,0,3.651.177,20.744,20.744,0,0,0,3.407-.694,8.855,8.855,0,0,0,1.565-.606,4.064,4.064,0,0,1,2.086-.383,1.688,1.688,0,0,1,1.245.728,3.682,3.682,0,0,1-3.1,5.783C94.234,359.328,92.488,359.323,90.739,359.323Z" transform="translate(-80.727 -338.129)" fill="#747474"/>
        <path id="Path_105667" data-name="Path 105667" d="M37.806,19.083c-.471-.059-.942-.13-1.409-.16a18.788,18.788,0,0,0-2.175-.076,2.253,2.253,0,0,0-2.04,1.291c-.156-.723-.32-1.354-.425-1.994-.353-2.288-.711-4.576-1.018-6.869A12.621,12.621,0,0,1,30.727,7.2a7.313,7.313,0,0,1,.522-1.624,2.762,2.762,0,0,1,2.133-1.56.844.844,0,0,1,.82.374,2.886,2.886,0,0,1,.618,1.863A7.345,7.345,0,0,1,34,9.615a.38.38,0,0,0,.08.492,13.622,13.622,0,0,1,3.407,5.72,10.222,10.222,0,0,1,.374,2.94,1.428,1.428,0,0,1-.017.231A.3.3,0,0,1,37.806,19.083Z" transform="translate(-30.566 -4.004)" fill="#747474"/>
      </g>
    </g>
  </g>
</svg>
