<svg xmlns="http://www.w3.org/2000/svg" xmlns:xlink="http://www.w3.org/1999/xlink" width="23" height="23" viewBox="0 0 23 23">
  <defs>
    <clipPath id="clip-path">
      <rect id="Rectangle_17088" data-name="Rectangle 17088" width="23" height="23" transform="translate(1188 -1006)" fill="#fff" opacity="0.38"/>
    </clipPath>
  </defs>
  <g id="Mask_Group_103" data-name="Mask Group 103" transform="translate(-1188 1006)" clip-path="url(#clip-path)">
    <g id="rZnQlN_00000074423054326063926710000013011251621558721944_" transform="translate(1189.963 -1003)">
      <g id="Group_39003" data-name="Group 39003">
        <path id="Path_105661" data-name="Path 105661" d="M10.475,43.641V42.068A1.06,1.06,0,0,1,11.632,40.9h5.879a1.061,1.061,0,0,1,1.184,1.195c0,.481,0,.966,0,1.447a.41.41,0,0,0,.027.1h.286c1.119,0,2.233,0,3.352,0a1.708,1.708,0,0,1,1.752,1.321,1.175,1.175,0,0,1,.038.305q.006,2.016,0,4.035c0,.046-.008.092-.011.153H5V45.443a1.72,1.72,0,0,1,1.8-1.806c1.107-.008,2.214,0,3.325,0C10.23,43.641,10.334,43.641,10.475,43.641Zm1.4-.027h5.437V42.293H11.88Z" transform="translate(-5 -40.9)" fill="#747474"/>
        <path id="Path_105662" data-name="Path 105662" d="M24.25,292.7v5.1a1.67,1.67,0,0,1-1.7,1.714q-7.9.006-15.794,0A1.679,1.679,0,0,1,5.1,297.877c-.015-1.684,0-3.371,0-5.055a.881.881,0,0,1,.015-.122H12.3c0,.492.023.977,0,1.455a.782.782,0,0,0,.909.932c1.031-.031,2.065-.008,3.1-.008a.7.7,0,0,0,.783-.767c.008-.527,0-1.057,0-1.607C19.47,292.7,21.841,292.7,24.25,292.7Z" transform="translate(-5.088 -283.087)" fill="#747474"/>
        <path id="Path_105663" data-name="Path 105663" d="M220.6,292.5h2.7v1.332h-2.7Z" transform="translate(-212.369 -282.894)" fill="#747474"/>
      </g>
    </g>
  </g>
</svg>
