<svg xmlns="http://www.w3.org/2000/svg" xmlns:xlink="http://www.w3.org/1999/xlink" width="23" height="23" viewBox="0 0 23 23">
  <defs>
    <clipPath id="clip-path">
      <rect id="Rectangle_17082" data-name="Rectangle 17082" width="23" height="23" transform="translate(1434 -1007)" fill="#fff" opacity="0.38"/>
    </clipPath>
  </defs>
  <g id="Mask_Group_106" data-name="Mask Group 106" transform="translate(-1434 1007)" clip-path="url(#clip-path)">
    <path id="gcc-specs" d="M57.881,26.1,48.3,31.595V42.579l9.581,5.489,9.581-5.489V31.595ZM53.46,33.5h0a2.012,2.012,0,0,1,.865.2,1.507,1.507,0,0,1,.562.486,2.125,2.125,0,0,1,.309.72,4.011,4.011,0,0,1,.095.891v.328H54.1v-.385c0-.145-.006-.284-.019-.429A1.639,1.639,0,0,0,54,34.9a.763.763,0,0,0-.2-.3.567.567,0,0,0-.354-.145V33.5Zm-.2.966a.646.646,0,0,0-.328.133.8.8,0,0,0-.2.259,1.148,1.148,0,0,0-.1.335,2.379,2.379,0,0,0-.032.36v3.076a2.221,2.221,0,0,0,.025.354,1.324,1.324,0,0,0,.095.328.722.722,0,0,0,.2.259.67.67,0,0,0,.328.133v.954h.013v.006h-.013v-.006h-.088a1.809,1.809,0,0,1-.613-.095,1.379,1.379,0,0,1-.461-.265,1.618,1.618,0,0,1-.328-.392,2.014,2.014,0,0,1-.215-.474,3.354,3.354,0,0,1-.12-.512,3.533,3.533,0,0,1-.038-.505V35.884a4.516,4.516,0,0,1,.088-.9,2.136,2.136,0,0,1,.309-.745,1.573,1.573,0,0,1,.581-.512,2.007,2.007,0,0,1,.9-.208S53.258,34.469,53.258,34.469Zm2.078,6.063h-.815l-.177-.524a1.138,1.138,0,0,1-.379.4,1.475,1.475,0,0,1-.524.221V39.7a.587.587,0,0,0,.341-.126.824.824,0,0,0,.2-.265,1.048,1.048,0,0,0,.095-.347,2.354,2.354,0,0,0,.025-.36v-.688h-.5v-.884H55.33v3.5Zm2.609-6.07a.575.575,0,0,0-.322.133.68.68,0,0,0-.189.265,1.477,1.477,0,0,0-.095.347,2.464,2.464,0,0,0-.025.373v3.013a2.52,2.52,0,0,0,.025.373,1.225,1.225,0,0,0,.095.347.68.68,0,0,0,.189.265.624.624,0,0,0,.322.133v.947a2.013,2.013,0,0,1-.891-.208,1.682,1.682,0,0,1-.575-.518,1.985,1.985,0,0,1-.3-.739,4.076,4.076,0,0,1-.088-.9V35.884a4.628,4.628,0,0,1,.088-.91,2.255,2.255,0,0,1,.3-.745,1.594,1.594,0,0,1,.575-.505,2.057,2.057,0,0,1,.891-.208Zm.183-.954.013-.006a1.932,1.932,0,0,1,.834.2,1.545,1.545,0,0,1,.549.474,2.051,2.051,0,0,1,.3.707,3.867,3.867,0,0,1,.088.878v.531h-1.2V35.7q0-.208-.019-.417a1.389,1.389,0,0,0-.082-.379.646.646,0,0,0-.177-.291.528.528,0,0,0-.3-.145l-.006-.96Zm1.787,4.825a5.271,5.271,0,0,1-.088.859,2.217,2.217,0,0,1-.284.733,1.584,1.584,0,0,1-.543.518,1.813,1.813,0,0,1-.859.215V39.7h-.006a.509.509,0,0,0,.3-.145.834.834,0,0,0,.177-.291,1.809,1.809,0,0,0,.082-.385c.013-.145.019-.278.019-.423V37.8h1.2Zm2.5-3.872a.575.575,0,0,0-.322.133.68.68,0,0,0-.189.265,1.477,1.477,0,0,0-.095.347,2.463,2.463,0,0,0-.025.373v3.013a2.52,2.52,0,0,0,.025.373,1.225,1.225,0,0,0,.095.347.68.68,0,0,0,.189.265.624.624,0,0,0,.322.133v.947a2.013,2.013,0,0,1-.891-.208,1.682,1.682,0,0,1-.575-.518,1.985,1.985,0,0,1-.3-.739,4.076,4.076,0,0,1-.088-.9V35.884a4.629,4.629,0,0,1,.088-.91,2.255,2.255,0,0,1,.3-.745,1.6,1.6,0,0,1,.575-.505,2.057,2.057,0,0,1,.891-.208Zm.183-.954.013-.006a1.932,1.932,0,0,1,.834.2,1.545,1.545,0,0,1,.549.474,2,2,0,0,1,.3.707,3.866,3.866,0,0,1,.088.878v.531h-1.2V35.7q0-.208-.019-.417a1.389,1.389,0,0,0-.082-.379.645.645,0,0,0-.177-.291.528.528,0,0,0-.3-.145v-.96Zm1.787,4.825a5.27,5.27,0,0,1-.088.859,2.217,2.217,0,0,1-.284.733,1.584,1.584,0,0,1-.543.518,1.813,1.813,0,0,1-.859.215V39.7h-.006a.509.509,0,0,0,.3-.145.834.834,0,0,0,.177-.291,1.809,1.809,0,0,0,.082-.385c.013-.145.019-.278.019-.423V37.8h1.2v.531Z" transform="translate(1387.338 -1032.1)" fill="#747474"/>
  </g>
</svg>
