<svg xmlns="http://www.w3.org/2000/svg" xmlns:xlink="http://www.w3.org/1999/xlink" width="23" height="23" viewBox="0 0 23 23">
  <defs>
    <clipPath id="clip-path">
      <rect id="Rectangle_17089" data-name="Rectangle 17089" width="23" height="23" transform="translate(1188 -963)" fill="#fff" opacity="0.38"/>
    </clipPath>
  </defs>
  <g id="Mask_Group_102" data-name="Mask Group 102" transform="translate(-1188 963)" clip-path="url(#clip-path)">
    <path id="fuel-petrol" d="M86.351,85.444v.19c0,1.689,0,3.384-.005,5.073,0,.127.026.185.164.2a1.15,1.15,0,0,1,.94,1.573,1.079,1.079,0,0,1-.992.75c-.174.016-.348.032-.523.032q-5.02,0-10.04,0a1.738,1.738,0,0,1-1-.211,1.155,1.155,0,0,1-.486-1.246,1.13,1.13,0,0,1,.876-.882c.264-.058.264-.058.264-.333q0-6.928.005-13.857a2.607,2.607,0,0,1,.581-1.784,2.4,2.4,0,0,1,1.689-.86c.243-.021.491-.032.734-.032,1.705,0,3.41-.005,5.12,0a2.649,2.649,0,0,1,1.842.628,2.36,2.36,0,0,1,.8,1.673c.021.311.032.618.032.929v6.366c.227.026.438.053.649.069a3.254,3.254,0,0,1,2.893,2.9c.042.459.037.919.058,1.378a1.051,1.051,0,0,0,.354.855.882.882,0,0,0,1.42-.554,2.986,2.986,0,0,0,.032-.433q0-2.621.005-5.237a.31.31,0,0,0-.227-.343,2.581,2.581,0,0,1-1.219-1,2.641,2.641,0,0,1-.359-1.478c-.011-.66-.005-1.32,0-1.98a.362.362,0,0,0-.111-.28c-.306-.306-.612-.618-.913-.934a2.116,2.116,0,0,1-.285-.364.785.785,0,0,1,.143-.977.83.83,0,0,1,1-.106,1.645,1.645,0,0,1,.28.227c.882.876,1.763,1.763,2.645,2.639a2.389,2.389,0,0,1,.755,1.33,5.163,5.163,0,0,1,.074.808q.008,3.8,0,7.6a3.306,3.306,0,0,1-.443,1.853,2.662,2.662,0,0,1-2.724,1.182,2.586,2.586,0,0,1-2.133-2.1,12.03,12.03,0,0,1-.1-1.241c-.016-.222-.005-.438-.026-.66a1.514,1.514,0,0,0-1.146-1.283A3.132,3.132,0,0,0,86.351,85.444ZM80.94,81.263h2.249c.538,0,.755-.227.76-.76V78.809c0-.549.005-1.1-.005-1.652a.607.607,0,0,0-.618-.7,1.6,1.6,0,0,0-.227-.011H80.951c-.75,0-1.5-.005-2.249,0-.528.005-.76.206-.765.707q-.016,1.71,0,3.421a.594.594,0,0,0,.6.67,1.8,1.8,0,0,0,.238.016Z" transform="translate(1115.58 -1034.928)" fill="#747474"/>
  </g>
</svg>
