<svg version="1.2" xmlns="http://www.w3.org/2000/svg" viewBox="0 0 150 150" width="23" height="23">
	<title>i9-svg</title>
	<defs>
		<clipPath clipPathUnits="userSpaceOnUse" id="cp1">
			<path d="m0 0h150v150h-150z"/>
		</clipPath>
	</defs>
	<style>
		.s0 { fill: #000000 } 
	</style>
	<g id="Clip-Path: Mask_Group_141" clip-path="url(#cp1)">
		<g id="Mask_Group_141">
			<g id="digital-display">
				<path id="Path_106719" class="s0" d="m75.6 79.2c-1.3 0.7-2.7 1.3-4.1 2q-1.1 0.5-1.9 1.4-0.9 0.9-1.4 2-0.5 1.1-0.7 2.3-0.1 1.3 0.2 2.4 0.2 1 0.7 1.9 0.5 0.8 1.2 1.5 0.7 0.7 1.5 1.2 0.9 0.5 1.8 0.7 1.2 0.3 2.4 0.1 1.3-0.1 2.4-0.6 1.1-0.5 2-1.4 0.8-0.8 1.4-1.9c0.6-1.4 1.3-2.7 1.9-4.1 2.1-4.3 4.2-8.7 6.7-12.9l1.8-3.1-3.1 1.8q-1.6 1-3.2 1.8-1.5 0.9-3.1 1.7-1.6 0.9-3.2 1.7-1.7 0.8-3.3 1.5z"/>
				<path id="Path_106720" class="s0" d="m55.5 118.7h38.3v-9.6h-38.3z"/>
				<path id="Path_106721" fill-rule="evenodd" class="s0" d="m139.6 118q-0.9 1.9-1.9 3.7-1 1.9-2.1 3.6-1.1 1.8-2.3 3.5-1.2 1.7-2.5 3.4-0.2 0.2-0.4 0.3-0.2 0.2-0.4 0.3-0.3 0.1-0.5 0.2-0.3 0.1-0.6 0.1h-108.6q-0.3 0-0.5-0.1-0.3 0-0.5-0.2-0.3-0.1-0.5-0.3-0.2-0.1-0.4-0.3-1.4-1.8-2.6-3.6-1.3-1.8-2.4-3.7-1.2-1.8-2.2-3.8-1-1.9-2-3.9l11-4.8c0.6-0.3 1-0.7 1.2-1.3 0.2-0.6 0.2-1.2-0.1-1.8-0.2-0.5-0.7-1-1.2-1.2-0.6-0.3-1.2-0.3-1.8-0.1l-10.9 4.7q-1-2.7-1.7-5.5-0.8-2.8-1.4-5.6-0.5-2.9-0.9-5.7-0.3-2.9-0.4-5.8h21.4c0.7 0 1.3-0.3 1.7-0.7 0.5-0.5 0.7-1.1 0.7-1.7 0-0.6-0.2-1.2-0.7-1.7-0.4-0.4-1-0.7-1.7-0.7h-21.4q0.1-3 0.4-6 0.4-3 1-5.9 0.6-3 1.4-5.9 0.9-2.8 2-5.6l10.8 4.8q0.1 0.1 0.2 0.1 0.1 0.1 0.2 0.1 0.1 0.1 0.3 0.1 0.1 0 0.2 0 0.4 0 0.7-0.1 0.3-0.1 0.6-0.3 0.3-0.2 0.5-0.5 0.2-0.2 0.4-0.5 0.2-0.5 0.2-0.9 0-0.5-0.2-1-0.1-0.4-0.4-0.8-0.4-0.3-0.8-0.5l-10.9-4.9q1.2-2.6 2.6-5.1 1.4-2.4 3-4.8 1.6-2.3 3.3-4.5 1.8-2.3 3.7-4.3l8.4 8.4q0.2 0.1 0.4 0.3 0.2 0.1 0.4 0.2 0.3 0.1 0.5 0.1 0.2 0.1 0.5 0.1 0.2 0 0.4-0.1 0.3 0 0.5-0.1 0.2-0.1 0.4-0.2 0.2-0.2 0.4-0.3 0.3-0.4 0.5-0.8 0.2-0.5 0.2-0.9 0-0.5-0.2-1-0.2-0.4-0.5-0.7l-8.4-8.4q2.2-2.1 4.5-4 2.4-1.8 4.9-3.5 2.5-1.7 5.2-3.1 2.6-1.5 5.4-2.7l4.2 11.1q0.1 0.4 0.4 0.6 0.2 0.3 0.5 0.5 0.3 0.2 0.6 0.3 0.4 0.1 0.8 0.1 0.1 0 0.2 0 0.1 0 0.2 0 0.1 0 0.2-0.1 0.1 0 0.2 0 0.4-0.2 0.8-0.5 0.3-0.4 0.5-0.8 0.2-0.4 0.2-0.9 0.1-0.5-0.1-0.9l-4.2-11.2q2.6-1 5.4-1.7 2.7-0.8 5.5-1.3 2.8-0.5 5.6-0.9 2.8-0.3 5.6-0.4v21.4c0 0.7 0.3 1.3 0.7 1.7 0.5 0.5 1.1 0.7 1.7 0.7 0.6 0 1.2-0.2 1.7-0.7 0.4-0.4 0.7-1 0.7-1.7v-21.4q3 0.1 6 0.4 3 0.4 5.9 1 3 0.6 5.9 1.4 2.9 0.9 5.7 2l-4.9 10.8q-0.2 0.4-0.2 0.9-0.1 0.4 0.1 0.9 0.2 0.4 0.5 0.8 0.3 0.3 0.8 0.5 0.1 0.1 0.2 0.1 0.1 0.1 0.2 0.1 0.1 0.1 0.3 0.1 0.1 0 0.2 0 0.4 0 0.7-0.1 0.3-0.1 0.6-0.3 0.3-0.2 0.5-0.5 0.2-0.2 0.4-0.5l4.9-11q2.5 1.2 4.9 2.6 2.4 1.3 4.7 2.9 2.3 1.5 4.5 3.3 2.2 1.7 4.3 3.5l-8.1 8.8q-0.4 0.4-0.6 0.8-0.1 0.5-0.1 1 0 0.4 0.2 0.9 0.2 0.4 0.6 0.7 0.1 0.2 0.3 0.3 0.2 0.1 0.4 0.2 0.3 0.1 0.5 0.1 0.2 0.1 0.4 0.1 0.3 0 0.5-0.1 0.3 0 0.5-0.1 0.2-0.1 0.4-0.3 0.2-0.1 0.4-0.3l8-8.7q2 2.2 3.9 4.5 1.8 2.3 3.5 4.7 1.6 2.4 3.1 5 1.4 2.6 2.6 5.2l-10.8 5.2q-0.4 0.2-0.7 0.6-0.4 0.3-0.5 0.8-0.2 0.4-0.2 0.9 0.1 0.5 0.3 0.9 0.1 0.3 0.3 0.6 0.2 0.2 0.5 0.4 0.3 0.2 0.6 0.3 0.4 0.1 0.7 0.1 0.1 0 0.3-0.1 0.1 0 0.3 0 0.1 0 0.2-0.1 0.1 0 0.3-0.1l10.6-5.1q1.1 2.8 1.9 5.7 0.8 2.8 1.4 5.7 0.5 2.9 0.9 5.8 0.3 3 0.4 5.9h-21.5c-0.6 0-1.2 0.3-1.6 0.7-0.5 0.5-0.7 1.1-0.7 1.7 0 0.6 0.2 1.2 0.7 1.7 0.4 0.4 1 0.7 1.6 0.7h21.4q-0.1 3-0.4 6-0.4 3-1 6-0.6 2.9-1.4 5.8-0.9 2.9-1.9 5.7l-10.8-4.9c-0.6-0.3-1.3-0.3-1.9-0.1-0.6 0.2-1.1 0.7-1.3 1.3-0.3 0.6-0.3 1.2-0.1 1.8 0.2 0.6 0.7 1.1 1.3 1.4zm-41-11.2q0-0.5-0.2-0.9-0.2-0.5-0.5-0.8-0.3-0.3-0.8-0.5-0.4-0.2-0.9-0.2h-43q-0.5 0-0.9 0.2-0.4 0.2-0.8 0.5-0.3 0.3-0.5 0.8-0.2 0.4-0.2 0.9v14.3q0 0.5 0.2 0.9 0.2 0.5 0.5 0.8 0.4 0.3 0.8 0.5 0.4 0.2 0.9 0.2h43q0.4 0 0.9-0.2 0.4-0.2 0.7-0.5 0.4-0.3 0.6-0.8 0.1-0.4 0.1-0.9c0.1 0 0.1-14.3 0.1-14.3zm2.3-42.6q0.1-0.3 0.1-0.7-0.1-0.4-0.2-0.8-0.2-0.3-0.5-0.6-0.3-0.3-0.6-0.5-0.4-0.1-0.8-0.2-0.4 0-0.8 0-0.4 0.1-0.7 0.3l-11.3 6.8c-4 2.4-8.3 4.5-12.5 6.5-1.4 0.6-2.7 1.3-4.1 1.9q-1.9 0.9-3.3 2.4-1.4 1.4-2.3 3.3-0.9 1.8-1.1 3.8-0.2 2 0.3 4 0.3 1.6 1.1 3.1 0.9 1.4 2 2.6 1.2 1.2 2.6 2 1.5 0.8 3.1 1.2 0.3 0 0.7 0.1 0.3 0.1 0.7 0.1 0.3 0.1 0.7 0.1 0.3 0 0.7 0 1.6 0 3.3-0.5 1.6-0.4 3-1.3 1.4-0.9 2.6-2.1 1.1-1.3 1.8-2.8c0.7-1.4 1.4-2.7 2-4.1 2-4.2 4-8.5 6.4-12.5l6.8-11.3q0.2-0.4 0.3-0.8z"/>
			</g>
		</g>
	</g>
</svg>