<svg xmlns="http://www.w3.org/2000/svg" xmlns:xlink="http://www.w3.org/1999/xlink" width="226.878" height="186.505" viewBox="0 0 226.878 186.505">
  <defs>
    <linearGradient id="linear-gradient" y1="2.795" x2="1" y2="2.795" gradientUnits="objectBoundingBox">
      <stop offset="0" stop-color="#2d3330"/>
      <stop offset="0.1" stop-color="#363c3a"/>
      <stop offset="0.27" stop-color="#505657"/>
      <stop offset="0.48" stop-color="#798084"/>
      <stop offset="0.52" stop-color="#80878c"/>
      <stop offset="0.56" stop-color="#64696d"/>
      <stop offset="0.61" stop-color="#45494c"/>
      <stop offset="0.67" stop-color="#2c2e30"/>
      <stop offset="0.73" stop-color="#18191a"/>
      <stop offset="0.8" stop-color="#0a0b0b"/>
      <stop offset="0.88" stop-color="#020202"/>
      <stop offset="1"/>
    </linearGradient>
  </defs>
  <g id="Group_48221" data-name="Group 48221" transform="translate(-94 -349)">
    <g id="Layer_1-2" transform="translate(94 349.01)">
      <path id="Path_105894" data-name="Path 105894" d="M124.727,167.636a3.694,3.694,0,0,0-1.582.356c-7.237,3.757-14.355,7.672-20.762,12.734-2.571,2.017-5.181,4.034-7.791,6.051-.356.277-.672.554-1.107.949a3.732,3.732,0,0,1,.356.119L80,186.421c.277-.4.554-.751.791-1.107,1.265-1.819,2.531-3.638,3.836-5.5a49.286,49.286,0,0,1,3.915-4.785,69.4,69.4,0,0,1,10.4-9.175c.316-.237.593-.435.989-.751l3.045-1.305c-.04.04-.04.079-.079.119.514.158.91.237,1.265.356a43.307,43.307,0,0,0,5.972.791,4.408,4.408,0,0,0,2.136-.316" transform="translate(-48.363 -99.029)" fill="#fbc100"/>
      <g id="Group_48212" data-name="Group 48212" transform="translate(75.771 180.445)">
        <path id="Path_105895" data-name="Path 105895" d="M195.436,462.232c-.079,0-.119-.04-.119-.079l-.633-2.175h-.949c-.04,0-.079,0-.079.04l-.554,2.1c0,.04-.04.079-.119.079h-1.305c-.079,0-.079-.04-.079-.079l1.463-5.734c0-.04.04-.079.119-.079h2.768a3.462,3.462,0,0,1,.949.119,1.164,1.164,0,0,1,.633.4,1.244,1.244,0,0,1,.316.593,2.39,2.39,0,0,1,0,.751,1.725,1.725,0,0,1-.593.989,2.649,2.649,0,0,1-1.068.633l.791,2.333v.079c0,.04-.04.04-.079.04Zm-.2-3.322a1.636,1.636,0,0,0,.751-.2.963.963,0,0,0,.4-.554.541.541,0,0,0-.119-.514.929.929,0,0,0-.633-.2h-1.226c-.04,0-.079,0-.079.04l-.356,1.384c0,.04,0,.04.04.04Z" transform="translate(-191.6 -456.3)" fill="#333"/>
        <path id="Path_105896" data-name="Path 105896" d="M214.363,456.479c0-.04.04-.079.119-.079h4.469c.079,0,.079.04.079.079l-.237.949c0,.04-.04.079-.119.079h-3.006c-.04,0-.079,0-.079.04l-.316,1.186c0,.04,0,.04.04.04H217.8c.079,0,.079.04.079.079l-.2.949c0,.04-.04.079-.119.079h-2.491c-.04,0-.079,0-.079.04l-.316,1.226c0,.04,0,.04.04.04h3.006c.079,0,.079.04.079.079l-.237.949c0,.04-.04.079-.119.079h-4.469c-.079,0-.079-.04-.079-.079Z" transform="translate(-204.477 -456.36)" fill="#333"/>
        <path id="Path_105897" data-name="Path 105897" d="M234.163,456.479c0-.04.04-.079.119-.079h1.226a.206.206,0,0,1,.158.079l1.5,3.717h.04l.949-3.717c0-.04.04-.079.119-.079h1.147c.079,0,.079.04.079.079l-1.463,5.734c0,.04-.04.079-.119.079h-1.226a.205.205,0,0,1-.158-.079l-1.5-3.717h-.04l-.949,3.717c0,.04-.04.079-.119.079h-1.147c-.079,0-.079-.04-.079-.079Z" transform="translate(-216.446 -456.36)" fill="#333"/>
      </g>
      <g id="Group_48213" data-name="Group 48213" transform="translate(101.516 180.524)">
        <path id="Path_105898" data-name="Path 105898" d="M257.451,462.353c-.079,0-.079-.04-.079-.079l1.186-4.627c0-.04,0-.04-.04-.04h-1.74c-.079,0-.079-.04-.079-.079l.237-.949c0-.04.04-.079.119-.079H262.2c.079,0,.079.04.079.079l-.237.949c0,.04-.04.079-.119.079h-1.74c-.04,0-.079,0-.079.04l-1.186,4.627c0,.04-.04.079-.119.079Z" transform="translate(-256.7 -456.5)" fill="#333"/>
      </g>
      <g id="Group_48214" data-name="Group 48214" transform="translate(112.325 180.326)">
        <path id="Path_105899" data-name="Path 105899" d="M287.9,456.479a.206.206,0,0,1,.158-.079h1.305c.079,0,.119.04.119.079l.87,5.734a.085.085,0,0,1-.079.079h-1.345c-.079,0-.119-.04-.119-.079l-.119-1.028h-2.452l-.633,1.028a.205.205,0,0,1-.158.079H284.1c-.079,0-.079-.04-.04-.079Zm.633,3.638-.277-2.056h-.04l-1.305,2.056Z" transform="translate(-284.034 -456.242)" fill="#333"/>
        <path id="Path_105900" data-name="Path 105900" d="M319.24,460.706c0-.079-.04-.2-.04-.277a.983.983,0,0,1,.04-.316,2.041,2.041,0,0,1,.079-.435q.059-.237.119-.593a6.115,6.115,0,0,1,.158-.593c.04-.158.079-.316.119-.435a2.73,2.73,0,0,1,.119-.316c.04-.079.119-.2.158-.277a3.171,3.171,0,0,1,1.186-1.107,3.67,3.67,0,0,1,1.661-.356,2.53,2.53,0,0,1,1.424.356,1.465,1.465,0,0,1,.672.989c.04.04,0,.079-.079.119l-1.226.435c-.079.04-.119,0-.119-.04a.949.949,0,0,0-.277-.475,1.006,1.006,0,0,0-.633-.2,1.354,1.354,0,0,0-.712.158,1.936,1.936,0,0,0-.514.475.3.3,0,0,0-.079.158.424.424,0,0,0-.079.237,1.839,1.839,0,0,0-.119.356c-.04.158-.079.316-.119.514a5.165,5.165,0,0,1-.119.514c-.04.158-.04.237-.079.356,0,.079-.04.158-.04.237v.158a.9.9,0,0,0,.237.475,1,1,0,0,0,.633.158,1.514,1.514,0,0,0,.751-.2,1.481,1.481,0,0,0,.514-.475c.04-.04.119-.079.158-.04l.989.435c.079,0,.079.04.04.119a3.068,3.068,0,0,1-1.147.989,3.448,3.448,0,0,1-1.582.356,2.582,2.582,0,0,1-1.463-.356A1.35,1.35,0,0,1,319.24,460.706Z" transform="translate(-305.293 -456)" fill="#333"/>
        <path id="Path_105901" data-name="Path 105901" d="M341,456.479a.206.206,0,0,1,.158-.079h1.305c.079,0,.119.04.119.079l.87,5.734a.085.085,0,0,1-.079.079h-1.345c-.079,0-.119-.04-.119-.079l-.119-1.028h-2.452l-.633,1.028a.205.205,0,0,1-.158.079H337.2c-.079,0-.079-.04-.04-.079Zm.633,3.638-.277-2.056h-.04l-1.305,2.056Z" transform="translate(-316.135 -456.242)" fill="#333"/>
        <path id="Path_105902" data-name="Path 105902" d="M364.036,462.232c-.079,0-.119-.04-.119-.079l-.633-2.175h-.949c-.04,0-.079,0-.079.04l-.554,2.1c0,.04-.04.079-.119.079h-1.305c-.079,0-.079-.04-.079-.079l1.463-5.734c0-.04.04-.079.119-.079h2.768a3.462,3.462,0,0,1,.949.119,1.164,1.164,0,0,1,.633.4,1.245,1.245,0,0,1,.316.593,2.39,2.39,0,0,1,0,.751,1.725,1.725,0,0,1-.593.989,2.649,2.649,0,0,1-1.068.633l.791,2.333v.079c0,.04-.04.04-.079.04Zm-.2-3.322a1.636,1.636,0,0,0,.751-.2.962.962,0,0,0,.4-.554.541.541,0,0,0-.119-.514.929.929,0,0,0-.633-.2h-1.226c-.04,0-.079,0-.079.04l-.356,1.384c0,.04,0,.04.04.04Z" transform="translate(-330.079 -456.181)" fill="#333"/>
      </g>
      <g id="Group_48215" data-name="Group 48215" transform="translate(7.237 115.272)">
        <path id="Path_105903" data-name="Path 105903" d="M26.091,293.815l-2.175-1.5a.389.389,0,0,1,.2-.712H55.355c-1.147,3.282-6.6,19.417-8.028,23.807a1.455,1.455,0,0,1-1.5,1.068H38.508l2.215-6.011H28.74l-1.7,4.943a1.455,1.455,0,0,1-1.5,1.068H18.3C19.724,312.125,24.548,298.639,26.091,293.815Zm4.39,11.627H42.463l2.373-6.96c.2-.554-.04-.87-.751-.87H31.311a.4.4,0,0,0-.237.712l1.424,1.266Z" transform="translate(-18.3 -291.56)" fill="#333"/>
        <path id="Path_105904" data-name="Path 105904" d="M115.47,293.775l-2.175-1.463a.391.391,0,0,1,.237-.712h11.033c-3.006,8.74-4.666,13.327-5.695,16.412l-.316.277c-.237.237-.751.633-1.621,1.463a.414.414,0,0,0,.277.712h15.225c-.4,1.068-1.266,3.52-1.74,4.943a1.455,1.455,0,0,1-1.5,1.068H107.6C112.029,303.622,113.651,299.114,115.47,293.775Z" transform="translate(-72.285 -291.56)" fill="#333"/>
        <path id="Path_105905" data-name="Path 105905" d="M206.537,314.318l4.864-14h8.3c-.4,1.068-1.226,3.559-1.977,5.813l-1.5,4.271h9.966a.593.593,0,0,0,.672-.475l4.113-11.943q.237-.475-.356-.475h-18.31c.237-.672.435-1.226.672-1.74.316-.949.633-1.859.751-2.1l-2.294-1.424a.4.4,0,0,1,.2-.751h29.9l-6.6,19.18a8.553,8.553,0,0,1-8.107,5.695H208A1.5,1.5,0,0,1,206.537,314.318Z" transform="translate(-132.031 -291.5)" fill="#333"/>
        <path id="Path_105906" data-name="Path 105906" d="M293.3,307.181c1.7-4.785,3.6-10.322,4.666-13.406a18.212,18.212,0,0,0-2.254-1.424.416.416,0,0,1,.2-.751h8.9a1.544,1.544,0,0,1,1.5,2.1l-2.531,7.2h12.339l3.243-9.293h8.423l-8.3,23.807a1.455,1.455,0,0,1-1.5,1.068h-7.2l3.282-9.531H299.433a.387.387,0,0,0-.277.672l1.819,1.621c-1.977,4.983-1.661,7.2-3.6,7.2H290.1C290.1,316.119,291.563,312.046,293.3,307.181Z" transform="translate(-182.613 -291.56)" fill="#333"/>
        <path id="Path_105907" data-name="Path 105907" d="M387.309,293.775a17.693,17.693,0,0,0-2.215-1.424.4.4,0,0,1,.158-.751h11.073L388.1,315.407a1.455,1.455,0,0,1-1.5,1.068h-7.2C380.863,312.243,385.451,299.43,387.309,293.775Z" transform="translate(-236.598 -291.56)" fill="#333"/>
        <path id="Path_105908" data-name="Path 105908" d="M425.77,293.775l-2.175-1.463a.391.391,0,0,1,.237-.712h11.033c-3.006,8.74-4.666,13.327-5.695,16.412l-.316.277c-.237.237-.751.633-1.621,1.463a.414.414,0,0,0,.277.712h15.225c-.4,1.068-1.265,3.52-1.74,4.943a1.455,1.455,0,0,1-1.5,1.068H417.9C422.329,303.622,423.951,299.114,425.77,293.775Z" transform="translate(-259.872 -291.56)" fill="#333"/>
        <path id="Path_105909" data-name="Path 105909" d="M488.195,311.966l6.209-18.191a24.441,24.441,0,0,0-2.056-1.463.389.389,0,0,1,.2-.712h28.2l-1.7,4.943a1.566,1.566,0,0,1-1.5,1.068H498.951a.4.4,0,0,0-.237.712l1.938,1.74-.514,1.463h12.141l-1.384,3.994a1.566,1.566,0,0,1-1.5,1.068H496.7a.387.387,0,0,0-.277.672l1.305,1.226-.712,2.017h17.242l-1.74,4.943a1.455,1.455,0,0,1-1.5,1.068H491.358A3.418,3.418,0,0,1,488.195,311.966Z" transform="translate(-302.247 -291.56)" fill="#333"/>
      </g>
      <g id="Group_48216" data-name="Group 48216" transform="translate(5.668 145.486)">
        <path id="Path_105910" data-name="Path 105910" d="M29.624,401.752a2.3,2.3,0,0,0,.633-1.028l1.9-5.892a.3.3,0,0,1,.316-.237h3.045c.158,0,.237.079.158.237l-2.294,7.079a5.272,5.272,0,0,1-1.424,2.373,3.791,3.791,0,0,1-2.531.751H16.494c-1.028,0-1.7-.237-1.977-.751a3.278,3.278,0,0,1,.079-2.373l1.78-5.5a.3.3,0,0,1,.316-.237h3.045c.158,0,.237.079.158.237l-1.384,4.311c-.158.514-.2.83-.04,1.028.119.2.4.277.83.277H28.6A1.591,1.591,0,0,0,29.624,401.752Zm-6.13-8.226c-.158,0-.237-.079-.158-.237l.791-2.452a.3.3,0,0,1,.316-.237h2.491c.158,0,.237.079.158.237l-.791,2.452a.3.3,0,0,1-.316.237Zm3.836,0c-.158,0-.237-.079-.158-.237l.791-2.452a.3.3,0,0,1,.316-.237H30.81c.158,0,.237.079.158.237l-.791,2.452a.3.3,0,0,1-.316.237Z" transform="translate(-14.332 -381.623)" fill="#333"/>
        <path id="Path_105911" data-name="Path 105911" d="M70.633,401.049a.3.3,0,0,1-.316.237H67.311c-.158,0-.237-.079-.158-.237l5.26-16.412a.3.3,0,0,1,.316-.237h3.045c.158,0,.237.079.158.237Z" transform="translate(-46.245 -377.875)" fill="#333"/>
        <path id="Path_105912" data-name="Path 105912" d="M75.811,416.342c-.158,0-.237-.079-.158-.237l.83-2.531a.3.3,0,0,1,.316-.237h.554a2.35,2.35,0,0,0,1.621-.514,3.59,3.59,0,0,0,.949-1.582l3.282-10.2a.3.3,0,0,1,.316-.237h3.045c.158,0,.237.079.158.237L83.4,411.359a7.616,7.616,0,0,1-2.412,3.8,6.364,6.364,0,0,1-4.034,1.226H75.811Z" transform="translate(-51.384 -387.789)" fill="#333"/>
        <path id="Path_105913" data-name="Path 105913" d="M109.286,384.637a.3.3,0,0,1,.316-.237h3.006c.158,0,.237.079.158.237l-3.994,12.339a1.314,1.314,0,0,0-.04,1.028c.119.2.4.277.83.277h.672a.6.6,0,0,1,.633.356,2,2,0,0,1-.158,1.186,2.679,2.679,0,0,1-.633,1.186,1.241,1.241,0,0,1-.83.277h-2.452c-1.028,0-1.7-.237-1.977-.751a3.278,3.278,0,0,1,.079-2.373l4.39-13.525Z" transform="translate(-68.921 -377.875)" fill="#333"/>
        <path id="Path_105914" data-name="Path 105914" d="M121.447,400.937a.3.3,0,0,1,.316-.237h3.006c.158,0,.237.079.158.237l-1.9,5.892a.9.9,0,0,0,.237.989,1.747,1.747,0,0,0,1.226.356h.554a.6.6,0,0,1,.633.356,2.114,2.114,0,0,1-.119,1.147c-.316,1.028-.83,1.5-1.5,1.5a4.443,4.443,0,0,1-1.582-.237,1.266,1.266,0,0,1-.83-1.028,3.126,3.126,0,0,1-1.5,1.028,8.4,8.4,0,0,1-2.215.237h-2.571a.634.634,0,0,1-.633-.316,1.792,1.792,0,0,1,.119-1.147,3.246,3.246,0,0,1,.633-1.186,1.163,1.163,0,0,1,.87-.356h1.542a1.357,1.357,0,0,0,1.147-.475,5.49,5.49,0,0,0,.712-1.582l1.7-5.181Zm-6.525,15.344c-.158,0-.237-.079-.158-.237l.791-2.452a.3.3,0,0,1,.316-.237h2.491c.158,0,.237.079.158.237l-.791,2.452a.3.3,0,0,1-.316.237Zm3.836,0c-.158,0-.237-.079-.158-.237l.791-2.452a.3.3,0,0,1,.316-.237h2.531c.158,0,.237.079.158.237l-.791,2.452a.3.3,0,0,1-.316.237Z" transform="translate(-74.993 -387.729)" fill="#333"/>
        <path id="Path_105915" data-name="Path 105915" d="M152.485,411.422a2.5,2.5,0,0,1-1.463-.356,1.574,1.574,0,0,1-.633-.949A2.84,2.84,0,0,1,149,411.145a5.91,5.91,0,0,1-2.017.277H146a2.5,2.5,0,0,1-1.463-.356,1.423,1.423,0,0,1-.633-.949,3.209,3.209,0,0,1-1.384,1.068,7.171,7.171,0,0,1-2.056.277h-3.006c-.316,0-.554-.079-.633-.277a1.676,1.676,0,0,1,.119-1.107,3.153,3.153,0,0,1,.633-1.226,1.163,1.163,0,0,1,.87-.356h1.661a1.294,1.294,0,0,0,1.028-.356,3.855,3.855,0,0,0,.633-1.345l1.226-3.717a.3.3,0,0,1,.316-.237h3.045c.158,0,.237.079.158.237l-1.305,4.073c-.158.514-.119.87.158,1.068a1.618,1.618,0,0,0,.989.277,4.079,4.079,0,0,0,.791-.079.879.879,0,0,0,.514-.316,2.232,2.232,0,0,0,.356-.554c.079-.237.2-.514.316-.83l1.186-3.638a.3.3,0,0,1,.316-.237h3.045c.158,0,.237.079.158.237l-1.305,4.073c-.2.554-.119.949.158,1.107a2.128,2.128,0,0,0,1.068.277,3.64,3.64,0,0,0,.751-.079,1.008,1.008,0,0,0,.475-.316,1.85,1.85,0,0,0,.316-.554c.079-.237.2-.514.277-.83l1.74-5.418a.3.3,0,0,1,.316-.237h3.045c.158,0,.237.079.158.237l-1.9,5.892a.9.9,0,0,0,.237.989,1.747,1.747,0,0,0,1.226.356h.554a.6.6,0,0,1,.633.356,2.114,2.114,0,0,1-.119,1.147c-.316,1.028-.83,1.5-1.5,1.5a4.443,4.443,0,0,1-1.582-.237,1.266,1.266,0,0,1-.83-1.028,3.217,3.217,0,0,1-1.345.989,5.357,5.357,0,0,1-1.621.277l-1.305-.158Z" transform="translate(-88.353 -387.971)" fill="#333"/>
        <path id="Path_105916" data-name="Path 105916" d="M192.342,401.326a1.189,1.189,0,0,1-.712-.158c-.119-.119-.158-.356-.04-.712.079-.2.158-.435.277-.672a6.4,6.4,0,0,1,.4-.712,3.44,3.44,0,0,1,.475-.554.781.781,0,0,1,.554-.237h.87a1.474,1.474,0,0,0,.989-.277,2.3,2.3,0,0,0,.633-1.028l3.994-12.339a.3.3,0,0,1,.316-.237h3.045c.158,0,.237.079.158.237l-4.39,13.525a5.272,5.272,0,0,1-1.424,2.373,3.679,3.679,0,0,1-2.491.751l-2.65.04Z" transform="translate(-121.448 -377.875)" fill="#333"/>
        <path id="Path_105917" data-name="Path 105917" d="M219.033,401.049a.3.3,0,0,1-.316.237h-3.006c-.158,0-.237-.079-.158-.237l5.3-16.412a.3.3,0,0,1,.316-.237h3.006c.158,0,.237.079.158.237Z" transform="translate(-135.958 -377.875)" fill="#333"/>
        <path id="Path_105918" data-name="Path 105918" d="M246.385,400.937a.3.3,0,0,1,.316-.237h3.045c.158,0,.237.079.158.237l-1.9,5.892a.96.96,0,0,0,.2.989,1.747,1.747,0,0,0,1.226.356h.554a.6.6,0,0,1,.633.356,2.114,2.114,0,0,1-.119,1.147c-.316,1.028-.83,1.5-1.5,1.5a4.76,4.76,0,0,1-1.384-.158,1.341,1.341,0,0,1-.791-.672l-.119.4a9.069,9.069,0,0,1-2.452,4.192,6.071,6.071,0,0,1-4.192,1.345h-1.147c-.158,0-.237-.079-.158-.237l.83-2.531a.3.3,0,0,1,.316-.237h.554a2.92,2.92,0,0,0,1.107-.2,2.3,2.3,0,0,0,.751-.633,4.632,4.632,0,0,0,.554-.989c.158-.4.316-.87.475-1.384l3.045-9.135Z" transform="translate(-149.983 -387.729)" fill="#333"/>
        <path id="Path_105919" data-name="Path 105919" d="M270.023,400.937a.3.3,0,0,1,.316-.237h3.006c.158,0,.237.079.158.237l-1.9,5.892a.96.96,0,0,0,.2.989,1.747,1.747,0,0,0,1.226.356h.593a.6.6,0,0,1,.633.356,2.114,2.114,0,0,1-.119,1.147c-.316,1.028-.831,1.5-1.5,1.5a4.443,4.443,0,0,1-1.582-.237,1.266,1.266,0,0,1-.83-1.028,3.126,3.126,0,0,1-1.5,1.028,8.4,8.4,0,0,1-2.215.237h-2.531a.634.634,0,0,1-.633-.316,2.13,2.13,0,0,1,.119-1.147,3.245,3.245,0,0,1,.633-1.186,1.163,1.163,0,0,1,.87-.356H266.5a1.357,1.357,0,0,0,1.147-.475,5.489,5.489,0,0,0,.712-1.582l1.661-5.181ZM263.5,416.281c-.158,0-.237-.079-.158-.237l.791-2.452a.3.3,0,0,1,.316-.237h2.491c.158,0,.237.079.158.237l-.791,2.452a.3.3,0,0,1-.316.237Zm3.836,0c-.158,0-.237-.079-.158-.237l.791-2.452a.3.3,0,0,1,.316-.237h2.531c.158,0,.237.079.158.237l-.791,2.452a.3.3,0,0,1-.316.237Z" transform="translate(-164.842 -387.729)" fill="#333"/>
        <path id="Path_105920" data-name="Path 105920" d="M285.972,410.454a.6.6,0,0,1-.633-.356,2.114,2.114,0,0,1,.119-1.147,3.247,3.247,0,0,1,.633-1.186,1.163,1.163,0,0,1,.87-.356h6.169a6.224,6.224,0,0,0,.989-.079,1.355,1.355,0,0,0,.712-.356,3.017,3.017,0,0,0,.514-.672,7.37,7.37,0,0,0,.435-1.068,3.134,3.134,0,0,0,.2-.989,2.128,2.128,0,0,0-.158-.87,1.508,1.508,0,0,0-.593-.633,2.254,2.254,0,0,0-1.147-.237,3.937,3.937,0,0,0-1.5.316,6.932,6.932,0,0,0-1.384.791c-.158.119-.277.119-.356.04l-.91-1.78c-.119-.158-.079-.277.04-.356a13.682,13.682,0,0,1,2.452-1.424,7.151,7.151,0,0,1,3.006-.593,5.967,5.967,0,0,1,2.571.475,3.44,3.44,0,0,1,1.424,1.266,3.158,3.158,0,0,1,.4,1.859,8.086,8.086,0,0,1-.435,2.254,12.983,12.983,0,0,1-1.107,2.531,6.392,6.392,0,0,1-1.305,1.542,3.453,3.453,0,0,1-1.582.751,8.934,8.934,0,0,1-1.859.2l-7.553.079Zm2.887,5.022c-.158,0-.237-.079-.158-.237l.791-2.452a.3.3,0,0,1,.316-.237h3.085c.158,0,.237.079.158.237l-.791,2.452a.3.3,0,0,1-.316.237Z" transform="translate(-178.142 -387.003)" fill="#333"/>
        <path id="Path_105921" data-name="Path 105921" d="M330.207,374.662a.3.3,0,0,1,.316-.237h3.006c.158,0,.237.079.158.237L329.732,387c-.158.514-.2.83-.04,1.028.119.2.4.277.83.277h.672a.6.6,0,0,1,.633.356,2,2,0,0,1-.158,1.186,3.219,3.219,0,0,1-.593,1.186,1.175,1.175,0,0,1-.83.277h-2.452c-1.028,0-1.7-.237-1.977-.751a3.278,3.278,0,0,1,.079-2.373l4.311-13.525Zm.83-2.966a2.993,2.993,0,0,1-.04-.593,2.66,2.66,0,0,1,.119-.712,3.182,3.182,0,0,1,.435-.91,2.85,2.85,0,0,1,.751-.791,3.694,3.694,0,0,1,1.028-.593,3.48,3.48,0,0,1,1.305-.2,2.654,2.654,0,0,1,1.305.277,1.645,1.645,0,0,1,.672.712c.04.079,0,.158-.079.237l-.989.791c-.119.079-.2.119-.237.04a1.087,1.087,0,0,0-.989-.593,1.251,1.251,0,0,0-.87.316,1.609,1.609,0,0,0-.554.791,1.086,1.086,0,0,0,0,.791,1.2,1.2,0,0,0,.356.514h2.491c.079,0,.119.04.079.158l-.356,1.107a.2.2,0,0,1-.2.158h-5.536c-.079,0-.119-.04-.079-.158l.356-1.107a.2.2,0,0,1,.2-.158l.831-.079Z" transform="translate(-202.524 -367.9)" fill="#333"/>
        <path id="Path_105922" data-name="Path 105922" d="M342.262,392.595a.3.3,0,0,1,.316-.237h3.006c.158,0,.237.079.158.237l-1.9,5.892a.96.96,0,0,0,.2.989,1.747,1.747,0,0,0,1.226.356h.593a.6.6,0,0,1,.633.356,2.114,2.114,0,0,1-.119,1.147c-.316,1.028-.831,1.5-1.5,1.5a4.444,4.444,0,0,1-1.582-.237,1.266,1.266,0,0,1-.83-1.028,3.126,3.126,0,0,1-1.5,1.028,8.4,8.4,0,0,1-2.215.237h-2.571a.634.634,0,0,1-.633-.316,2.13,2.13,0,0,1,.119-1.147,3.247,3.247,0,0,1,.633-1.186,1.163,1.163,0,0,1,.87-.356H338.7a1.357,1.357,0,0,0,1.147-.475,5.489,5.489,0,0,0,.712-1.582l1.7-5.181Zm-.554-2.768c-.158,0-.237-.079-.158-.237l.791-2.452a.3.3,0,0,1,.316-.237h2.491c.158,0,.237.079.158.237l-.791,2.452a.3.3,0,0,1-.316.237Zm3.836,0c-.158,0-.237-.079-.158-.237l.791-2.452a.3.3,0,0,1,.316-.237h2.531c.158,0,.237.079.158.237l-.791,2.452a.3.3,0,0,1-.316.237Z" transform="translate(-208.489 -379.386)" fill="#333"/>
        <path id="Path_105923" data-name="Path 105923" d="M358.142,401.326a1.189,1.189,0,0,1-.712-.158c-.119-.119-.158-.356-.04-.712.079-.2.158-.435.277-.672a6.392,6.392,0,0,1,.4-.712,3.44,3.44,0,0,1,.475-.554.781.781,0,0,1,.554-.237h.87a1.544,1.544,0,0,0,.989-.277,2.3,2.3,0,0,0,.633-1.028l3.994-12.339a.3.3,0,0,1,.316-.237h3.045c.158,0,.237.079.158.237l-4.39,13.525a5.272,5.272,0,0,1-1.424,2.373,3.679,3.679,0,0,1-2.491.751l-2.65.04Z" transform="translate(-221.68 -377.875)" fill="#333"/>
        <path id="Path_105924" data-name="Path 105924" d="M396.386,415.677a5.833,5.833,0,0,1-3.52-.83c-.712-.554-.87-1.5-.435-2.847a5.579,5.579,0,0,1,.91-1.74,7.626,7.626,0,0,1,1.305-1.226,7.836,7.836,0,0,1,1.621-.831,14.233,14.233,0,0,1,1.74-.475,4.99,4.99,0,0,0-1.78-3.678.415.415,0,0,1-.2-.356,2.513,2.513,0,0,1,.119-.593l.514-1.621a1.272,1.272,0,0,1,.672-.593,11.114,11.114,0,0,1,1.463-.593,19.668,19.668,0,0,1,2.017-.435,14.576,14.576,0,0,1,2.294-.158,9.142,9.142,0,0,1,2.531.277,4.547,4.547,0,0,1,1.582.791,2.229,2.229,0,0,1,.672,1.226,3.549,3.549,0,0,1-.158,1.542,5.413,5.413,0,0,1-.633,1.265,7.953,7.953,0,0,1-.91,1.107,10.605,10.605,0,0,1-1.028.91,8.348,8.348,0,0,1-1.068.712c.158,0,.316.04.475.04H407.7c.672,0,.83.475.514,1.463a3.247,3.247,0,0,1-.633,1.186,1.163,1.163,0,0,1-.87.356h-3.915a6.7,6.7,0,0,1-1.5-.158,2.9,2.9,0,0,1-1.265-.593c-.475.158-.949.277-1.384.4s-.83.237-1.147.356a3.569,3.569,0,0,0-.87.435,1.179,1.179,0,0,0-.475.672c-.119.356-.04.633.2.751a4,4,0,0,0,1.661.2h1.859c.158,0,.237.079.158.237l-.791,2.531a.3.3,0,0,1-.316.237l-2.531.04Zm4.627-8.74a7.918,7.918,0,0,0,1.78-1.226,4.073,4.073,0,0,0,1.068-1.5.979.979,0,0,0-.2-1.186,2.288,2.288,0,0,0-1.5-.356,6.373,6.373,0,0,0-1.542.158,6.081,6.081,0,0,0-.949.277,4.069,4.069,0,0,1,1.147,1.74,4.749,4.749,0,0,1,.2,2.1Z" transform="translate(-242.761 -387.124)" fill="#333"/>
        <path id="Path_105925" data-name="Path 105925" d="M435.116,384.637a.3.3,0,0,1,.316-.237h3.045c.158,0,.237.079.158.237l-3.994,12.3a.94.94,0,0,0,.2.989,1.793,1.793,0,0,0,1.265.356h.593a.6.6,0,0,1,.633.356,2.114,2.114,0,0,1-.119,1.147c-.316,1.028-.83,1.5-1.5,1.5a4.444,4.444,0,0,1-1.582-.237,1.266,1.266,0,0,1-.83-1.028,3.331,3.331,0,0,1-1.384.989,5.764,5.764,0,0,1-2.017.277h-2.254a1.189,1.189,0,0,1-.712-.158c-.119-.119-.158-.356-.04-.712.079-.2.158-.435.277-.672a6.393,6.393,0,0,1,.4-.712,3.441,3.441,0,0,1,.475-.554.781.781,0,0,1,.554-.237h.87a1.354,1.354,0,0,0,.712-.158,1.775,1.775,0,0,0,.514-.435,5.946,5.946,0,0,0,.356-.712,9.115,9.115,0,0,0,.356-.989l3.717-11.31Z" transform="translate(-263.695 -377.875)" fill="#333"/>
        <path id="Path_105926" data-name="Path 105926" d="M453.811,392.4a.3.3,0,0,1,.316-.237h3.006c.158,0,.237.079.158.237l-.237.751a25.287,25.287,0,0,1,2.768-.87,12.343,12.343,0,0,1,2.926-.356q3.025,0,4.152,1.424c.751.949.751,2.491.079,4.548a.745.745,0,0,0-.079.316.59.59,0,0,1-.119.277.986.986,0,0,0,.237.949,1.793,1.793,0,0,0,1.265.356h.554a.6.6,0,0,1,.633.356,2.114,2.114,0,0,1-.119,1.147c-.316,1.028-.831,1.5-1.5,1.5a4.275,4.275,0,0,1-1.74-.316,1.516,1.516,0,0,1-.831-1.266,4.26,4.26,0,0,1-1.977,1.266,9.751,9.751,0,0,1-2.847.316h-5.576a4.38,4.38,0,0,1-.751-.079,2.965,2.965,0,0,1-.633-.158c-.2-.079-.277-.158-.316-.316a2.413,2.413,0,0,1-1.107.435,13.124,13.124,0,0,1-1.384.079h-2.215a.634.634,0,0,1-.633-.316,2.285,2.285,0,0,1,.119-1.186,2.643,2.643,0,0,1,.633-1.226,1.214,1.214,0,0,1,.87-.277h.989a1.078,1.078,0,0,0,.633-.158,1.518,1.518,0,0,0,.435-.435,2.653,2.653,0,0,0,.316-.672c.119-.277.2-.554.316-.87l1.661-5.22Zm7.316,2.531a9.817,9.817,0,0,0-2.571.356,17.267,17.267,0,0,0-2.412.791l-.91,2.768a1.987,1.987,0,0,1-.2.514,2.417,2.417,0,0,1-.2.475h4.943c.593,0,1.107,0,1.542-.04a3.018,3.018,0,0,0,.989-.237,1.619,1.619,0,0,0,.633-.633,6.089,6.089,0,0,0,.475-1.186,3.506,3.506,0,0,0,.237-1.186,1.373,1.373,0,0,0-1.028-1.424,4.93,4.93,0,0,0-1.5-.2Zm.356-5.1c-.158,0-.237-.079-.158-.237l.791-2.452a.3.3,0,0,1,.316-.237h3.085c.158,0,.237.079.158.237l-.791,2.452a.3.3,0,0,1-.316.237Z" transform="translate(-276.379 -379.386)" fill="#333"/>
        <path id="Path_105927" data-name="Path 105927" d="M497.142,401.326a1.189,1.189,0,0,1-.712-.158c-.119-.119-.158-.356-.04-.712.079-.2.158-.435.277-.672a6.4,6.4,0,0,1,.4-.712,3.441,3.441,0,0,1,.475-.554.781.781,0,0,1,.554-.237h.87a1.544,1.544,0,0,0,.989-.277,2.3,2.3,0,0,0,.633-1.028l3.994-12.339a.3.3,0,0,1,.316-.237h3.045c.158,0,.237.079.158.237l-4.39,13.525a5.272,5.272,0,0,1-1.424,2.373,3.679,3.679,0,0,1-2.491.751l-2.65.04Z" transform="translate(-305.71 -377.875)" fill="#333"/>
        <path id="Path_105928" data-name="Path 105928" d="M523.833,401.049a.3.3,0,0,1-.316.237h-3.005c-.158,0-.237-.079-.158-.237l5.3-16.412a.3.3,0,0,1,.316-.237h3.006c.158,0,.237.079.158.237Z" transform="translate(-320.221 -377.875)" fill="#333"/>
      </g>
      <path id="Path_105929" data-name="Path 105929" d="M162.3,21.191a1.165,1.165,0,0,1,.2-.514c.316-.277.633-.514.949-.791A100.049,100.049,0,0,1,197.813,3.237,104.175,104.175,0,0,1,208.807.983a97.134,97.134,0,0,1,15.146-.989c2.926.04,5.853.119,8.779.4a98.291,98.291,0,0,1,34.445,9.847,102.614,102.614,0,0,1,40.3,35.79,105.864,105.864,0,0,1,15.542,37.727,97.36,97.36,0,0,1,1.74,12.655c.079,1.147.158,2.333.237,3.48,0,.277-.04.554-.04.791-.158.079-.237.158-.316.158-21.355,0-39.191-.554-60.546-.633,1.186-.2,2.373-.435,3.559-.633,2.966-.475,2.412-.4,5.418-.87,2.768-.435,5.536-.83,8.3-1.265l8.3-1.305c2.135-.356,4.311-.672,6.446-.989,2.571-.4,5.181-.83,7.83-1.226a4.343,4.343,0,0,0,.079-.989c-.158-1.5-.316-3.006-.593-4.469a102.286,102.286,0,0,0-5.695-21.2,95.562,95.562,0,0,0-25.587-36.9,90.99,90.99,0,0,0-32.349-18.824,94.969,94.969,0,0,0-12.3-3.124,86.11,86.11,0,0,0-8.977-1.305,62.91,62.91,0,0,0-10.915-.2c-1.9.158-3.8.2-5.695.435-2.215.237-4.39.554-6.6.949a90.117,90.117,0,0,0-14.988,3.994,91.319,91.319,0,0,0-17.361,8.423,2.068,2.068,0,0,0-.672.475Z" transform="translate(-98.116 0)" fill="#fbc100"/>
      <path id="Path_105930" data-name="Path 105930" d="M298.716,234.879a.562.562,0,0,0-.237-.079c-.04,0-.04.04-.079.079Z" transform="translate(-180.393 -141.951)"/>
      <path id="Path_105931" data-name="Path 105931" d="M494.4,198.879a.138.138,0,0,0,.04.079c0-.04.04-.119.04-.158l-.079.079Z" transform="translate(-298.882 -120.187)"/>
      <path id="Path_105932" data-name="Path 105932" d="M131.316,74.779H131l.079-.079a1.555,1.555,0,0,0,.237.079Z" transform="translate(-79.194 -45.164)"/>
      <g id="Group_48217" data-name="Group 48217" transform="translate(0 181.078)">
        <rect id="Rectangle_17139" data-name="Rectangle 17139" width="68.257" height="1.463" fill="#333"/>
        <rect id="Rectangle_17140" data-name="Rectangle 17140" width="58.331" height="1.186" transform="translate(9.887 4.152)" fill="#333"/>
      </g>
      <g id="Group_48218" data-name="Group 48218" transform="translate(153.994 181.078)">
        <rect id="Rectangle_17141" data-name="Rectangle 17141" width="64.263" height="1.463" fill="#333"/>
        <rect id="Rectangle_17142" data-name="Rectangle 17142" width="54.376" height="1.186" transform="translate(0 4.152)" fill="#333"/>
      </g>
      <g id="Group_48219" data-name="Group 48219" transform="translate(35.473 11.051)">
        <path id="Path_105933" data-name="Path 105933" d="M170.042,114.937a1.713,1.713,0,0,1-.04-.2m66.873-46.9c-.2-.316-.356-.672-.554-1.028a64.4,64.4,0,0,0-7.435-10.717c-.277-.316-.554-.633-.791-.949-.554-.633-1.107-1.226-1.661-1.859-.593-.633-1.147-1.226-1.78-1.819-.593-.593-1.226-1.186-1.819-1.78h0c-.949-.87-1.9-1.74-2.926-2.571a83.1,83.1,0,0,0-49.038-19.022A85.914,85.914,0,0,0,121.6,40.155c-.751.475-1.5.91-2.215,1.424-1.819,1.186-3.638,2.452-5.339,3.8-.672.554-1.345,1.068-2.017,1.661-.989.83-1.977,1.7-2.926,2.571-.633.593-1.265,1.186-1.859,1.819A70.1,70.1,0,0,0,94.864,67.916,66.446,66.446,0,0,0,90,79.385h4.39c.949-2.808,2.017-5.616,2.966-8.5.158.04.356.079.514.119.316.079.672.158.989.237a8.1,8.1,0,0,0,.949.2c.316.04.593.158.91.2.751.158,1.463.316,2.175.475.554.119,1.147.237,1.7.4.475-.91.83-1.7,1.265-2.571-1.9-1.226-3.678-2.412-5.5-3.6,1.265-2.017,2.65-3.994,4.073-5.853l1.9-2.373c1.107-1.265,2.215-2.531,3.4-3.717l.712-.712a71.641,71.641,0,0,1,13.05-10.2c.672.633,1.345,1.265,2.017,1.859.316.316.633.593.949.87.554.514,1.147,1.068,1.661,1.542,2.491-.633,2.887-1.9,1.661-3.678a1.718,1.718,0,0,1-.158-.277,4.713,4.713,0,0,1-.316-.791,4.719,4.719,0,0,0-.316-.633c-.633-.949-.554-1.542.04-2.056a5.418,5.418,0,0,1,.989-.593l1.305-.593a77.527,77.527,0,0,1,20.8-6.407c3.836-.554,7.712-.87,11.389-1.305a.138.138,0,0,0,.04.079,2.268,2.268,0,0,1,.158.277c.04.04.04.079.079.119s.04.079.079.119c0,.04.04.04.04.079s.04.079.04.119a8.1,8.1,0,0,1,.2.949c.2.949.435,1.9.554,2.847a1.681,1.681,0,0,0,.712,1.424,2.349,2.349,0,0,0,.316.158,2.986,2.986,0,0,0,.91.119c1.226,0,1.7-.4,1.9-1.226a1.219,1.219,0,0,0,.04-.4c0-.119.04-.277.04-.4s.04-.277.04-.4c.04-.277.079-.554.119-.791a6.965,6.965,0,0,1,.475-1.542c.04-.119.158-.237.237-.4.04-.04.04-.079.079-.079a1.855,1.855,0,0,1,1.226-.633,80.484,80.484,0,0,1,33.852,9.333c1.107.593,1.265,1.147.672,2.1-.791,1.345-1.463,2.768-2.294,4.311.2.158.4.277.633.435.633.435,1.345.91,2.412,1.621,1.384-1.74,2.768-3.441,4.113-5.1.593.4,1.147.791,1.7,1.186s1.107.791,1.661,1.226h0a73.8,73.8,0,0,1,10.8,9.768h0c1.463,1.621,2.808,3.322,4.113,5.062q1.661,2.254,3.085,4.627c.158.277.316.554.475.791a4.168,4.168,0,0,0,.277.435c.04.079.119.2.158.277a4.313,4.313,0,0,0,.237.435,4.435,4.435,0,0,1,.2.514c0,.04.04.079.04.119.2.672-.04,1.147-.712,1.819a3.566,3.566,0,0,1-.4.356,4.191,4.191,0,0,0-.475.4,6.767,6.767,0,0,1-.554.435c-.119.079-.2.158-.316.237-.514.4-1.068.712-1.661,1.107h0a7.42,7.42,0,0,1,.475.712h0c.158.237.316.435.435.633h0a5.152,5.152,0,0,1,.4.593c.119.2.277.4.4.593h0c.751-.237,1.463-.514,2.175-.751,1.819-.633,3.559-1.265,5.378-1.859.356-.119.712-.237,1.107-.4h0a47.114,47.114,0,0,0-2.294-5.022Z" transform="translate(-89.881 -27.958)" fill="none"/>
        <path id="Path_105934" data-name="Path 105934" d="M239.027,72.912c-2.926,1.028-5.695,1.977-8.661,3.006-.554-.83-1.068-1.542-1.74-2.571.593-.4,1.147-.712,1.661-1.107,3.124-2.452,3.085-2.452,1.068-5.813A69.817,69.817,0,0,0,210,44.518c-1.384,1.7-2.729,3.361-4.113,5.1-1.424-.949-2.175-1.463-3.045-2.056.791-1.5,1.463-2.926,2.294-4.311.593-.989.4-1.5-.672-2.1a79.751,79.751,0,0,0-33.852-9.333,2.175,2.175,0,0,0-1.582,1.107,10.813,10.813,0,0,0-.712,3.164c-.119,1.147-.554,1.621-1.938,1.621-1.463,0-1.74-.633-1.9-1.7-.2-1.265-.514-2.531-.791-3.757-.04-.119-.158-.237-.435-.751-3.678.4-7.553.712-11.389,1.305a77.547,77.547,0,0,0-22.106,7c-1.384.672-1.977,1.345-1.068,2.65.356.514.475,1.147.791,1.661,1.186,1.78.83,3.006-1.661,3.678-1.463-1.345-3.006-2.808-4.627-4.311a71.021,71.021,0,0,0-23.135,22.858c1.819,1.186,3.6,2.373,5.5,3.6-.435.87-.83,1.661-1.265,2.571C102,72,99.824,71.488,97.056,70.9c-.949,2.887-2.017,5.695-2.966,8.5H89.7a69.688,69.688,0,0,1,4.864-11.468c13.881-25.587,43.778-41.563,76.087-39.744,34.445,1.938,59.557,23.1,68.376,44.727Z" transform="translate(-89.7 -28.01)" fill="url(#linear-gradient)"/>
        <path id="Path_105935" data-name="Path 105935" d="M292.34,247.6c0-.079-.04-.119-.04-.2" transform="translate(-212.179 -160.618)" fill="none"/>
      </g>
      <g id="Group_48220" data-name="Group 48220" transform="translate(19.978 51.783)">
        <path id="Path_105936" data-name="Path 105936" d="M311.816,187.966c.633-.119,1.266-.277,1.938-.356,3.2-.514,6.367-1.028,9.57-1.5a36.857,36.857,0,0,1,4.152-.4c1.226-.04,1.582.356,1.424,1.582a1.74,1.74,0,0,1-.079.4c-.316,1.819-.633,3.6-.949,5.418a4.025,4.025,0,0,1-2.491,3.164,9.611,9.611,0,0,1-1.5.514c-5.932,1.621-11.9,3.2-17.835,4.785-2.571.712-5.141,1.384-7.712,2.1a1.4,1.4,0,0,0-.514.316H297.5c.04-.04.079-.079.079-.04.079.04.158.04.2.079a.145.145,0,0,1,.119-.04c4.113-.751,8.265-1.463,12.378-2.254,4.785-.91,9.61-1.9,14.395-2.847,1.147-.237,2.294-.514,3.48-.712a2.228,2.228,0,0,0,2.056-2.175v-.119l2.254-11.983a2.993,2.993,0,0,0-.04-.593,1.63,1.63,0,0,0-.475.04c-3.955.87-7.949,1.74-11.9,2.61-2.61.593-5.181,1.186-7.791,1.78-.158-.079-.316.04-.435.237a4.3,4.3,0,0,0-.712-.04v.119a4.357,4.357,0,0,1,.712-.079Z" transform="translate(-199.828 -162.6)" fill="#fff"/>
        <path id="Path_105937" data-name="Path 105937" d="M80.25,167.594Zm25.745-19.971.91.158h.079c1.305.04,2.61.04,3.915.04,4.746.04,9.452-.04,14.158-.316a2.8,2.8,0,0,0,2.056-.949c1.265-1.384,2.61-2.729,3.955-4.034a77.026,77.026,0,0,1,6.565-5.853,12.078,12.078,0,0,1,3.955-2.017c.672-.2,1.345-.4,2.017-.554a59.554,59.554,0,0,1,7.909-1.147,44.812,44.812,0,0,1,11.508.514,59.438,59.438,0,0,1,6.288,1.345q11.8,3.025,23.57,6.169c1.661.435,3.243,1.028,4.864,1.542a2.463,2.463,0,0,1,1.621,1.621c.356,1.028.751,2.056,1.068,3.085.316.91.554,1.819.91,2.926a5.721,5.721,0,0,0-.158-2.1c-.316-1.661-.672-3.322-.989-5.022a1.884,1.884,0,0,0-1.345-1.463c-.91-.277-1.819-.593-2.768-.83q-11.567-3.025-23.214-6.051a90.613,90.613,0,0,0-12.1-2.294c-2.491-.277-4.943-.475-7.435-.633-4.113-.277-8.226-.554-12.3-.672a204.2,204.2,0,0,0-22.541.4c-3.955.316-7.909.712-11.864,1.384a22.779,22.779,0,0,0-6.011,1.74c-1.819.83-3.678,1.621-5.5,2.452A155.943,155.943,0,0,0,80.843,144.3a5.4,5.4,0,0,1-1.305.554,87.644,87.644,0,0,0-21.513,10.757,31.69,31.69,0,0,0-4.587,3.678,24.91,24.91,0,0,0-1.9,2.175,5.809,5.809,0,0,0-.87,1.621,1.915,1.915,0,0,0,1.028,2.531,3.269,3.269,0,0,0,.87.316c.672.2,1.345.356,2.017.593.277.079.633.04.791.435-.158.316-.316.672-.475,1.028-.751,1.7-1.542,3.4-2.294,5.141a16.611,16.611,0,0,0-.672,1.977c-.2.87-.04,1.186.791,1.5.87.316,1.74.554,2.61.83a6.316,6.316,0,0,1,1.424.435c-.712.158-1.305.237-1.819.4a14.767,14.767,0,0,0-2.215.791c-.949.475-.949,1.186-.079,1.78a2.825,2.825,0,0,0,.593.316,12.961,12.961,0,0,0,1.977.672c1.5.316,3.006.633,4.508.87,3.52.593,7.079,1.186,10.6,1.7q5.991.89,11.983,1.424c3.717.356,7.435.554,11.113.633,3.52.079,7.079.04,10.638-.079,4.073-.158,8.147-.4,12.18-.633q1.958-.119,3.915-.356c2.175-.2,4.35-.435,6.525-.672,1.859-.2,3.717-.4,5.616-.633,1.74-.2,3.48-.435,5.181-.672,2.333-.316,4.706-.593,7.039-.91l6.762-.949c2.175-.316,4.35-.593,6.486-.91l8.3-1.186c2.768-.4,5.536-.751,8.3-1.147,2.808-.4,5.616-.83,8.423-1.186,2.847-.4,5.734-.751,8.582-1.147,3.006-.4,5.972-.83,8.977-1.226,3.4-.435,6.842-.949,10.243-1.621.158-.04.356-.04.356-.356-1.028-.04-2.056-.04-3.124-.079l-7.751-.237c-.277,0-.633.079-.83-.277a5.953,5.953,0,0,1,.4-.672,13.3,13.3,0,0,0,1.582-3.6,24.028,24.028,0,0,0,.356-12.3,15.664,15.664,0,0,0-1.938-4.864,8.344,8.344,0,0,0-2.373-2.61,4.334,4.334,0,0,0-5.062-.04,6.948,6.948,0,0,0-1.977,1.9A13.742,13.742,0,0,0,188.607,153a22.457,22.457,0,0,0-1.384,9.135c.04,1.78.119,3.6.119,5.378,0,1.582-.237,1.9-1.819,2.175h-.04c-.158.04-.277.04-.435.079-3.4.633-6.8,1.265-10.243,1.78-3.441.554-6.921.949-10.4,1.424-3.6.475-7.2.989-10.8,1.463-4.152.593-8.3,1.226-12.418,2.056a8.35,8.35,0,0,1-1.028.079v-.356a2.13,2.13,0,0,1,.119-.4,20.192,20.192,0,0,0,.989-9.57,17.269,17.269,0,0,0-2.61-7.474,11.5,11.5,0,0,0-3.164-3.322,7.384,7.384,0,0,0-8.384-.04,11.441,11.441,0,0,0-2.571,2.412,14.856,14.856,0,0,0-2.136,3.876,19.033,19.033,0,0,0-1.265,6.8v1.5c.04,1.74.079,3.441.079,5.181q0,1.305-.119,2.61a1.885,1.885,0,0,1-.277.87,1.863,1.863,0,0,1-1.305.791c-.672.119-1.384.2-2.056.316a75.007,75.007,0,0,1-9.412.87c-5.378.158-10.757-.04-16.135-.277-3.2-.158-6.367-.435-9.57-.672-2.254-.158-4.548-.4-6.8-.593-.277-.04-.554-.158-.87-.237a70.881,70.881,0,0,1,5.576-7.079,3.772,3.772,0,0,1,1.7.2c.316.633.672,1.265.989,1.938.316.633.593,1.265.949,1.9a9.9,9.9,0,0,0,1.186,2.017,2.76,2.76,0,0,0,.237-.672c0-.83.04-1.661-.04-2.491a1.854,1.854,0,0,1,1.384-2.1,7.1,7.1,0,0,1,2.571-.356c3.994.079,7.949.237,11.943.316,1.305.04,2.61.04,3.915.04a4.415,4.415,0,0,1,2.017.435.9.9,0,0,1,.475,1.305c-.119.277-.316.554-.435.791-.593,1.028-1.226,2.017-1.819,3.045-.079.158-.316.316-.158.593a2.207,2.207,0,0,0,.316-.2c1.265-1.5,2.531-3.006,3.757-4.548.237-.277.356-.593.554-.87a.844.844,0,0,0-.079-1.107,19.492,19.492,0,0,0-1.542-1.582c-1.859-1.621-1.859-1.621-4.311-1.661-3.836-.079-7.712-.158-11.548-.277l-11.152-.356c-.277,0-.514-.04-.751-.04-.079-.237-.158-.435-.237-.633a1.27,1.27,0,0,1-1.226.554c-.91-.079-1.819-.079-2.729-.158-.079,0-.158-.04-.237-.04l-13.8-1.424c-.4-.04-.791-.079-1.226-.119.079-.316.079-.554.158-.83a46.813,46.813,0,0,1,4.271-10.4,22.255,22.255,0,0,1,2.65-3.757,5.719,5.719,0,0,1,1.74-1.345c3.559-1.819,7.2-3.4,10.875-4.9a2.386,2.386,0,0,1,.751-.237,3.171,3.171,0,0,1,.791.277l-.04.04,3.045-1.305a3.491,3.491,0,0,1,1.107-.712c4.311-2.254,8.7-4.271,13.129-6.248a3.989,3.989,0,0,0,.593-.277c3.045-1.305,3.045-1.345,6.288-1.463,4.192-.158,8.384-.119,12.576.04.4,0,.751.04,1.305.079a1.5,1.5,0,0,1-1.068.554l-7.949,2.61c-5.537,1.859-11.033,3.915-16.412,6.169-.079.04-1.542.435-1.621.435m16.649-11.9a230.612,230.612,0,0,1,41.8-.593c-1.068.119-2.136.237-3.164.356a53.8,53.8,0,0,0-9.649,1.78,3.433,3.433,0,0,1-1.424.119c-2.333-.277-4.666-.633-7.039-.791-2.729-.2-5.5-.277-8.265-.316l-12.062-.237a4.845,4.845,0,0,1-.751-.079v-.158c.158,0,.356-.079.554-.079ZM63.127,153.832a13.393,13.393,0,0,1,2.847-1.582c.079.079.119.119.119.158a.145.145,0,0,1-.04.119c-1.028,1.621-2.017,3.243-3.045,4.864,0,.04-.079,0-.158.04C62.968,156.244,63.047,155.1,63.127,153.832Zm-8.74,11.31a5.6,5.6,0,0,1-.87-.277,1.271,1.271,0,0,1-.83-1.463,4.055,4.055,0,0,1,.4-1.226,8.371,8.371,0,0,1,1.9-2.61,40.763,40.763,0,0,1,6.565-4.746.847.847,0,0,1,.237.04c-.277.277-.475.554-.672.751-.672.751-1.424,1.424-2.056,2.215a2.481,2.481,0,0,0,.356,3.4.826.826,0,0,0,1.186.079c.158-.119.316-.277.514-.435.158-.158.316-.277.554-.475a2.35,2.35,0,0,1,.119.277c-.475,1.819-.91,3.638-1.384,5.457-.356.277-.751.119-1.147.04-1.621-.316-3.243-.672-4.864-1.028Zm7.118,12.5a43.791,43.791,0,0,1-5.616-.949,11.248,11.248,0,0,1-1.5-.514,1.186,1.186,0,0,1-.791-1.345,2.255,2.255,0,0,1,.04-.514,12.655,12.655,0,0,1,1.186-3.441,2.127,2.127,0,0,1,2.254-1.265,14.014,14.014,0,0,1,1.977.277,2.176,2.176,0,0,1,.316,1.345c.158,1.345.356,2.689.554,4.034a5.073,5.073,0,0,0,.277.633,10.246,10.246,0,0,0,.4-.949c.2-.751.4-1.5.593-2.294a2.293,2.293,0,0,1,1.74-1.78,5.585,5.585,0,0,1,3.322.119A59.494,59.494,0,0,1,61.505,177.639Zm76.681-3.124a11.318,11.318,0,0,1-2.1,3.6,6.994,6.994,0,0,1-4.785,2.452,5.163,5.163,0,0,1-2.768-.593,7.984,7.984,0,0,1-3.045-2.808,13.076,13.076,0,0,1-2.254-6.565h0v-.2a3.5,3.5,0,0,1,0-.91v-.514a13.445,13.445,0,0,1,1.542-6.8,10.384,10.384,0,0,1,3.6-3.915,4.846,4.846,0,0,1,3.757-.633,7.594,7.594,0,0,1,4.39,2.887,12.677,12.677,0,0,1,2.373,5.616,15.938,15.938,0,0,1-.712,8.384Zm59.636-3.638a3.267,3.267,0,0,1-5.062-.079h0a1.715,1.715,0,0,1-.83-1.186c-.277-.04-.356-.316-.475-.514a12.958,12.958,0,0,1-1.542-5.1,22.579,22.579,0,0,1,.2-6.525,15.283,15.283,0,0,1,1.265-3.717,9.714,9.714,0,0,1,1.819-2.373,2.647,2.647,0,0,1,3.243-.475,5.622,5.622,0,0,1,2.215,1.977,11.686,11.686,0,0,1,1.621,3.836,18.908,18.908,0,0,1-.158,9.847,15.462,15.462,0,0,1-1.068,2.65,8.185,8.185,0,0,1-1.226,1.661Z" transform="translate(-50.519 -130.957)" fill="#333"/>
        <path id="Path_105938" data-name="Path 105938" d="M314.911,147.362c-2.294-.2-4.627-.356-6.921-.593a7.779,7.779,0,0,1-2.294-.554c-4.983-2.135-10.084-3.994-15.225-5.695a24.566,24.566,0,0,0-7.712-1.226,106.329,106.329,0,0,0-12.3.672,13.572,13.572,0,0,0-7.158,2.966,41.316,41.316,0,0,0-8.028,8.582c-.158.237-.277.514-.475.87.2.2.277.316.4.356a1.122,1.122,0,0,0,.514.158c.593.04,1.226.04,1.819.04,1.661-.079,3.322-.158,4.983-.316,3.836-.316,7.672-.672,11.508-1.028,3.164-.316,6.327-.87,9.452-1.5,4.35-.87,8.7-1.977,12.971-3.124,1.107-.316,2.215-.514,3.322-.791,1.186.475,2.333.949,3.52,1.424a8.494,8.494,0,0,1,1.028.554c.158.079.237.237.356.356a2.06,2.06,0,0,1-1.186,1.186,29.5,29.5,0,0,1-3.164,1.582,82.857,82.857,0,0,1-13.327,4.231c-4.429,1.028-8.9,1.819-13.367,2.531a16.275,16.275,0,0,1-6.486-.158c-2.254-.554-4.469-1.226-6.644-1.977l-1.068-.356a1.1,1.1,0,0,0,.475.475,29.237,29.237,0,0,0,7.83,2.926,13.439,13.439,0,0,0,4.152.356c1.305-.158,2.61-.316,3.915-.554,3.4-.633,6.762-1.305,10.163-2.017a94.991,94.991,0,0,0,11.389-3.085,46.564,46.564,0,0,0,9.966-4.627,4.516,4.516,0,0,1,2.1-.672c1.78-.2,3.559-.4,5.339-.554a4.131,4.131,0,0,0,1.938-.435c-.791,0-1.305.04-1.78,0Zm-30.728.751a95.707,95.707,0,0,1-10.084,1.661c-3.836.356-7.632.712-11.468,1.028-1.305.119-2.61.158-3.915.237-.2,0-.4-.04-.593-.04-.119-.356.079-.475.2-.633a34.305,34.305,0,0,1,6.486-6.407,2.238,2.238,0,0,1,2.056-.435c5.141,1.107,10.322,2.215,15.423,3.559.751.2,1.5.435,2.412.672-.237.158-.356.316-.514.356Z" transform="translate(-174.014 -135.995)" fill="#333"/>
        <path id="Path_105939" data-name="Path 105939" d="M163.267,180.14c-.119.475-.593.593-.949.83-4.271,2.966-8.463,6.011-12.576,9.214-.989.791-1.977,1.582-3.006,2.373-.237-.356.119-.475.2-.672s.2-.356.277-.514a.455.455,0,0,0-.593-.237c-.83.04-1.661.119-2.491.158a31.969,31.969,0,0,1-3.876.119c-.672-.791-.277-1.7-.435-2.491a2.531,2.531,0,0,0-1.305.514c-3.8,2.1-7.553,4.192-11.35,6.288a6.537,6.537,0,0,1-1.028.554c-.158.079-.4,0-.633-.04h0c.356-.2.751-.4,1.107-.633,3.717-2.333,7.435-4.746,11.152-7.079a98.263,98.263,0,0,1,21.395-9.649c.4-.119.791-.316,1.186-.475h0c-.079.158-.119.356-.237.4-.356.2-.712.356-1.068.514-4.469,1.977-8.9,4.034-13.248,6.248-.356.2-.83.277-1.068.751,1.345-.158,2.689-.316,4.034-.435,1.463-.158,2.966-.316,4.429-.435a3.253,3.253,0,0,0,1.463-.514c2.452-1.5,4.943-2.926,7.435-4.39.475-.158.751-.435,1.186-.4Z" transform="translate(-95.847 -159.638)" fill="#333"/>
        <path id="Path_105940" data-name="Path 105940" d="M298.5,203.7a1.811,1.811,0,0,1,.514-.316c2.571-.712,5.141-1.424,7.712-2.1,5.932-1.621,11.9-3.2,17.835-4.785a6.748,6.748,0,0,0,1.5-.514,4.183,4.183,0,0,0,2.491-3.164c.316-1.819.633-3.6.949-5.418.04-.119.04-.237.079-.4.119-1.186-.2-1.621-1.424-1.582-1.384.079-2.808.2-4.152.4-3.2.475-6.407.989-9.57,1.5-.633.119-1.266.237-1.938.356h0a.7.7,0,0,1,.514-.356c2.61-.593,5.181-1.186,7.791-1.78,3.955-.87,7.909-1.74,11.9-2.61.119-.04.277,0,.475-.04a3.2,3.2,0,0,1,.04.593l-2.254,11.983v.119a2.2,2.2,0,0,1-2.056,2.175c-1.147.2-2.294.514-3.48.712-4.785.949-9.57,1.938-14.395,2.847-4.113.791-8.265,1.5-12.378,2.254a1.171,1.171,0,0,0-.158.119Z" transform="translate(-200.432 -162.358)" fill="#333"/>
        <path id="Path_105941" data-name="Path 105941" d="M221,181.872c.2-.237.435-.435.633-.672v.04c-.04.475-.119.514-.633.633Z" transform="translate(-153.581 -161.331)"/>
        <path id="Path_105942" data-name="Path 105942" d="M332.612,194.979a4.3,4.3,0,0,1-.712.04V194.9a4.358,4.358,0,0,0,.712.079Z" transform="translate(-220.624 -169.613)"/>
        <path id="Path_105943" data-name="Path 105943" d="M213.9,178.44c.158,0,.356-.04.514-.04v.079a2.089,2.089,0,0,1-.514-.04Z" transform="translate(-149.288 -159.638)"/>
        <path id="Path_105944" data-name="Path 105944" d="M222.6,181.2c.04.04.04.079.079.079s.04-.04.079-.04a.238.238,0,0,1-.158-.04Z" transform="translate(-154.548 -161.331)"/>
        <path id="Path_105945" data-name="Path 105945" d="M406.668,218.06a6.82,6.82,0,0,0-.277-.83c-.237-.633-.514-1.265-.791-1.859.791-1.463,1.5-2.847,2.215-4.231,0-.04.079-.04.119-.04a25.6,25.6,0,0,1,2.57,7.988,3.127,3.127,0,0,1-1.424.949c-.672-.119-.989-.791-1.661-.791h0a1.234,1.234,0,0,0-.831-1.226l.079.04Z" transform="translate(-265.178 -179.406)" fill="#333"/>
        <path id="Path_105946" data-name="Path 105946" d="M390.2,228a1.325,1.325,0,0,1,.83,1.226C390.635,228.87,390.2,228.554,390.2,228Z" transform="translate(-255.868 -189.623)" fill="#fff"/>
        <path id="Path_105947" data-name="Path 105947" d="M227.858,238.523a1.849,1.849,0,0,1-.2.237c-2.017,1.345-2.175,1.265-4.034-.079a8.365,8.365,0,0,1-2.926-4.073c1.028-1.5,2.1-3.006,3.164-4.469.04-.04.079-.04.158-.04.079.04.237.079.277.158a40.118,40.118,0,0,1,3.559,8.265Z" transform="translate(-153.399 -190.892)" fill="#333"/>
        <path id="Path_105948" data-name="Path 105948" d="M239.4,204.45a9.681,9.681,0,0,1,2.887-3.52,3.09,3.09,0,0,1,2.333-.672,3.574,3.574,0,0,1,.83.316,20.275,20.275,0,0,1-3.085,8.067c-.633-.356-.751-.949-1.068-1.384s-.554-.91-.83-1.345-.633-.91-1.068-1.463Z" transform="translate(-164.704 -172.836)" fill="#333"/>
        <path id="Path_105949" data-name="Path 105949" d="M253.427,206.1a7.532,7.532,0,0,1,1.621,2.808,14.216,14.216,0,0,1,.91,3.717,22.569,22.569,0,0,1-3.52.593c-1.147.158-2.333.356-3.638.554a4.475,4.475,0,0,1,.237-.554,18.929,18.929,0,0,0,4.073-6.486,4.522,4.522,0,0,1,.316-.633Z" transform="translate(-170.387 -176.384)" fill="#333"/>
        <path id="Path_105950" data-name="Path 105950" d="M231.9,228.3a48.547,48.547,0,0,1,6.683.87,6.1,6.1,0,0,1-.4,2.65,8.154,8.154,0,0,1-1.78,3.678c-.4-.593-.554-1.265-.91-1.859-.356-.633-.633-1.226-.989-1.859a16.889,16.889,0,0,0-1.186-1.74c-.4-.554-.87-1.068-1.424-1.74Z" transform="translate(-160.17 -189.801)" fill="#333"/>
        <path id="Path_105951" data-name="Path 105951" d="M236.011,225.946a13.636,13.636,0,0,1,0-6.446,2.339,2.339,0,0,1,.554.237c.83.554,1.661,1.147,2.452,1.74a1.119,1.119,0,0,1,.237,1.621,14.878,14.878,0,0,1-3.045,2.847Z" transform="translate(-162.422 -184.484)" fill="#333"/>
        <path id="Path_105952" data-name="Path 105952" d="M410.373,182.848A16.493,16.493,0,0,1,408.2,190.4c-.316-.672-.593-1.305-.87-1.9-.316-.633-.633-1.226-1.028-1.977a8.457,8.457,0,0,1,1.977-3.243A1.6,1.6,0,0,1,410.373,182.848Z" transform="translate(-265.601 -162.188)" fill="#333"/>
        <path id="Path_105953" data-name="Path 105953" d="M417.7,194.572c-1.621.316-3.2.633-4.9.949a8.373,8.373,0,0,1,.989-1.78c.277-.554.593-1.068.83-1.621.277-.593.475-1.226.751-1.819a9.886,9.886,0,0,1,.633-1.7,11.728,11.728,0,0,1,1.7,5.972Z" transform="translate(-269.531 -165.804)" fill="#333"/>
        <path id="Path_105954" data-name="Path 105954" d="M418.269,209.991a12.622,12.622,0,0,1-1.305,5.734c-.316.04-.316-.237-.4-.435a22.7,22.7,0,0,0-2.729-5.774c-.04-.04,0-.158-.04-.316C415.382,209.319,416.806,209.754,418.269,209.991Z" transform="translate(-270.135 -178.258)" fill="#333"/>
        <path id="Path_105955" data-name="Path 105955" d="M404.015,206.669a16.2,16.2,0,0,1-.04-6.169,5.776,5.776,0,0,1,.593.356c.475.435.949.87,1.424,1.345a1.378,1.378,0,0,1,.2,1.7,12.355,12.355,0,0,1-2.175,2.768Z" transform="translate(-264.028 -172.998)" fill="#333"/>
        <path id="Path_105956" data-name="Path 105956" d="M126.1,219.1Z" transform="translate(-96.21 -184.242)" fill="#333"/>
      </g>
      <path id="Path_105957" data-name="Path 105957" d="M83.046,232.1l14.039.989-5.695,7.237L78.3,238.783Z" transform="translate(-47.335 -140.318)" fill="#fbc100"/>
      <path id="Path_105958" data-name="Path 105958" d="M223.7,71.783q-7.415,7.593-14.869,15.186c-19.931-11.508-40.456-13.011-60.467-1.345-6.881,3.994-6.683,3.559-12.853,9.017l-9.412,4.9C130.252,89.1,138,79.1,149.986,71.586c24.993-15.621,56.551-11.706,73.715.2Z" transform="translate(-76.232 -37.067)" fill="#fbc100"/>
      <path id="Path_105959" data-name="Path 105959" d="M337.9,105.467c4.825-4.548,9.689-9.1,14.514-13.644a11.109,11.109,0,0,0,1.068-1.424c.91.593,1.424.91,2.056,1.345-3.915,4.825-7.909,11.073-11.666,15.937" transform="translate(-204.273 -54.656)" fill="#fbc100"/>
    </g>
  </g>
</svg>
