<?xml version="1.0" encoding="utf-8"?>
<!-- Generator: Adobe Illustrator 28.1.0, SVG Export Plug-In . SVG Version: 6.00 Build 0)  -->
<svg version="1.1" id="Layer_2_00000003793088490156196340000014962157865471128998_"
	 xmlns="http://www.w3.org/2000/svg" xmlns:xlink="http://www.w3.org/1999/xlink" x="0px" y="0px" viewBox="0 0 573.6 481.3"
	 style="enable-background:new 0 0 573.6 481.3;" xml:space="preserve">
<style type="text/css">
	.st0{fill:url(#SVGID_1_);}
	.st1{enable-background:new    ;}
	.st2{fill:#333333;}
	.st3{fill:url(#SVGID_00000008151255535051556120000007750658849679703728_);}
	.st4{fill:none;}
	.st5{fill:url(#SVGID_00000011733140024292942110000016611285005216787339_);}
	.st6{fill:#FFFFFF;}
	.st7{fill:url(#SVGID_00000027579904690239381770000007222242726916372409_);}
	.st8{fill:#D0B12B;}
</style>
<g id="Layer_1-2">
	
		<linearGradient id="SVGID_1_" gradientUnits="userSpaceOnUse" x1="119.8513" y1="252.6594" x2="167.3413" y2="349.6794" gradientTransform="matrix(1 0 0 -1 0 484)">
		<stop  offset="0.11" style="stop-color:#A87D2C"/>
		<stop  offset="0.16" style="stop-color:#B38B2B"/>
		<stop  offset="0.24" style="stop-color:#C09C2B"/>
		<stop  offset="0.33" style="stop-color:#C9A82B"/>
		<stop  offset="0.47" style="stop-color:#CEAF2B"/>
		<stop  offset="0.85" style="stop-color:#D0B12B"/>
		<stop  offset="0.86" style="stop-color:#E2B92B"/>
	</linearGradient>
	<path class="st0" d="M193.1,173.5c-1.4,0-2.7,0.3-4,0.9c-18.3,9.5-36.3,19.4-52.5,32.2c-6.5,5.1-13.1,10.2-19.7,15.3
		c-0.9,0.7-1.7,1.4-2.8,2.4c0.4,0.1,0.6,0.2,0.9,0.3l-35-3.6c0.7-1,1.4-1.9,2-2.8c3.2-4.6,6.4-9.2,9.7-13.9c3-4.2,6.3-8.2,9.9-12.1
		c8-8.6,16.8-16.4,26.3-23.2c0.8-0.6,1.5-1.1,2.5-1.9l7.7-3.3c-0.1,0.1-0.1,0.2-0.2,0.3c1.3,0.4,2.3,0.6,3.2,0.9
		c4.9,1.3,10.1,1.4,15.1,2c1.9,0.2,3.6-0.1,5.4-0.8"/>
	<g class="st1">
		<path class="st2" d="M201.3,471.3c-0.2,0-0.3-0.1-0.3-0.2l-1.6-5.5H197c-0.1,0-0.2,0-0.2,0.1l-1.4,5.3c0,0.1-0.1,0.2-0.3,0.2h-3.3
			c-0.2,0-0.2-0.1-0.2-0.2l3.7-14.5c0-0.1,0.1-0.2,0.3-0.2h7c0.9,0,1.7,0.1,2.4,0.3c0.7,0.2,1.2,0.5,1.6,1s0.7,0.9,0.8,1.5
			c0.1,0.6,0.1,1.2,0,1.9c-0.2,1-0.7,1.8-1.5,2.5s-1.6,1.3-2.7,1.6l2,5.9c0,0.1,0,0.1,0,0.2c0,0.1-0.1,0.1-0.2,0.1H201.3z
			 M200.8,462.9c0.7,0,1.3-0.2,1.9-0.5c0.5-0.3,0.8-0.8,1-1.4c0.1-0.6,0-1-0.3-1.3s-0.9-0.5-1.6-0.5h-3.1c-0.1,0-0.2,0-0.2,0.1
			l-0.9,3.5c0,0.1,0,0.1,0.1,0.1H200.8z"/>
		<path class="st2" d="M216.6,456.6c0-0.1,0.1-0.2,0.3-0.2h11.3c0.2,0,0.2,0.1,0.2,0.2l-0.6,2.4c0,0.1-0.1,0.2-0.3,0.2h-7.6
			c-0.1,0-0.2,0-0.2,0.1l-0.8,3c0,0.1,0,0.1,0.1,0.1h6.3c0.2,0,0.2,0.1,0.2,0.2L225,465c0,0.1-0.1,0.2-0.3,0.2h-6.3
			c-0.1,0-0.2,0-0.2,0.1l-0.8,3.1c0,0.1,0,0.1,0.1,0.1h7.6c0.2,0,0.2,0.1,0.2,0.2l-0.6,2.4c0,0.1-0.1,0.2-0.3,0.2h-11.3
			c-0.2,0-0.2-0.1-0.2-0.2L216.6,456.6z"/>
		<path class="st2" d="M236.4,456.6c0-0.1,0.1-0.2,0.3-0.2h3.1c0.2,0,0.3,0.1,0.4,0.2l3.8,9.4h0.1l2.4-9.4c0-0.1,0.1-0.2,0.3-0.2
			h2.9c0.2,0,0.2,0.1,0.2,0.2l-3.7,14.5c0,0.1-0.1,0.2-0.3,0.2h-3.1c-0.2,0-0.3-0.1-0.4-0.2l-3.8-9.4h-0.1l-2.4,9.4
			c0,0.1-0.1,0.2-0.3,0.2h-2.9c-0.2,0-0.2-0.1-0.2-0.2L236.4,456.6z"/>
	</g>
	<g class="st1">
		<path class="st2" d="M258.6,471.3c-0.2,0-0.2-0.1-0.2-0.2l3-11.7c0-0.1,0-0.1-0.1-0.1h-4.4c-0.2,0-0.2-0.1-0.2-0.2l0.6-2.4
			c0-0.1,0.1-0.2,0.3-0.2h13c0.2,0,0.2,0.1,0.2,0.2l-0.6,2.4c0,0.1-0.1,0.2-0.3,0.2h-4.4c-0.1,0-0.2,0-0.2,0.1l-3,11.7
			c0,0.1-0.1,0.2-0.3,0.2H258.6z"/>
	</g>
	<g class="st1">
		<path class="st2" d="M293.8,456.6c0.1-0.1,0.2-0.2,0.4-0.2h3.3c0.2,0,0.3,0.1,0.3,0.2l2.2,14.5c0,0.1-0.1,0.2-0.2,0.2h-3.4
			c-0.2,0-0.3-0.1-0.3-0.2l-0.3-2.6h-6.2l-1.6,2.6c-0.1,0.1-0.2,0.2-0.4,0.2h-3.4c-0.2,0-0.2-0.1-0.1-0.2L293.8,456.6z M295.4,465.8
			l-0.7-5.2h-0.1l-3.3,5.2H295.4z"/>
		<path class="st2" d="M319.3,467.9c0-0.2-0.1-0.5-0.1-0.7c0-0.2,0-0.5,0.1-0.8c0-0.3,0.1-0.7,0.2-1.1c0.1-0.4,0.2-0.9,0.3-1.5
			s0.3-1.1,0.4-1.5c0.1-0.4,0.2-0.8,0.3-1.1c0.1-0.3,0.2-0.6,0.3-0.8c0.1-0.2,0.3-0.5,0.4-0.7c0.8-1.2,1.8-2.2,3-2.8
			c1.2-0.6,2.6-0.9,4.2-0.9c1.5,0,2.7,0.3,3.6,0.9c0.9,0.6,1.5,1.4,1.7,2.5c0.1,0.1,0,0.2-0.2,0.3l-3.1,1.1c-0.2,0.1-0.3,0-0.3-0.1
			c-0.1-0.5-0.4-0.9-0.7-1.2c-0.4-0.3-0.9-0.5-1.6-0.5c-0.7,0-1.3,0.1-1.8,0.4c-0.5,0.3-0.9,0.7-1.3,1.2c-0.1,0.1-0.2,0.3-0.2,0.4
			c-0.1,0.2-0.2,0.3-0.2,0.6c-0.1,0.2-0.2,0.5-0.3,0.9c-0.1,0.4-0.2,0.8-0.3,1.3c-0.1,0.5-0.2,1-0.3,1.3c-0.1,0.4-0.1,0.6-0.2,0.9
			c0,0.2-0.1,0.4-0.1,0.6c0,0.2,0,0.3,0,0.4c0.1,0.5,0.3,0.9,0.6,1.2c0.4,0.3,0.9,0.4,1.6,0.4c0.7,0,1.4-0.2,1.9-0.5s1-0.7,1.3-1.2
			c0.1-0.1,0.3-0.2,0.4-0.1l2.5,1.1c0.2,0,0.2,0.1,0.1,0.3c-0.8,1.1-1.7,1.9-2.9,2.5c-1.2,0.6-2.5,0.9-4,0.9c-1.6,0-2.8-0.3-3.7-0.9
			C319.9,470.1,319.4,469.1,319.3,467.9z"/>
		<path class="st2" d="M346.9,456.6c0.1-0.1,0.2-0.2,0.4-0.2h3.3c0.2,0,0.3,0.1,0.3,0.2l2.2,14.5c0,0.1-0.1,0.2-0.2,0.2h-3.4
			c-0.2,0-0.3-0.1-0.3-0.2l-0.3-2.6h-6.2l-1.6,2.6c-0.1,0.1-0.2,0.2-0.4,0.2h-3.4c-0.2,0-0.2-0.1-0.1-0.2L346.9,456.6z M348.5,465.8
			l-0.7-5.2h-0.1l-3.3,5.2H348.5z"/>
		<path class="st2" d="M369.9,471.3c-0.2,0-0.3-0.1-0.3-0.2l-1.6-5.5h-2.4c-0.1,0-0.2,0-0.2,0.1l-1.4,5.3c0,0.1-0.1,0.2-0.3,0.2
			h-3.3c-0.2,0-0.2-0.1-0.2-0.2l3.7-14.5c0-0.1,0.1-0.2,0.3-0.2h7c0.9,0,1.7,0.1,2.4,0.3c0.7,0.2,1.2,0.5,1.6,1s0.7,0.9,0.8,1.5
			c0.1,0.6,0.1,1.2,0,1.9c-0.2,1-0.7,1.8-1.5,2.5s-1.6,1.3-2.7,1.6l2,5.9c0,0.1,0,0.1,0,0.2c0,0.1-0.1,0.1-0.2,0.1H369.9z
			 M369.4,462.9c0.7,0,1.3-0.2,1.9-0.5c0.5-0.3,0.8-0.8,1-1.4c0.1-0.6,0-1-0.3-1.3s-0.9-0.5-1.6-0.5h-3.1c-0.1,0-0.2,0-0.2,0.1
			l-0.9,3.5c0,0.1,0,0.1,0.1,0.1H369.4z"/>
	</g>
	<g class="st1">
		<path class="st2" d="M38,297.2l-5.5-3.8c-0.8-0.6-0.4-1.8,0.5-1.8h79c-2.9,8.3-16.7,49.1-20.3,60.2c-0.6,1.8-1.9,2.7-3.8,2.7H69.4
			l5.6-15.2H44.7l-4.3,12.5c-0.6,1.8-1.9,2.7-3.8,2.7H18.3C21.9,343.5,34.1,309.4,38,297.2z M49.1,326.6h30.3l6-17.6
			c0.5-1.4-0.1-2.2-1.9-2.2H51.2c-1,0-1.3,1.2-0.6,1.8l3.6,3.2L49.1,326.6z"/>
		<path class="st2" d="M127.5,297.1l-5.5-3.7c-0.8-0.6-0.4-1.8,0.6-1.8h27.9c-7.6,22.1-11.8,33.7-14.4,41.5l-0.8,0.7
			c-0.6,0.6-1.9,1.6-4.1,3.7c-0.6,0.6-0.3,1.8,0.7,1.8h38.5c-1,2.7-3.2,8.9-4.4,12.5c-0.6,1.8-1.9,2.7-3.8,2.7h-54.6
			C118.8,322,122.9,310.6,127.5,297.1z"/>
		<path class="st2" d="M206.7,349.2l12.3-35.4h21c-1,2.7-3.1,9-5,14.7l-3.8,10.8h25.2c1,0,1.5-0.4,1.7-1.2l10.4-30.2
			c0.4-0.8,0.1-1.2-0.9-1.2h-46.3c0.6-1.7,1.1-3.1,1.7-4.4c0.8-2.4,1.6-4.7,1.9-5.3l-5.8-3.6c-1-0.6-0.4-1.9,0.5-1.9h75.6
			l-16.7,48.5c-2.9,7.8-10.2,14.4-20.5,14.4h-47.6C207.6,354.5,205.7,351.8,206.7,349.2z"/>
		<path class="st2" d="M298.2,331c4.3-12.1,9.1-26.1,11.8-33.9c-1.8-1.3-3.6-2.5-5.7-3.6c-0.8-0.6-0.4-1.9,0.5-1.9h22.5
			c2.9,0,4.8,2.7,3.8,5.3l-6.4,18.2h31.2l8.2-23.5h21.3l-21,60.2c-0.6,1.8-1.9,2.7-3.8,2.7h-18.2l8.3-24.1h-37c-1,0-1.3,1.1-0.7,1.7
			l4.6,4.1c-5,12.6-4.2,18.2-9.1,18.2h-18.4C290.1,353.6,293.8,343.3,298.2,331z"/>
		<path class="st2" d="M399.4,297.1c-1.8-1.3-3.5-2.5-5.6-3.6c-1-0.6-0.5-1.9,0.4-1.9h28l-20.8,60.2c-0.6,1.8-1.9,2.7-3.8,2.7h-18.2
			C383.1,343.8,394.7,311.4,399.4,297.1z"/>
		<path class="st2" d="M437.8,297.1l-5.5-3.7c-0.8-0.6-0.4-1.8,0.6-1.8h27.9c-7.6,22.1-11.8,33.7-14.4,41.5l-0.8,0.7
			c-0.6,0.6-1.9,1.6-4.1,3.7c-0.6,0.6-0.3,1.8,0.7,1.8h38.5c-1,2.7-3.2,8.9-4.4,12.5c-0.6,1.8-1.9,2.7-3.8,2.7h-54.6
			C429.1,322,433.2,310.6,437.8,297.1z"/>
		<path class="st2" d="M488.5,343.1l15.7-46c-0.3-0.4-3-2.2-5.2-3.7c-0.8-0.6-0.4-1.8,0.5-1.8h71.3l-4.3,12.5
			c-0.6,1.7-2.1,2.7-3.8,2.7h-47c-1,0-1.3,1.2-0.6,1.8l4.9,4.4l-1.3,3.7h30.7l-3.5,10.1c-0.6,1.7-2.1,2.7-3.8,2.7H510
			c-1,0-1.3,1.1-0.7,1.7l3.3,3.1l-1.8,5.1h43.6l-4.4,12.5c-0.6,1.8-1.9,2.7-3.8,2.7h-49.7C490.7,354.5,486.5,348.7,488.5,343.1z"/>
	</g>
	<g>
		<path class="st2" d="M53,418.8c0.6-0.5,1.2-1.4,1.6-2.6l4.8-14.9c0.1-0.4,0.4-0.6,0.8-0.6h7.7c0.4,0,0.6,0.2,0.4,0.6l-5.8,17.9
			c-0.9,2.7-2.1,4.7-3.6,6s-3.7,1.9-6.4,1.9H19.8c-2.6,0-4.3-0.6-5-1.9s-0.6-3.3,0.2-6l4.5-13.9c0.1-0.4,0.4-0.6,0.8-0.6H28
			c0.4,0,0.6,0.2,0.4,0.6l-3.5,10.9c-0.4,1.3-0.5,2.1-0.1,2.6c0.3,0.5,1,0.7,2.1,0.7h23.5C51.5,419.5,52.4,419.3,53,418.8z
			 M37.5,398c-0.4,0-0.6-0.2-0.4-0.6l2-6.2c0.1-0.4,0.4-0.6,0.8-0.6h6.3c0.4,0,0.6,0.2,0.4,0.6l-2,6.2c-0.1,0.4-0.4,0.6-0.8,0.6
			H37.5z M47.2,398c-0.4,0-0.6-0.2-0.4-0.6l2-6.2c0.1-0.4,0.4-0.6,0.8-0.6H56c0.4,0,0.6,0.2,0.4,0.6l-2,6.2
			c-0.1,0.4-0.4,0.6-0.8,0.6H47.2z"/>
		<path class="st2" d="M76,426.5c-0.1,0.4-0.4,0.6-0.8,0.6h-7.6c-0.4,0-0.6-0.2-0.4-0.6L80.5,385c0.1-0.4,0.4-0.6,0.8-0.6H89
			c0.4,0,0.6,0.2,0.4,0.6L76,426.5z"/>
		<path class="st2" d="M76.1,440.1c-0.4,0-0.6-0.2-0.4-0.6l2.1-6.4c0.1-0.4,0.4-0.6,0.8-0.6H80c1.7,0,3.1-0.4,4.1-1.3
			c1-0.9,1.8-2.2,2.4-4l8.3-25.8c0.1-0.4,0.4-0.6,0.8-0.6h7.7c0.4,0,0.6,0.2,0.4,0.6l-8.4,26.1c-1.4,4.3-3.4,7.5-6.1,9.6
			s-6.1,3.1-10.2,3.1H76.1L76.1,440.1z"/>
		<path class="st2" d="M116.4,385c0.1-0.4,0.4-0.6,0.8-0.6h7.6c0.4,0,0.6,0.2,0.4,0.6l-10.1,31.2c-0.4,1.3-0.4,2.1-0.1,2.6
			c0.3,0.5,1,0.7,2.1,0.7h1.7c0.8,0,1.4,0.3,1.6,0.9c0.2,0.6,0.1,1.6-0.4,3c-0.5,1.5-1,2.5-1.6,3s-1.3,0.7-2.1,0.7h-6.2
			c-2.6,0-4.3-0.6-5-1.9s-0.6-3.3,0.2-6L116.4,385L116.4,385z"/>
		<path class="st2" d="M131.8,401.3c0.1-0.4,0.4-0.6,0.8-0.6h7.6c0.4,0,0.6,0.2,0.4,0.6l-4.8,14.9c-0.3,1-0.1,1.9,0.6,2.5
			c0.6,0.6,1.7,0.9,3.1,0.9h1.4c0.8,0,1.4,0.3,1.6,0.9c0.2,0.6,0.1,1.5-0.3,2.9c-0.8,2.6-2.1,3.8-3.8,3.8s-2.9-0.2-4-0.6
			s-1.8-1.2-2.1-2.6c-1.1,1.3-2.4,2.2-3.8,2.6c-1.4,0.4-3.3,0.6-5.6,0.6h-6.5c-0.8,0-1.4-0.3-1.6-0.8c-0.2-0.5-0.2-1.5,0.3-2.9
			c0.5-1.4,1-2.4,1.6-3c0.6-0.6,1.3-0.9,2.2-0.9h3.9c1.3,0,2.3-0.4,2.9-1.2c0.6-0.8,1.2-2.1,1.8-4L131.8,401.3L131.8,401.3z
			 M115.3,440.1c-0.4,0-0.6-0.2-0.4-0.6l2-6.2c0.1-0.4,0.4-0.6,0.8-0.6h6.3c0.4,0,0.6,0.2,0.4,0.6l-2,6.2c-0.1,0.4-0.4,0.6-0.8,0.6
			H115.3z M125,440.1c-0.4,0-0.6-0.2-0.4-0.6l2-6.2c0.1-0.4,0.4-0.6,0.8-0.6h6.4c0.4,0,0.6,0.2,0.4,0.6l-2,6.2
			c-0.1,0.4-0.4,0.6-0.8,0.6H125L125,440.1z"/>
		<path class="st2" d="M176.5,427.2c-1.6,0-2.9-0.3-3.7-0.9c-0.8-0.6-1.4-1.4-1.6-2.4c-1,1.3-2.2,2.2-3.5,2.6
			c-1.3,0.5-3.1,0.7-5.1,0.7h-2.5c-1.6,0-2.9-0.3-3.7-0.9c-0.9-0.6-1.4-1.4-1.6-2.4c-1,1.3-2.2,2.2-3.5,2.7
			c-1.3,0.4-3.1,0.7-5.2,0.7h-7.6c-0.8,0-1.4-0.2-1.6-0.7s-0.2-1.4,0.3-2.8c0.5-1.5,1-2.5,1.6-3.1s1.3-0.9,2.2-0.9h4.2
			c1.2,0,2.1-0.3,2.6-0.9c0.5-0.6,1.1-1.7,1.6-3.4l3.1-9.4c0.1-0.4,0.4-0.6,0.8-0.6h7.7c0.4,0,0.6,0.2,0.4,0.6l-3.3,10.3
			c-0.4,1.3-0.3,2.2,0.4,2.7s1.5,0.7,2.5,0.7c0.8,0,1.5-0.1,2-0.2s1-0.4,1.3-0.8c0.3-0.3,0.6-0.8,0.9-1.4c0.2-0.6,0.5-1.3,0.8-2.1
			l3-9.2c0.1-0.4,0.4-0.6,0.8-0.6h7.7c0.4,0,0.6,0.2,0.4,0.6l-3.3,10.3c-0.5,1.4-0.3,2.4,0.4,2.8c0.7,0.4,1.6,0.7,2.7,0.7
			c0.8,0,1.4-0.1,1.9-0.2c0.5-0.2,0.9-0.4,1.2-0.8c0.3-0.4,0.6-0.8,0.8-1.4c0.2-0.6,0.5-1.3,0.7-2.1l4.4-13.7
			c0.1-0.4,0.4-0.6,0.8-0.6h7.7c0.4,0,0.6,0.2,0.4,0.6l-4.8,14.9c-0.3,1-0.1,1.9,0.6,2.5c0.6,0.6,1.7,0.9,3.1,0.9h1.4
			c0.8,0,1.4,0.3,1.6,0.9c0.2,0.6,0.1,1.5-0.3,2.9c-0.8,2.6-2.1,3.8-3.8,3.8s-2.9-0.2-4-0.6s-1.8-1.2-2.1-2.6c-1,1.2-2.1,2-3.4,2.5
			c-1.3,0.4-2.6,0.7-4.1,0.7L176.5,427.2L176.5,427.2z"/>
		<path class="st2" d="M193.6,427.2c-0.8,0-1.4-0.1-1.8-0.4c-0.3-0.3-0.4-0.9-0.1-1.8c0.2-0.5,0.4-1.1,0.7-1.7
			c0.3-0.6,0.6-1.2,1-1.8s0.8-1,1.2-1.4c0.4-0.4,0.9-0.6,1.4-0.6h2.2c1.1,0,1.9-0.2,2.5-0.7s1.2-1.4,1.6-2.6l10.1-31.2
			c0.1-0.4,0.4-0.6,0.8-0.6h7.7c0.4,0,0.6,0.2,0.4,0.6l-11.1,34.2c-0.9,2.7-2.1,4.7-3.6,6s-3.6,1.9-6.3,1.9L193.6,427.2L193.6,427.2
			z"/>
		<path class="st2" d="M224.4,426.5c-0.1,0.4-0.4,0.6-0.8,0.6h-7.6c-0.4,0-0.6-0.2-0.4-0.6l13.4-41.5c0.1-0.4,0.4-0.6,0.8-0.6h7.6
			c0.4,0,0.6,0.2,0.4,0.6L224.4,426.5z"/>
		<path class="st2" d="M258.1,401.3c0.1-0.4,0.4-0.6,0.8-0.6h7.7c0.4,0,0.6,0.2,0.4,0.6l-4.8,14.9c-0.3,1-0.1,1.9,0.5,2.5
			s1.7,0.9,3.1,0.9h1.4c0.8,0,1.4,0.3,1.6,0.9s0.1,1.5-0.3,2.9c-0.8,2.6-2.1,3.8-3.8,3.8c-1.4,0-2.5-0.1-3.5-0.4
			c-0.9-0.3-1.6-0.9-2-1.7l-0.3,1c-1.5,4.8-3.6,8.3-6.2,10.6c-2.6,2.3-6.1,3.4-10.6,3.4h-2.9c-0.4,0-0.6-0.2-0.4-0.6l2.1-6.4
			c0.1-0.4,0.4-0.6,0.8-0.6h1.4c1.1,0,2.1-0.2,2.8-0.5c0.7-0.4,1.4-0.9,1.9-1.6c0.5-0.7,1-1.5,1.4-2.5c0.4-1,0.8-2.2,1.2-3.5
			L258.1,401.3L258.1,401.3z"/>
		<path class="st2" d="M280.3,401.3c0.1-0.4,0.4-0.6,0.8-0.6h7.6c0.4,0,0.6,0.2,0.4,0.6l-4.8,14.9c-0.3,1-0.1,1.9,0.5,2.5
			s1.7,0.9,3.1,0.9h1.5c0.8,0,1.4,0.3,1.6,0.9s0.1,1.5-0.3,2.9c-0.8,2.6-2.1,3.8-3.8,3.8s-2.9-0.2-4-0.6s-1.8-1.2-2.1-2.6
			c-1.1,1.3-2.4,2.2-3.8,2.6c-1.4,0.4-3.3,0.6-5.6,0.6H265c-0.8,0-1.4-0.3-1.6-0.8c-0.2-0.5-0.1-1.5,0.3-2.9c0.5-1.4,1-2.4,1.6-3
			c0.6-0.6,1.3-0.9,2.2-0.9h3.9c1.3,0,2.3-0.4,2.9-1.2c0.6-0.8,1.2-2.1,1.8-4L280.3,401.3L280.3,401.3z M263.8,440.1
			c-0.4,0-0.6-0.2-0.4-0.6l2-6.2c0.1-0.4,0.4-0.6,0.8-0.6h6.3c0.4,0,0.6,0.2,0.4,0.6l-2,6.2c-0.1,0.4-0.4,0.6-0.8,0.6H263.8z
			 M273.5,440.1c-0.4,0-0.6-0.2-0.4-0.6l2-6.2c0.1-0.4,0.4-0.6,0.8-0.6h6.4c0.4,0,0.6,0.2,0.4,0.6l-2,6.2c-0.1,0.4-0.4,0.6-0.8,0.6
			H273.5z"/>
		<path class="st2" d="M287,427.2c-0.8,0-1.4-0.3-1.6-0.9c-0.2-0.6-0.1-1.5,0.3-2.9c0.5-1.4,1-2.4,1.6-3c0.6-0.6,1.3-0.9,2.2-0.9
			h15.6c1,0,1.9-0.1,2.5-0.2s1.3-0.4,1.8-0.9s0.9-1,1.3-1.7s0.7-1.6,1.1-2.7c0.3-0.9,0.5-1.7,0.5-2.5c0-0.8-0.1-1.5-0.4-2.2
			c-0.3-0.6-0.8-1.2-1.5-1.6s-1.6-0.6-2.9-0.6c-1.3,0-2.6,0.3-3.8,0.8c-1.2,0.5-2.4,1.2-3.5,2c-0.4,0.3-0.7,0.3-0.9,0.1l-2.3-4.5
			c-0.3-0.4-0.2-0.7,0.1-0.9c1.9-1.4,4-2.6,6.2-3.6c2.2-1,4.7-1.5,7.6-1.5c2.7,0,4.8,0.4,6.5,1.2c1.6,0.8,2.8,1.9,3.6,3.2
			s1.1,2.9,1,4.7s-0.4,3.7-1.1,5.7c-0.9,2.6-1.8,4.8-2.8,6.4c-1,1.6-2.1,2.9-3.3,3.9s-2.5,1.6-4,1.9c-1.4,0.3-3,0.5-4.7,0.5
			L287,427.2L287,427.2z M294.3,439.9c-0.4,0-0.6-0.2-0.4-0.6l2-6.2c0.1-0.4,0.4-0.6,0.8-0.6h7.8c0.4,0,0.6,0.2,0.4,0.6l-2,6.2
			c-0.1,0.4-0.4,0.6-0.8,0.6H294.3z"/>
		<path class="st2" d="M337.2,385c0.1-0.4,0.4-0.6,0.8-0.6h7.6c0.4,0,0.6,0.2,0.4,0.6L336,416.2c-0.4,1.3-0.5,2.1-0.1,2.6
			c0.3,0.5,1,0.7,2.1,0.7h1.7c0.8,0,1.4,0.3,1.6,0.9c0.2,0.6,0.1,1.6-0.4,3c-0.5,1.5-1,2.5-1.5,3s-1.3,0.7-2.1,0.7h-6.2
			c-2.6,0-4.3-0.6-5-1.9s-0.6-3.3,0.2-6L337.2,385L337.2,385z M339.3,377.5c-0.1-0.5-0.1-1-0.1-1.5c0-0.5,0.1-1.1,0.3-1.8
			c0.2-0.8,0.6-1.5,1.1-2.3c0.5-0.8,1.1-1.4,1.9-2c0.7-0.6,1.6-1.1,2.6-1.5c1-0.4,2.1-0.5,3.3-0.5c1.3,0,2.4,0.2,3.3,0.7
			c0.8,0.5,1.4,1.1,1.7,1.8c0.1,0.2,0,0.4-0.2,0.6l-2.5,2c-0.3,0.2-0.5,0.3-0.6,0.1c-0.6-1-1.4-1.5-2.5-1.5c-0.8,0-1.5,0.2-2.2,0.8
			c-0.7,0.5-1.1,1.2-1.4,2c-0.2,0.8-0.3,1.4,0,2c0.2,0.5,0.5,1,0.9,1.3h6.3c0.2,0,0.3,0.1,0.2,0.4l-0.9,2.8
			c-0.1,0.3-0.3,0.4-0.5,0.4h-14c-0.2,0-0.3-0.1-0.2-0.4l0.9-2.8c0.1-0.3,0.3-0.4,0.5-0.4L339.3,377.5L339.3,377.5z"/>
		<path class="st2" d="M352.6,401.3c0.1-0.4,0.4-0.6,0.8-0.6h7.6c0.4,0,0.6,0.2,0.4,0.6l-4.8,14.9c-0.3,1-0.1,1.9,0.5,2.5
			s1.7,0.9,3.1,0.9h1.5c0.8,0,1.4,0.3,1.6,0.9s0.1,1.5-0.3,2.9c-0.8,2.6-2.1,3.8-3.8,3.8s-2.9-0.2-4-0.6s-1.8-1.2-2.1-2.6
			c-1.1,1.3-2.4,2.2-3.8,2.6c-1.4,0.4-3.3,0.6-5.6,0.6h-6.5c-0.8,0-1.4-0.3-1.6-0.8c-0.2-0.5-0.1-1.5,0.3-2.9c0.5-1.4,1-2.4,1.6-3
			c0.6-0.6,1.3-0.9,2.2-0.9h3.9c1.3,0,2.3-0.4,2.9-1.2c0.6-0.8,1.2-2.1,1.8-4L352.6,401.3L352.6,401.3z M351.2,394.3
			c-0.4,0-0.6-0.2-0.4-0.6l2-6.2c0.1-0.4,0.4-0.6,0.8-0.6h6.3c0.4,0,0.6,0.2,0.4,0.6l-2,6.2c-0.1,0.4-0.4,0.6-0.8,0.6H351.2z
			 M360.9,394.3c-0.4,0-0.6-0.2-0.4-0.6l2-6.2c0.1-0.4,0.4-0.6,0.8-0.6h6.4c0.4,0,0.6,0.2,0.4,0.6l-2,6.2c-0.1,0.4-0.4,0.6-0.8,0.6
			H360.9L360.9,394.3z"/>
		<path class="st2" d="M359.4,427.2c-0.8,0-1.4-0.1-1.8-0.4c-0.3-0.3-0.4-0.9-0.1-1.8c0.2-0.5,0.4-1.1,0.7-1.7s0.6-1.2,1-1.8
			s0.8-1,1.2-1.4c0.4-0.4,0.9-0.6,1.4-0.6h2.2c1,0,1.9-0.2,2.5-0.7c0.6-0.5,1.2-1.4,1.6-2.6l10.1-31.2c0.1-0.4,0.4-0.6,0.8-0.6h7.7
			c0.4,0,0.6,0.2,0.4,0.6l-11.1,34.2c-0.9,2.7-2.1,4.7-3.6,6c-1.5,1.3-3.6,1.9-6.3,1.9L359.4,427.2L359.4,427.2z"/>
		<path class="st2" d="M402.8,440.1c-4.1,0-7.1-0.7-8.9-2.1c-1.8-1.4-2.2-3.8-1.1-7.2c0.6-1.7,1.3-3.2,2.3-4.4s2.1-2.2,3.3-3.1
			c1.3-0.9,2.6-1.5,4.1-2.1c1.5-0.5,2.9-0.9,4.4-1.2c-0.3-4-1.8-7.1-4.5-9.3c-0.3-0.2-0.5-0.5-0.5-0.9c0-0.3,0.1-0.8,0.3-1.5
			l1.3-4.1c0.2-0.5,0.7-1,1.7-1.5c1-0.5,2.2-1,3.7-1.5c1.5-0.4,3.2-0.8,5.1-1.1c1.9-0.3,3.8-0.4,5.8-0.4c2.6,0,4.7,0.2,6.4,0.7
			c1.7,0.5,3,1.2,4,2c0.9,0.9,1.5,1.9,1.7,3.1c0.2,1.2,0,2.5-0.4,3.9c-0.4,1.1-0.9,2.2-1.6,3.2c-0.7,1-1.4,1.9-2.3,2.8
			s-1.7,1.6-2.6,2.3c-0.9,0.7-1.8,1.3-2.7,1.8c0.4,0,0.8,0.1,1.2,0.1c0.4,0,0.8,0,1.2,0h6.7c1.7,0,2.1,1.2,1.3,3.7
			c-0.5,1.4-1,2.4-1.6,3c-0.6,0.6-1.3,0.9-2.2,0.9H419c-1.2,0-2.5-0.1-3.8-0.4s-2.4-0.8-3.2-1.5c-1.2,0.4-2.4,0.7-3.5,1
			c-1.1,0.3-2.1,0.6-2.9,0.9c-0.9,0.3-1.6,0.7-2.2,1.1s-1,1-1.2,1.7c-0.3,0.9-0.1,1.6,0.5,1.9c0.7,0.4,2.1,0.5,4.2,0.5h4.7
			c0.4,0,0.6,0.2,0.4,0.6l-2,6.4c-0.1,0.4-0.4,0.6-0.8,0.6L402.8,440.1L402.8,440.1z M414.5,418c1.7-0.8,3.1-1.9,4.5-3.1
			c1.3-1.2,2.2-2.5,2.7-3.8s0.3-2.3-0.5-3s-2.1-0.9-3.8-0.9c-1.4,0-2.7,0.1-3.9,0.4s-2,0.5-2.4,0.7c1.3,1.2,2.3,2.6,2.9,4.4
			S414.7,416.2,414.5,418L414.5,418z"/>
		<path class="st2" d="M447.8,385c0.1-0.4,0.4-0.6,0.8-0.6h7.7c0.4,0,0.6,0.2,0.4,0.6l-10.1,31.1c-0.3,1.1-0.1,1.9,0.5,2.5
			c0.6,0.6,1.7,0.9,3.2,0.9h1.5c0.8,0,1.4,0.3,1.6,0.9s0.1,1.5-0.3,2.9c-0.8,2.6-2.1,3.8-3.8,3.8s-2.9-0.2-4-0.6s-1.8-1.2-2.1-2.6
			c-1,1.2-2.2,2-3.5,2.5s-3,0.7-5.1,0.7h-5.7c-0.8,0-1.4-0.1-1.8-0.4c-0.3-0.3-0.4-0.9-0.1-1.8c0.2-0.5,0.4-1.1,0.7-1.7
			s0.6-1.2,1-1.8s0.8-1,1.2-1.4c0.4-0.4,0.9-0.6,1.4-0.6h2.2c0.7,0,1.3-0.1,1.8-0.4s0.9-0.6,1.3-1.1c0.3-0.5,0.6-1.1,0.9-1.8
			c0.3-0.7,0.6-1.5,0.9-2.5L447.8,385L447.8,385z"/>
		<path class="st2" d="M463,400.8c0.1-0.4,0.4-0.6,0.8-0.6h7.6c0.4,0,0.6,0.2,0.4,0.6l-0.6,1.9c2.2-0.8,4.5-1.6,7-2.2
			c2.5-0.6,4.9-0.9,7.4-0.9c5.1,0,8.6,1.2,10.5,3.6c1.9,2.4,1.9,6.3,0.2,11.5c-0.1,0.2-0.2,0.5-0.2,0.8s-0.2,0.5-0.3,0.7
			c-0.2,1,0,1.8,0.6,2.4c0.6,0.6,1.7,0.9,3.2,0.9h1.4c0.8,0,1.4,0.3,1.6,0.9s0.1,1.5-0.3,2.9c-0.8,2.6-2.1,3.8-3.8,3.8
			c-1.8,0-3.3-0.3-4.4-0.8c-1.1-0.5-1.9-1.6-2.1-3.2c-1.4,1.6-3.1,2.6-5,3.2s-4.3,0.8-7.2,0.8h-12.1c-0.6,0-1.3,0-2,0
			c-0.7,0-1.3-0.1-1.9-0.2c-0.6-0.1-1.1-0.2-1.6-0.4c-0.5-0.2-0.7-0.4-0.8-0.8c-0.9,0.6-1.8,1-2.8,1.1s-2.1,0.2-3.5,0.2h-5.6
			c-0.8,0-1.4-0.3-1.6-0.8c-0.2-0.5-0.1-1.5,0.3-3c0.5-1.6,1-2.6,1.6-3.1c0.5-0.5,1.3-0.7,2.2-0.7h2.5c0.6,0,1.2-0.1,1.6-0.4
			c0.4-0.3,0.8-0.6,1.1-1.1s0.6-1,0.8-1.7c0.3-0.7,0.5-1.4,0.8-2.2L463,400.8L463,400.8z M481.5,407.2c-2.1,0-4.3,0.3-6.5,0.9
			c-2.2,0.6-4.3,1.2-6.1,2l-2.3,7c-0.1,0.5-0.3,0.9-0.5,1.3c-0.1,0.4-0.3,0.8-0.5,1.2h12.5c1.5,0,2.8,0,3.9-0.1
			c1-0.1,1.9-0.3,2.5-0.6s1.2-0.9,1.6-1.6c0.4-0.7,0.8-1.7,1.2-3c0.4-1.1,0.6-2.1,0.6-3c0-0.9-0.2-1.6-0.6-2.2
			c-0.4-0.6-1.1-1.1-2-1.4C484.4,407.4,483.1,407.2,481.5,407.2L481.5,407.2z M482.4,394.3c-0.4,0-0.6-0.2-0.4-0.6l2-6.2
			c0.1-0.4,0.4-0.6,0.8-0.6h7.8c0.4,0,0.6,0.2,0.4,0.6l-2,6.2c-0.1,0.4-0.4,0.6-0.8,0.6H482.4L482.4,394.3z"/>
		<path class="st2" d="M498.4,427.2c-0.8,0-1.4-0.1-1.8-0.4c-0.3-0.3-0.4-0.9-0.1-1.8c0.2-0.5,0.4-1.1,0.7-1.7s0.6-1.2,1-1.8
			s0.8-1,1.2-1.4c0.4-0.4,0.9-0.6,1.4-0.6h2.2c1,0,1.9-0.2,2.5-0.7c0.6-0.5,1.2-1.4,1.6-2.6l10.1-31.2c0.1-0.4,0.4-0.6,0.8-0.6h7.7
			c0.4,0,0.6,0.2,0.4,0.6l-11.1,34.2c-0.9,2.7-2.1,4.7-3.6,6s-3.6,1.9-6.3,1.9L498.4,427.2L498.4,427.2z"/>
		<path class="st2" d="M529.2,426.5c-0.1,0.4-0.4,0.6-0.8,0.6h-7.6c-0.4,0-0.6-0.2-0.4-0.6l13.4-41.5c0.1-0.4,0.4-0.6,0.8-0.6h7.6
			c0.4,0,0.6,0.2,0.4,0.6L529.2,426.5z"/>
	</g>
	
		<linearGradient id="SVGID_00000048501929120187148480000011706840986214635189_" gradientUnits="userSpaceOnUse" x1="162.22" y1="356.4359" x2="573.5676" y2="356.4359" gradientTransform="matrix(1 0 0 -1 0 484)">
		<stop  offset="0.11" style="stop-color:#A87D2C"/>
		<stop  offset="0.11" style="stop-color:#A97E2B"/>
		<stop  offset="0.15" style="stop-color:#BE932B"/>
		<stop  offset="0.19" style="stop-color:#CEA42B"/>
		<stop  offset="0.25" style="stop-color:#D9B02B"/>
		<stop  offset="0.33" style="stop-color:#E0B72B"/>
		<stop  offset="0.55" style="stop-color:#E2B92B"/>
		<stop  offset="0.85" style="stop-color:#D0B12B"/>
	</linearGradient>
	<path style="fill:url(#SVGID_00000048501929120187148480000011706840986214635189_);" d="M162.3,53.6c0.1-0.4,0.2-1,0.5-1.3
		c0.8-0.7,1.6-1.3,2.4-2c26.6-19.8,55.6-33.8,86.9-42.1c9.2-2.4,18.4-4.3,27.8-5.7c12.7-1.9,25.5-2.6,38.3-2.5
		c7.4,0.1,14.8,0.3,22.2,1c30.3,3,59.4,11.1,87.1,24.9c41.1,20.5,75.3,50.4,101.9,90.5c19.1,28.8,32.2,60.6,39.3,95.4
		c2.1,10.6,3.7,21.2,4.4,32c0.2,2.9,0.4,5.9,0.6,8.8c0,0.7-0.1,1.4-0.1,2c-0.4,0.2-0.6,0.4-0.8,0.4c-54,0-99.1-1.4-153.1-1.6
		c3-0.5,6-1.1,9-1.6c7.5-1.2,6.1-1,13.7-2.2c7-1.1,14-2.1,21-3.2c7-1.1,14-2.2,21-3.3c5.4-0.9,10.9-1.7,16.3-2.5
		c6.5-1,13.1-2.1,19.8-3.1c0.1-0.9,0.3-1.7,0.2-2.5c-0.4-3.8-0.8-7.6-1.5-11.3c-3-18.4-7.6-36.4-14.4-53.6
		c-14.6-36.9-36.2-68-64.7-93.3c-24.4-21.7-51.6-37.7-81.8-47.6c-10.2-3.4-20.6-5.9-31.1-7.9c-7.5-1.4-15.1-2.7-22.7-3.3
		c-9.2-0.8-18.4-1.3-27.6-0.5c-4.8,0.4-9.6,0.5-14.4,1.1c-5.6,0.6-11.1,1.4-16.7,2.4c-12.9,2.3-25.5,5.6-37.9,10.1
		c-15.3,5.5-29.9,12.6-43.9,21.3C163.3,52.7,162.8,53.1,162.3,53.6L162.3,53.6L162.3,53.6z"/>
	<path d="M299.2,235c-0.2-0.1-0.4-0.2-0.6-0.2c-0.1,0-0.1,0.1-0.2,0.2C298.7,235,299,235,299.2,235L299.2,235L299.2,235z"/>
	<path d="M494.4,199c0,0.1,0.1,0.2,0.1,0.2c0-0.1,0.1-0.3,0.1-0.4L494.4,199L494.4,199L494.4,199z"/>
	<path d="M131.8,74.9c-0.3,0-0.5,0-0.8,0c0.1-0.1,0.2-0.2,0.2-0.2C131.5,74.8,131.7,74.9,131.8,74.9C131.9,75,131.8,74.9,131.8,74.9
		L131.8,74.9z"/>
	<g>
		<rect y="457.9" class="st2" width="172.6" height="3.7"/>
		<rect x="25" y="468.4" class="st2" width="147.5" height="3"/>
	</g>
	<g>
		<rect x="389.4" y="457.9" class="st2" width="162.5" height="3.7"/>
		<rect x="389.4" y="468.4" class="st2" width="137.5" height="3"/>
	</g>
	<g>
		<path class="st4" d="M292.4,247.9c0-0.1-0.1-0.3-0.1-0.5 M461.4,128.8c-0.5-0.8-0.9-1.7-1.4-2.6c-5.1-9.3-11.4-18.4-18.8-27.1
			c-0.7-0.8-1.4-1.6-2-2.4c-1.4-1.6-2.8-3.1-4.2-4.7c-1.5-1.6-2.9-3.1-4.5-4.6c-1.5-1.5-3.1-3-4.6-4.5c0,0,0,0,0,0
			c-2.4-2.2-4.8-4.4-7.4-6.5c-31.2-26.2-73.7-45.3-124-48.1c-45.4-2.5-88.9,8.8-124.6,30.5c-1.9,1.2-3.8,2.3-5.6,3.6
			c-4.6,3-9.2,6.2-13.5,9.6c-1.7,1.4-3.4,2.7-5.1,4.2c-2.5,2.1-5,4.3-7.4,6.5c-1.6,1.5-3.2,3-4.7,4.6c-12.4,12.3-23,26.3-31.3,41.7
			c-5.2,9.6-9.2,19.3-12.3,29h11.1c2.4-7.1,5.1-14.2,7.5-21.5c0.4,0.1,0.9,0.2,1.3,0.3c0.8,0.2,1.7,0.4,2.5,0.6
			c0.8,0.2,1.6,0.4,2.4,0.5s1.5,0.4,2.3,0.5c1.9,0.4,3.7,0.8,5.5,1.2c1.4,0.3,2.9,0.6,4.3,1c1.2-2.3,2.1-4.3,3.2-6.5
			c-4.8-3.1-9.3-6.1-13.9-9.1c3.2-5.1,6.7-10.1,10.3-14.8c1.6-2,3.2-4,4.8-6c2.8-3.2,5.6-6.4,8.6-9.4c0.6-0.6,1.2-1.2,1.8-1.8
			c9.7-9.6,20.6-18.2,33-25.8c1.7,1.6,3.4,3.2,5.1,4.7c0.8,0.8,1.6,1.5,2.4,2.2c1.4,1.3,2.9,2.7,4.2,3.9c6.3-1.6,7.3-4.8,4.2-9.3
			c-0.1-0.2-0.3-0.4-0.4-0.7c-0.3-0.6-0.6-1.3-0.8-2c-0.2-0.5-0.5-1.1-0.8-1.6c-1.6-2.4-1.4-3.9,0.1-5.2c0.6-0.5,1.5-1,2.5-1.5
			c1.1-0.5,2.2-1,3.3-1.5c16.6-7.6,34-13.4,52.6-16.2c9.7-1.4,19.5-2.2,28.8-3.3c0,0.1,0.1,0.2,0.1,0.2c0.2,0.3,0.3,0.5,0.4,0.7
			c0.1,0.1,0.1,0.2,0.2,0.3c0.1,0.1,0.1,0.2,0.2,0.3c0,0.1,0.1,0.1,0.1,0.2c0,0.1,0.1,0.2,0.1,0.3c0.2,0.8,0.4,1.6,0.5,2.4
			c0.5,2.4,1.1,4.8,1.4,7.2c0.2,1.7,0.6,2.9,1.8,3.6c0.2,0.1,0.5,0.3,0.8,0.4c0.6,0.2,1.4,0.3,2.3,0.3c3.1,0,4.3-1,4.8-3.1
			c0.1-0.3,0.1-0.6,0.1-1c0-0.3,0.1-0.7,0.1-1c0-0.3,0.1-0.7,0.1-1c0.1-0.7,0.2-1.4,0.3-2c0.3-1.3,0.6-2.7,1.2-3.9
			c0.1-0.3,0.4-0.6,0.6-1c0.1-0.1,0.1-0.2,0.2-0.2c0.9-0.9,2.2-1.7,3.1-1.6c30.6,1.7,59.2,9.5,85.6,23.6c2.8,1.5,3.2,2.9,1.7,5.3
			c-2,3.4-3.7,7-5.8,10.9c0.5,0.4,1,0.7,1.6,1.1c1.6,1.1,3.4,2.3,6.1,4.1c3.5-4.4,7-8.7,10.4-12.9c1.5,1,2.9,2,4.3,3
			c1.4,1,2.8,2,4.2,3.1h0c10.3,7.7,19.4,15.9,27.3,24.7c5.3,5.9,5.3,5.9,0,0c3.7,4.1,7.1,8.4,10.4,12.8c2.8,3.8,5.4,7.7,7.8,11.7
			c0.4,0.7,0.8,1.4,1.2,2c0.2,0.4,0.5,0.8,0.7,1.1c0.1,0.2,0.3,0.5,0.4,0.7c0.2,0.4,0.4,0.8,0.6,1.1c0.2,0.5,0.4,0.9,0.5,1.3
			c0,0.1,0.1,0.2,0.1,0.3c0.5,1.7-0.1,2.9-1.8,4.6c-0.3,0.3-0.6,0.6-1,0.9c-0.4,0.3-0.8,0.6-1.2,1s-0.9,0.7-1.4,1.1
			c-0.3,0.2-0.5,0.4-0.8,0.6c-1.3,1-2.7,1.8-4.2,2.8l0,0c0.4,0.6,0.9,1.2,1.2,1.8l0,0c0.4,0.6,0.8,1.1,1.1,1.6l0,0
			c0.4,0.5,0.7,1,1,1.5s0.7,1,1,1.5h0c1.9-0.6,3.7-1.3,5.5-1.9c4.6-1.6,9-3.2,13.6-4.7c0.9-0.3,1.8-0.6,2.8-1l0,0v0
			C465.6,137.3,463.6,133,461.4,128.8L461.4,128.8z"/>
		
			<linearGradient id="SVGID_00000109010463325118832420000008591385313225364415_" gradientUnits="userSpaceOnUse" x1="89.72" y1="390.9506" x2="467.31" y2="390.9506" gradientTransform="matrix(1 0 0 -1 0 484)">
			<stop  offset="0" style="stop-color:#2D3330"/>
			<stop  offset="0.1" style="stop-color:#363C3A"/>
			<stop  offset="0.27" style="stop-color:#505657"/>
			<stop  offset="0.48" style="stop-color:#798084"/>
			<stop  offset="0.52" style="stop-color:#80878C"/>
			<stop  offset="0.56" style="stop-color:#64696D"/>
			<stop  offset="0.61" style="stop-color:#45494C"/>
			<stop  offset="0.67" style="stop-color:#2C2E30"/>
			<stop  offset="0.73" style="stop-color:#18191A"/>
			<stop  offset="0.8" style="stop-color:#0A0B0B"/>
			<stop  offset="0.88" style="stop-color:#020202"/>
			<stop  offset="1" style="stop-color:#000000"/>
		</linearGradient>
		<path style="fill:url(#SVGID_00000109010463325118832420000008591385313225364415_);" d="M467.3,141.5c-7.4,2.6-14.4,5-21.9,7.6
			c-1.4-2.1-2.7-3.9-4.4-6.5c1.5-1,2.9-1.8,4.2-2.8c7.9-6.2,7.8-6.2,2.7-14.7c-13-21.5-30.5-39.5-54-55.4
			c-3.5,4.3-6.9,8.5-10.4,12.9c-3.6-2.4-5.5-3.7-7.7-5.2c2-3.8,3.7-7.4,5.8-10.9c1.5-2.5,1-3.8-1.7-5.3
			c-26.4-14.1-54.9-22-85.6-23.6c-1.3-0.1-3.5,1.6-4,2.8c-1.1,2.5-1.5,5.3-1.8,8c-0.3,2.9-1.4,4.1-4.9,4.1c-3.7,0-4.4-1.6-4.8-4.3
			c-0.5-3.2-1.3-6.4-2-9.5c-0.1-0.3-0.4-0.6-1.1-1.9c-9.3,1-19.1,1.8-28.8,3.3c-19.8,2.9-38.2,9.3-55.9,17.7c-3.5,1.7-5,3.4-2.7,6.7
			c0.9,1.3,1.2,2.9,2,4.2c3,4.5,2.1,7.6-4.2,9.3c-3.7-3.4-7.6-7.1-11.7-10.9c-24.6,15.3-43.8,34.4-58.5,57.8c4.6,3,9.1,6,13.9,9.1
			c-1.1,2.2-2.1,4.2-3.2,6.5c-5.8-1.3-11.3-2.6-18.3-4.1c-2.4,7.3-5.1,14.4-7.5,21.5H89.7c3.1-9.7,7.2-19.4,12.3-29
			C137.1,64.2,212.7,23.8,294.4,28.4C381.5,33.3,445,86.8,467.3,141.5L467.3,141.5z"/>
		<path class="st4" d="M292.4,247.9c0-0.2-0.1-0.3-0.1-0.5"/>
	</g>
	<g>
		<path class="st6" d="M333.7,195.1c1.6-0.3,3.2-0.7,4.9-0.9c8.1-1.3,16.1-2.6,24.2-3.8c3.5-0.5,7-0.9,10.5-1c3.1-0.1,4,0.9,3.6,4
			c0,0.3-0.1,0.6-0.2,1c-0.8,4.6-1.6,9.1-2.4,13.7c-0.6,3.8-2.8,6.4-6.3,8c-1.2,0.6-2.5,0.9-3.8,1.3c-15,4.1-30.1,8.1-45.1,12.1
			c-6.5,1.8-13,3.5-19.5,5.3c-0.5,0.1-0.9,0.5-1.3,0.8c-0.2,0-0.5,0-0.8,0c0.1-0.1,0.2-0.2,0.2-0.1c0.2,0.1,0.4,0.1,0.5,0.2
			c0.1-0.1,0.2-0.1,0.3-0.1c10.4-1.9,20.9-3.7,31.3-5.7c12.1-2.3,24.3-4.8,36.4-7.2c2.9-0.6,5.8-1.3,8.8-1.8
			c3.2-0.5,4.9-2.4,5.2-5.5c0-0.1,0-0.2,0-0.3c1.9-10.1,3.8-20.2,5.7-30.3c0.1-0.5-0.1-1-0.1-1.5c-0.5,0-0.9,0-1.2,0.1
			c-10,2.2-20.1,4.4-30.1,6.6c-6.6,1.5-13.1,3-19.7,4.5C334.4,194.3,334,194.6,333.7,195.1c-0.6-0.1-1.2-0.1-1.8-0.1
			c0,0.1,0,0.2,0,0.3C332.5,195.2,333.1,195.1,333.7,195.1L333.7,195.1z"/>
		<path class="st2" d="M125.7,223.6L125.7,223.6L125.7,223.6L125.7,223.6L125.7,223.6L125.7,223.6z M190.8,173.1l2.3,0.4h0.2
			c3.3,0.1,6.6,0.1,9.9,0.1c12,0.1,23.9-0.1,35.8-0.8c2.1-0.1,3.7-0.8,5.2-2.4c3.2-3.5,6.6-6.9,10-10.2c5.3-5.2,10.7-10.2,16.6-14.8
			c3-2.3,6.3-4,10-5.1c1.7-0.5,3.4-1,5.1-1.4c6.6-1.6,13.3-2.2,20-2.9c9.8-1,19.5-0.2,29.1,1.3c5.3,0.8,10.6,2,15.9,3.4
			c19.9,5.1,39.8,10.3,59.6,15.6c4.2,1.1,8.2,2.6,12.3,3.9c2,0.7,3.4,2,4.1,4.1c0.9,2.6,1.9,5.2,2.7,7.8c0.8,2.3,1.4,4.6,2.3,7.4
			c0.4-2.2-0.2-3.8-0.4-5.3c-0.8-4.2-1.7-8.4-2.5-12.7c-0.4-1.9-1.6-3.1-3.4-3.7c-2.3-0.7-4.6-1.5-7-2.1
			c-19.5-5.1-39.1-10.2-58.7-15.3c-10.1-2.6-20.3-4.6-30.6-5.8c-6.3-0.7-12.5-1.2-18.8-1.6c-10.4-0.7-20.8-1.4-31.1-1.7
			c-19-0.6-38-0.5-57,1c-10,0.8-20,1.8-30,3.5c-5.2,0.9-10.4,2.1-15.2,4.4c-4.6,2.1-9.3,4.1-13.9,6.2c-12.2,5.6-24.4,11.4-36.1,18.3
			c-1,0.6-2.2,1.1-3.3,1.4c-19.5,6.4-37.4,15.8-54.4,27.2c-4.1,2.8-8.1,5.8-11.6,9.3c-1.7,1.7-3.3,3.6-4.8,5.5
			c-0.9,1.2-1.7,2.6-2.2,4.1c-1,2.8,0,5,2.6,6.4c0.7,0.4,1.4,0.6,2.2,0.8c1.7,0.5,3.4,0.9,5.1,1.5c0.7,0.2,1.6,0.1,2,1.1
			c-0.4,0.8-0.8,1.7-1.2,2.6c-1.9,4.3-3.9,8.6-5.8,13c-0.7,1.6-1.2,3.3-1.7,5c-0.5,2.2-0.1,3,2,3.8c2.2,0.8,4.4,1.4,6.6,2.1
			c1.1,0.3,2.2,0.4,3.6,1.1c-1.8,0.4-3.3,0.6-4.6,1c-1.9,0.6-3.8,1.1-5.6,2c-2.4,1.2-2.4,3-0.2,4.5c0.5,0.3,0.9,0.6,1.5,0.8
			c1.7,0.6,3.3,1.4,5,1.7c3.8,0.8,7.6,1.6,11.4,2.2c8.9,1.5,17.9,3,26.8,4.3c10.1,1.5,20.2,2.7,30.3,3.6c9.4,0.9,18.8,1.4,28.1,1.6
			c8.9,0.2,17.9,0.1,26.9-0.2c10.3-0.4,20.6-1,30.8-1.6c3.3-0.2,6.6-0.5,9.9-0.9c5.5-0.5,11-1.1,16.5-1.7c4.7-0.5,9.4-1,14.2-1.6
			c4.4-0.5,8.8-1.1,13.1-1.7c5.9-0.8,11.9-1.5,17.8-2.3c5.7-0.8,11.4-1.6,17.1-2.4c5.5-0.8,11-1.5,16.4-2.3c7-1,14-2,21-3
			c7-1,14-1.9,21-2.9c7.1-1,14.2-2.1,21.3-3c7.2-1,14.5-1.9,21.7-2.9c7.6-1,15.1-2.1,22.7-3.1c8.6-1.1,17.3-2.4,25.9-4.1
			c0.4-0.1,0.9-0.1,0.9-0.9c-2.6-0.1-5.2-0.1-7.9-0.2c-6.5-0.2-13-0.4-19.6-0.6c-0.7,0-1.6,0.2-2.1-0.7c0.3-0.6,0.6-1.1,1-1.7
			c1.8-2.8,3.1-5.9,4-9.1c3-10.3,3.3-20.7,0.9-31.1c-1-4.3-2.5-8.5-4.9-12.3c-1.6-2.6-3.5-4.9-6-6.6c-4.2-2.8-8.5-2.8-12.8-0.1
			c-2,1.2-3.6,2.9-5,4.8c-1.7,2.3-3,4.9-4.1,7.6c-2.9,7.4-3.8,15.2-3.5,23.1c0.1,4.5,0.3,9.1,0.3,13.6c0,4-0.6,4.8-4.6,5.5
			c0,0-0.1,0-0.1,0c-0.4,0.1-0.7,0.1-1.1,0.2c-8.6,1.6-17.2,3.2-25.9,4.5c-8.7,1.4-17.5,2.4-26.3,3.6c-9.1,1.2-18.2,2.5-27.3,3.7
			c-10.5,1.5-21,3.1-31.4,5.2c-0.8,0.2-1.7,0.1-2.6,0.2c0-0.4,0-0.7,0-0.9c0.1-0.3,0.1-0.6,0.3-1c2.8-7.9,3.6-15.9,2.5-24.2
			c-0.8-6.8-2.9-13.2-6.6-18.9c-2.1-3.3-4.7-6.1-8-8.4c-6.4-4.4-14.6-4.5-21.2-0.1c-2.5,1.7-4.6,3.7-6.5,6.1c-2.3,3-4.1,6.3-5.4,9.8
			c-2.1,5.5-3.2,11.3-3.2,17.2c0,1.3,0,2.6,0,3.8c0.1,4.4,0.2,8.7,0.2,13.1c0,2.2-0.1,4.4-0.3,6.6c-0.1,0.9-0.3,1.6-0.7,2.2
			c-0.7,1.1-1.8,1.7-3.3,2c-1.7,0.3-3.5,0.5-5.2,0.8c-7.9,1.2-15.8,2-23.8,2.2c-13.6,0.4-27.2-0.1-40.8-0.7
			c-8.1-0.4-16.1-1.1-24.2-1.7c-5.7-0.4-11.5-1-17.2-1.5c-0.7-0.1-1.4-0.4-2.2-0.6c1.1-2.2,11.3-15.1,14.1-17.9
			c1.3,0,2.7-0.2,4.3,0.5c0.8,1.6,1.7,3.2,2.5,4.9c0.8,1.6,1.5,3.2,2.4,4.8c0.9,1.6,1.5,3.4,3,5.1c0.3-0.8,0.6-1.3,0.6-1.7
			c0-2.1,0.1-4.2-0.1-6.3c-0.2-2.6,0.8-4.3,3.5-5.3c2.1-0.8,4.3-0.9,6.5-0.9c10.1,0.2,20.1,0.6,30.2,0.8c3.3,0.1,6.6,0.1,9.9,0.1
			c1.8,0,3.5,0.3,5.1,1.1c1.4,0.7,1.9,1.9,1.2,3.3c-0.3,0.7-0.8,1.4-1.1,2c-1.5,2.6-3.1,5.1-4.6,7.7c-0.2,0.4-0.8,0.8-0.4,1.5
			c0.3-0.2,0.6-0.3,0.8-0.5c3.2-3.8,6.4-7.6,9.5-11.5c0.6-0.7,0.9-1.5,1.4-2.2c0.6-1,0.6-1.9-0.2-2.8c-1.3-1.4-2.5-2.8-3.9-4
			c-4.7-4.1-4.7-4.1-10.9-4.2c-9.7-0.2-19.5-0.4-29.2-0.7c-9.4-0.3-18.8-0.6-28.2-0.9c-0.7,0-1.3-0.1-1.9-0.1
			c-0.2-0.6-0.4-1.1-0.6-1.6c-0.8,1.1-1.8,1.5-3.1,1.4c-2.3-0.2-4.6-0.2-6.9-0.4c-0.2,0-0.4-0.1-0.6-0.1l-34.9-3.6
			c-1-0.1-2-0.2-3.1-0.3c0.2-0.8,0.2-1.4,0.4-2.1c2.6-9.2,6.1-18,10.8-26.3c1.9-3.4,4.1-6.5,6.7-9.5c1.3-1.4,2.7-2.6,4.4-3.4
			c9-4.6,18.2-8.6,27.5-12.4c0.6-0.2,1.2-0.6,1.9-0.6c0.6,0,1.1,0.4,2,0.7c0,0-0.1,0.1-0.1,0.1l7.7-3.3c0.9-1,1.9-1.3,2.8-1.8
			c10.9-5.7,22-10.8,33.2-15.8c0.5-0.2,1-0.4,1.5-0.7c7.7-3.3,7.7-3.4,15.9-3.7c10.6-0.4,21.2-0.3,31.8,0.1c1,0,1.9,0.1,3.3,0.2
			c-0.8,1.1-1.8,1.2-2.7,1.4c-6.7,2.2-13.4,4.4-20.1,6.6c-14,4.7-27.9,9.9-41.5,15.6c-0.2,0.1-3.9,1.1-4.1,1.1 M200.4,136.4
			c35.2-3.3,70.4-4.6,105.7-1.5c-2.7,0.3-5.4,0.6-8,0.9c-8.2,0.9-16.4,2.1-24.4,4.5c-1.2,0.4-2.3,0.4-3.6,0.3
			c-5.9-0.7-11.8-1.6-17.8-2c-6.9-0.5-13.9-0.7-20.9-0.8c-10.2-0.2-20.4-0.4-30.5-0.6c-0.6,0-1.3-0.1-1.9-0.2c0-0.1,0-0.3,0-0.4
			C199.4,136.6,199.9,136.4,200.4,136.4L200.4,136.4z M82.4,188.8c2.3-1.5,4.6-3.1,7.2-4c0.2,0.2,0.3,0.3,0.3,0.4
			c0,0.1,0,0.2-0.1,0.3c-2.6,4.1-5.1,8.2-7.7,12.3c0,0.1-0.2,0-0.4,0.1C82,194.9,82.2,192,82.4,188.8z M60.3,217.4
			c-0.8-0.2-1.5-0.4-2.2-0.7c-1.6-0.7-2.4-2-2.1-3.7c0.2-1.1,0.5-2.2,1-3.1c1.2-2.5,2.8-4.8,4.8-6.6c5.1-4.6,10.7-8.5,16.6-12
			c0.1,0,0.2,0,0.6,0.1c-0.7,0.7-1.2,1.4-1.7,1.9c-1.7,1.9-3.6,3.6-5.2,5.6c-2.1,2.6-1.6,6.3,0.9,8.6c1,0.9,1.9,1,3,0.2
			c0.4-0.3,0.8-0.7,1.3-1.1c0.4-0.4,0.8-0.7,1.4-1.2c0.2,0.5,0.3,0.6,0.3,0.7c-1.2,4.6-2.3,9.2-3.5,13.8c-0.9,0.7-1.9,0.3-2.9,0.1
			C68.5,219.2,64.4,218.3,60.3,217.4L60.3,217.4z M78.3,249c-4.9-0.5-9.5-1.3-14.2-2.4c-1.3-0.3-2.5-0.8-3.8-1.3
			c-1.5-0.6-2.2-1.8-2-3.4c0-0.4,0-0.9,0.1-1.3c0.6-3.1,1.6-6,3-8.7c1.2-2.3,3.1-3.5,5.7-3.2c1.8,0.1,3.5,0.4,5,0.7
			c0.9,1.2,0.7,2.3,0.8,3.4c0.4,3.4,0.9,6.8,1.4,10.2c0.1,0.4,0.3,0.7,0.7,1.6c0.5-1.1,0.8-1.8,1-2.4c0.5-1.9,1-3.8,1.5-5.8
			c0.6-2.4,2-3.8,4.4-4.5c2.9-0.8,5.7-0.6,8.4,0.3C89.4,234.3,81,246,78.3,249z M272.2,241.1c-1.2,3.4-3,6.4-5.3,9.1
			c-3.2,3.6-7.2,5.8-12.1,6.2c-2.5,0.2-4.8-0.4-7-1.5c-3.2-1.6-5.7-4.1-7.7-7.1c-3.5-5-5.2-10.6-5.7-16.6l0,0c0-0.2,0-0.3,0-0.5
			c-0.1-0.8-0.1-1.5,0-2.3c0-0.4,0-0.9,0-1.3c-0.2-6.1,1.1-11.9,3.9-17.2c2.2-4.1,5.2-7.4,9.1-9.9c3-1.9,6.1-2.3,9.5-1.6
			c4.6,1.1,8.3,3.6,11.1,7.3c3.2,4.2,5.1,9,6,14.2C275.3,227.1,274.7,234.2,272.2,241.1L272.2,241.1z M423,231.9
			c-3.1,3.4-9.1,4.5-12.8-0.2l0,0c-1-0.8-2-1.6-2.1-3c-0.7-0.1-0.9-0.8-1.2-1.3c-2.2-4-3.5-8.4-3.9-12.9c-0.5-5.5-0.6-11,0.5-16.5
			c0.7-3.3,1.7-6.4,3.2-9.4c1.2-2.3,2.8-4.2,4.6-6c2.5-2.4,5.2-2.6,8.2-1.2c2.4,1.1,4.1,2.9,5.6,5c2,3,3.3,6.3,4.1,9.7
			c2,8.3,2,16.6-0.4,24.9c-0.7,2.3-1.6,4.6-2.7,6.7C425.3,229.2,424.2,230.6,423,231.9L423,231.9z"/>
		<path class="st2" d="M406.8,159.7c-5.8-0.5-11.7-0.9-17.5-1.5c-2-0.2-3.9-0.6-5.8-1.4c-12.6-5.4-25.5-10.1-38.5-14.4
			c-6.4-2.1-12.9-3.1-19.5-3.1c-10.4-0.1-20.8,0.6-31.1,1.7c-6.8,0.7-12.8,3.3-18.1,7.5c-7.9,6.2-14.5,13.6-20.3,21.7
			c-0.4,0.6-0.7,1.3-1.2,2.2c0.5,0.5,0.7,0.8,1,0.9c0.4,0.2,0.8,0.4,1.3,0.4c1.5,0.1,3.1,0.1,4.6,0.1c4.2-0.2,8.4-0.4,12.6-0.8
			c9.7-0.8,19.4-1.7,29.1-2.6c8-0.8,16-2.2,23.9-3.8c11-2.2,22-5,32.8-7.9c2.8-0.8,5.6-1.3,8.4-2c3,1.2,5.9,2.4,8.9,3.6
			c0.9,0.4,1.8,0.9,2.6,1.4c0.4,0.2,0.6,0.6,0.9,0.9c-0.5,1.6-1.8,2.4-3,3c-2.6,1.4-5.2,2.9-8,4c-10.9,4.6-22.2,8-33.7,10.7
			c-11.2,2.6-22.5,4.6-33.8,6.4c-5.5,0.9-11,0.9-16.4-0.4c-5.7-1.4-11.3-3.1-16.8-5c-0.9-0.3-1.8-0.6-2.7-0.9
			c0.3,0.6,0.7,0.9,1.2,1.2c6.3,3.3,12.8,6,19.8,7.4c3.5,0.7,7,1.3,10.5,0.9c3.3-0.4,6.6-0.8,9.9-1.4c8.6-1.6,17.1-3.3,25.7-5.1
			c9.7-2.1,19.4-4.5,28.8-7.8c8.8-3.1,17.3-6.6,25.2-11.7c1.6-1.1,3.5-1.5,5.3-1.7c4.5-0.5,9-1,13.5-1.4c1.5-0.1,3.1-0.1,4.9-1.1
			C409.3,159.7,408,159.8,406.8,159.7L406.8,159.7z M329.1,161.6c-8.4,1.7-16.9,3.4-25.5,4.2c-9.7,0.9-19.3,1.8-29,2.6
			c-3.3,0.3-6.6,0.4-9.9,0.6c-0.5,0-1-0.1-1.5-0.1c-0.3-0.9,0.2-1.2,0.5-1.6c4.8-6.1,10.2-11.6,16.4-16.2c1.6-1.2,3.1-1.6,5.2-1.1
			c13,2.8,26.1,5.6,39,9c1.9,0.5,3.8,1.1,6.1,1.7C329.8,161.1,329.5,161.5,329.1,161.6L329.1,161.6z"/>
		<path class="st2" d="M221,182.8c-0.3,1.2-1.5,1.5-2.4,2.1c-10.8,7.5-21.4,15.2-31.8,23.3c-2.5,2-5,4-7.6,6
			c-0.6-0.9,0.3-1.2,0.5-1.7c0.2-0.5,0.5-0.9,0.7-1.3c-0.4-0.8-1-0.7-1.5-0.6c-2.1,0.1-4.2,0.3-6.3,0.4c-3.3,0.3-6.6,0.4-9.8,0.3
			c-1.7-2-0.7-4.3-1.1-6.3c-1.3-0.1-2.3,0.8-3.3,1.3c-9.6,5.3-19.1,10.6-28.7,15.9c-0.9,0.5-1.7,1.1-2.6,1.4c-0.4,0.2-1,0-1.6-0.1
			c0,0,0,0,0,0c0.9-0.5,1.9-1,2.8-1.6c9.4-5.9,18.8-12,28.2-17.9c16.9-10.5,35.2-18.2,54.1-24.4c1-0.3,2-0.8,3-1.2l0,0
			c-0.2,0.4-0.3,0.9-0.6,1c-0.9,0.5-1.8,0.9-2.7,1.3c-11.3,5-22.5,10.2-33.5,15.8c-0.9,0.5-2.1,0.7-2.7,1.9
			c3.4-0.4,6.8-0.8,10.2-1.1c3.7-0.4,7.5-0.8,11.2-1.1c1.4-0.1,2.5-0.6,3.7-1.3c6.2-3.8,12.5-7.4,18.8-11.1
			C219.2,183.4,219.9,182.7,221,182.8L221,182.8L221,182.8z"/>
		<path class="st2" d="M298.5,235.5c0.4-0.3,0.9-0.7,1.3-0.8c6.5-1.8,13-3.6,19.5-5.3c15-4.1,30.1-8.1,45.1-12.1
			c1.3-0.3,2.6-0.7,3.8-1.3c3.4-1.6,5.6-4.2,6.3-8c0.8-4.6,1.6-9.1,2.4-13.7c0.1-0.3,0.1-0.6,0.2-1c0.3-3-0.5-4.1-3.6-4
			c-3.5,0.2-7.1,0.5-10.5,1c-8.1,1.2-16.2,2.5-24.2,3.8c-1.6,0.3-3.2,0.6-4.9,0.9h0c0.3-0.5,0.7-0.8,1.3-0.9
			c6.6-1.5,13.1-3,19.7-4.5c10-2.2,20-4.4,30.1-6.6c0.3-0.1,0.7,0,1.2-0.1c0,0.5,0.2,1.1,0.1,1.5c-1.9,10.1-3.8,20.2-5.7,30.3
			c0,0.1,0,0.2,0,0.3c-0.3,3.2-2,5-5.2,5.5c-2.9,0.5-5.8,1.3-8.8,1.8c-12.1,2.4-24.2,4.9-36.4,7.2c-10.4,2-20.9,3.8-31.3,5.7
			C298.6,235.4,298.5,235.5,298.5,235.5L298.5,235.5L298.5,235.5z"/>
		<path d="M221,182.9c0.5-0.6,1.1-1.1,1.6-1.7l0,0.1C222.5,182.5,222.3,182.6,221,182.9L221,182.9L221,182.9z"/>
		<path d="M333.7,195.1c-0.6,0.1-1.2,0.1-1.8,0.1c0-0.1,0-0.2,0-0.3C332.5,195,333.1,195.1,333.7,195.1
			C333.7,195.1,333.7,195.1,333.7,195.1L333.7,195.1z"/>
		<path d="M213.9,178.5c0.4,0,0.9-0.1,1.3-0.1c0,0.1,0,0.1,0,0.2C214.7,178.6,214.3,178.6,213.9,178.5L213.9,178.5L213.9,178.5z"/>
		<path d="M222.6,181.2c0.1,0.1,0.1,0.2,0.2,0.2c0.1,0,0.1-0.1,0.2-0.1C222.9,181.3,222.7,181.3,222.6,181.2L222.6,181.2z"/>
		<path class="st2" d="M408.3,228.7c-0.2-0.7-0.4-1.4-0.7-2.1c-0.6-1.6-1.3-3.2-2-4.7c2-3.7,3.8-7.2,5.6-10.7c0-0.1,0.2-0.1,0.3-0.1
			c2.2,3.1,6.3,15.7,6.5,20.2c-1,1.1-2.2,2-3.6,2.4c-1.7-0.3-2.5-2-4.2-2l0,0c0.1-1.6-0.8-2.4-2.1-3.1L408.3,228.7L408.3,228.7z"/>
		<path class="st6" d="M390.2,228c1.2,0.7,2.2,1.6,2.1,3.1C391.3,230.2,390.2,229.4,390.2,228z"/>
		<path class="st2" d="M238.8,251.4c-0.3,0.4-0.4,0.5-0.5,0.6c-5.1,3.4-5.5,3.2-10.2-0.2c-3.4-2.4-5.9-6.1-7.4-10.3
			c2.6-3.8,5.3-7.6,8-11.3c0.1-0.1,0.2-0.1,0.4-0.1c0.2,0.1,0.6,0.2,0.7,0.4C233.6,237.2,236.6,244.1,238.8,251.4L238.8,251.4z"/>
		<path class="st2" d="M239.4,210.9c1.8-3.6,4.2-6.6,7.3-8.9c1.7-1.3,3.7-2,5.9-1.7c0.7,0.1,1.4,0.5,2.1,0.8
			c-1.3,7.4-3.6,14.2-7.8,20.4c-1.6-0.9-1.9-2.4-2.7-3.5c-0.8-1.1-1.4-2.3-2.1-3.4C241.4,213.5,240.5,212.3,239.4,210.9L239.4,210.9
			z"/>
		<path class="st2" d="M260.5,206.1c2.1,2.2,3.2,4.6,4.1,7.1c1.1,3,2,6,2.3,9.4c-3,0.9-6,1.1-8.9,1.5c-2.9,0.4-5.9,0.9-9.2,1.4
			c0.3-0.7,0.4-1.1,0.6-1.4c4.6-4.8,8-10.3,10.3-16.4C259.8,207.3,260.1,206.9,260.5,206.1L260.5,206.1z"/>
		<path class="st2" d="M231.9,228.3c2.6-0.1,12.7,1.3,16.9,2.2c0.4,2.3-0.4,4.5-1,6.7c-1.4,4.9-2.4,6.9-4.5,9.3
			c-1-1.5-1.4-3.2-2.3-4.7c-0.9-1.6-1.6-3.1-2.5-4.7c-0.9-1.5-1.9-3-3-4.4C234.5,231.3,233.3,230,231.9,228.3L231.9,228.3z"/>
		<path class="st2" d="M236.6,235.8c-1.3-5.9-1.3-11.4,0-16.3c0.5,0.2,1,0.3,1.4,0.6c2.1,1.4,4.2,2.9,6.2,4.4c1.3,1,1.7,2.9,0.6,4.1
			c-2.4,2.6-4.6,5.3-7.7,7.2C237.1,235.8,237,235.8,236.6,235.8L236.6,235.8z"/>
		<path class="st2" d="M416.6,183.2c0.2,5.1-2.8,15.5-5.5,19.1c-0.8-1.7-1.5-3.3-2.2-4.8c-0.8-1.6-1.6-3.1-2.6-5
			c1-2.9,2.6-5.8,5-8.2C412.8,182.8,414.5,182,416.6,183.2z"/>
		<path class="st2" d="M425.2,203.7c-4.1,0.8-8.1,1.6-12.4,2.4c0.5-1.9,1.8-3.1,2.5-4.5c0.7-1.4,1.5-2.7,2.1-4.1
			c0.7-1.5,1.2-3.1,1.9-4.6c0.6-1.4,0.7-2.9,1.6-4.3C423.2,191.5,425.1,198.3,425.2,203.7L425.2,203.7z"/>
		<path class="st2" d="M425.1,211.2c0.3,4-1.2,10.5-3.3,14.5c-0.8,0.1-0.8-0.6-1-1.1c-1.7-5.1-3.8-10.1-6.9-14.6
			c-0.1-0.1,0-0.4-0.1-0.8C417.8,209.5,421.4,210.6,425.1,211.2z"/>
		<path class="st2" d="M404.5,216.1c-1-5.5-1.1-10.4-0.1-15.6c0.7,0.4,1.1,0.6,1.5,0.9c1.2,1.1,2.4,2.2,3.6,3.4
			c1.1,1.1,1.4,3,0.5,4.3C408.5,211.5,407,213.8,404.5,216.1L404.5,216.1z"/>
		<path class="st2" d="M126.1,219.1C126.1,219.1,126.1,219.1,126.1,219.1S126.1,219.1,126.1,219.1L126.1,219.1L126.1,219.1z"/>
	</g>
	
		<linearGradient id="SVGID_00000145051512186724443570000001116856341162169263_" gradientUnits="userSpaceOnUse" x1="99.4253" y1="229.291" x2="110.3953" y2="283.1609" gradientTransform="matrix(1 0 0 -1 0 484)">
		<stop  offset="0.11" style="stop-color:#A87D2C"/>
		<stop  offset="0.11" style="stop-color:#A97E2B"/>
		<stop  offset="0.15" style="stop-color:#BE932B"/>
		<stop  offset="0.19" style="stop-color:#CEA42B"/>
		<stop  offset="0.25" style="stop-color:#D9B02B"/>
		<stop  offset="0.33" style="stop-color:#E0B72B"/>
		<stop  offset="0.55" style="stop-color:#E2B92B"/>
		<stop  offset="0.85" style="stop-color:#D0B12B"/>
	</linearGradient>
	<polygon style="fill:url(#SVGID_00000145051512186724443570000001116856341162169263_);" points="90.3,232.1 125.8,234.6 
		111.4,252.9 78.3,249 	"/>
	<path class="st8" d="M372.9,87.8c-12.5,12.8-25,25.6-37.6,38.4c-50.4-29.1-102.3-32.9-152.9-3.4c-17.4,10.1-16.9,9-32.5,22.8
		L126.1,158c10.5-26.4,30.1-51.7,60.4-70.7C249.7,47.8,329.5,57.7,372.9,87.8L372.9,87.8z"/>
	<path class="st8" d="M337.9,128.5c12.2-11.5,24.5-23,36.7-34.5c1-1,1.7-2.2,2.7-3.6c2.3,1.5,3.6,2.3,5.2,3.4
		c-9.9,12.2-20,28-29.5,40.3"/>
</g>
</svg>
