<svg xmlns="http://www.w3.org/2000/svg" width="25" height="25" viewBox="0 0 25 25">
  <g id="Group_48212" data-name="Group 48212" transform="translate(-5933 2516)">
    <rect id="Path" width="25" height="25" transform="translate(5933 -2516)" fill="rgba(255,255,255,0)"/>
    <path id="Path_105895" data-name="Path 105895" d="M308.963,2394.118l-1.554-1.556a1.889,1.889,0,0,1-.48-1.156v-2.21a1.641,1.641,0,0,0-1.636-1.638h-2.2a1.886,1.886,0,0,1-1.155-.481l-1.554-1.556a1.639,1.639,0,0,0-2.31,0l-1.574,1.556a1.838,1.838,0,0,1-1.155.481h-2.2a1.641,1.641,0,0,0-1.636,1.638v2.2a1.888,1.888,0,0,1-.48,1.156l-1.554,1.556a1.644,1.644,0,0,0,0,2.313l1.554,1.556a1.891,1.891,0,0,1,.48,1.157v2.2a1.641,1.641,0,0,0,1.636,1.638h2.2a1.885,1.885,0,0,1,1.155.481l1.554,1.556a1.64,1.64,0,0,0,2.31,0l1.554-1.556a1.885,1.885,0,0,1,1.155-.481h2.2a1.641,1.641,0,0,0,1.635-1.638v-2.2a1.891,1.891,0,0,1,.48-1.157l1.554-1.556A1.6,1.6,0,0,0,308.963,2394.118Zm-13.83-1.914a1.022,1.022,0,1,1,1.022,1.023A1.026,1.026,0,0,1,295.133,2392.2Zm1.564,6.683a.765.765,0,0,1-1.084,0,.773.773,0,0,1,0-1.085l6.133-6.141a.767.767,0,1,1,1.084,1.085Zm5.591.481a1.024,1.024,0,1,1,1.012-1.024A1.017,1.017,0,0,1,302.288,2399.369Z" transform="translate(5646.495 -4899.045)" fill="#d0b12b"/>
  </g>
</svg>
