<svg xmlns="http://www.w3.org/2000/svg" width="25" height="25" viewBox="0 0 25 25">
  <g id="Group_48209" data-name="Group 48209" transform="translate(-6161 2565)">
    <rect id="Path" width="25" height="25" transform="translate(6161 -2565)" fill="rgba(255,255,255,0)"/>
    <g id="settings-Light" transform="translate(6163.604 -2562.396)">
      <path id="settings-Light-2" data-name="settings-Light" d="M12.412,16.042a3.646,3.646,0,1,1,3.63-3.661A3.651,3.651,0,0,1,12.412,16.042Zm-.026-6.25A2.6,2.6,0,1,0,15,12.386,2.607,2.607,0,0,0,12.386,9.792Zm.573,12.5-1.042,0a2.086,2.086,0,0,1-2.093-2.075.635.635,0,0,0-.394-.593l-.007,0a.6.6,0,0,0-.657.133,2.092,2.092,0,0,1-2.969.034l-.738-.731a2.084,2.084,0,0,1-.008-2.951.647.647,0,0,0,.134-.695v0a.608.608,0,0,0-.564-.378A2.091,2.091,0,0,1,2.5,12.958l0-1.042A2.086,2.086,0,0,1,4.573,9.824a.635.635,0,0,0,.593-.394l0-.007a.607.607,0,0,0-.133-.657A2.093,2.093,0,0,1,5,5.8l.734-.741a2.085,2.085,0,0,1,2.947-.013.634.634,0,0,0,.7.143.6.6,0,0,0,.38-.564A2.091,2.091,0,0,1,11.833,2.5l1.042,0a2.086,2.086,0,0,1,2.093,2.075.617.617,0,0,0,.384.588h0a.642.642,0,0,0,.681-.126A2.075,2.075,0,0,1,17.519,4.4h0A2.072,2.072,0,0,1,19,5l.738.731a2.086,2.086,0,0,1,.013,2.947.619.619,0,0,0-.149.684l.007.015a.6.6,0,0,0,.563.378,2.091,2.091,0,0,1,2.121,2.074l0,1.042a2.086,2.086,0,0,1-2.075,2.093.617.617,0,0,0-.587.384h0a.644.644,0,0,0,.126.681A2.083,2.083,0,0,1,19.788,19l-.731.738a2.085,2.085,0,0,1-2.947.013.621.621,0,0,0-.684-.149.628.628,0,0,0-.393.57A2.091,2.091,0,0,1,12.958,22.29Zm-3.082-3.6a1.68,1.68,0,0,1,.99,1.5,1.051,1.051,0,0,0,1.046,1.067l1.042,0A1.043,1.043,0,0,0,13.991,20.2a1.687,1.687,0,0,1,1.034-1.565,1.645,1.645,0,0,1,1.8.349,1.051,1.051,0,0,0,1.5.016l.731-.737a1.042,1.042,0,0,0-.008-1.476,1.688,1.688,0,0,1-.379-1.812l0-.011.005-.014a1.64,1.64,0,0,1,1.518-1.025,1.05,1.05,0,0,0,1.065-1.046l0-1.042A1.043,1.043,0,0,0,20.2,10.8a1.655,1.655,0,0,1-1.556-1.014l0-.007a1.652,1.652,0,0,1,.344-1.809A1.05,1.05,0,0,0,19,6.475l-.737-.731a1.038,1.038,0,0,0-.739-.3h0a1.032,1.032,0,0,0-.736.31,1.688,1.688,0,0,1-1.812.379l-.011,0-.014-.005A1.64,1.64,0,0,1,13.926,4.6,1.05,1.05,0,0,0,12.88,3.54l-1.042,0A1.043,1.043,0,0,0,10.8,4.59,1.655,1.655,0,0,1,9.78,6.149a1.679,1.679,0,0,1-1.809-.344,1.051,1.051,0,0,0-1.5-.016l-.734.741A1.043,1.043,0,0,0,5.747,8a1.656,1.656,0,0,1,.385,1.815.483.483,0,0,1-.027.057,1.68,1.68,0,0,1-1.5.99A1.05,1.05,0,0,0,3.54,11.912l0,1.042A1.043,1.043,0,0,0,4.59,13.991a1.651,1.651,0,0,1,1.554,1.016l.005.01,0,.011a1.685,1.685,0,0,1-.351,1.8,1.041,1.041,0,0,0-.009,1.489l.738.731A1.044,1.044,0,0,0,8,19.045a1.656,1.656,0,0,1,1.815-.385A.483.483,0,0,1,9.876,18.687Z" transform="translate(-2.498 -2.498)" fill="#343433"/>
    </g>
  </g>
</svg>
