<svg xmlns="http://www.w3.org/2000/svg" width="25.433" height="25.433" viewBox="0 0 25.433 25.433">
  <g id="Group_48230" data-name="Group 48230" transform="translate(4677.222 -4345.368)">
    <rect id="Path" width="25" height="25" transform="matrix(1, 0.017, -0.017, 1, -4676.785, 4345.368)" fill="rgba(255,255,255,0)"/>
    <g id="settings-Filled" transform="matrix(1, 0.017, -0.017, 1, -4674.738, 4347.488)">
      <path id="settings-Filled-2" data-name="settings-Filled" d="M21.094,10.1h-.031a1.258,1.258,0,0,1-1.156-.781.01.01,0,0,0-.01-.01,1.269,1.269,0,0,1,.271-1.365l.031-.031a1.741,1.741,0,0,0,0-2.458l-.823-.812a1.742,1.742,0,0,0-2.458,0l-.01.021a1.284,1.284,0,0,1-1.385.26,1.241,1.241,0,0,1-.792-1.156V3.74A1.734,1.734,0,0,0,13,2H11.833A1.734,1.734,0,0,0,10.1,3.74v.031a1.247,1.247,0,0,1-.781,1.156,1.2,1.2,0,0,1-.5.1,1.254,1.254,0,0,1-.885-.365l-.021-.021a1.742,1.742,0,0,0-2.458,0l-.823.813a1.742,1.742,0,0,0,0,2.458l.031.031a1.268,1.268,0,0,1-.9,2.156H3.74A1.743,1.743,0,0,0,2,11.844V13a1.743,1.743,0,0,0,1.74,1.74h.031a1.232,1.232,0,0,1,1.156.781,1.3,1.3,0,0,1-.26,1.385l-.021.01a1.754,1.754,0,0,0,0,2.469l.813.812a1.742,1.742,0,0,0,2.458,0l.021-.021A1.235,1.235,0,0,1,9.3,19.906a1.265,1.265,0,0,1,.8,1.167V21.1a1.725,1.725,0,0,0,1.729,1.729H13A1.725,1.725,0,0,0,14.729,21.1v-.031a1.265,1.265,0,0,1,.8-1.167,1.235,1.235,0,0,1,1.365.271l.021.021a1.742,1.742,0,0,0,2.458,0l.813-.812a1.754,1.754,0,0,0,0-2.469l-.021-.01a1.3,1.3,0,0,1-.26-1.385,1.232,1.232,0,0,1,1.156-.781h.031A1.743,1.743,0,0,0,22.833,13V11.844A1.743,1.743,0,0,0,21.094,10.1Zm-8.677,5.958a3.646,3.646,0,1,1,3.646-3.646A3.65,3.65,0,0,1,12.417,16.062Z" transform="translate(-2 -2)" fill="#fbc100"/>
    </g>
  </g>
</svg>
